<svg 
  id="Layer_7" data-name="Layer 7" xmlns="http://www.w3.org/2000/svg" viewBox="0 0 410.47 280.25">
  <defs>
  <style>
    .cls-1{fill:#51b9da;}.cls-2,.cls-3{fill:none;stroke:#51b9da;stroke-miterlimit:10;}.cls-2{stroke-width:7px;}.cls-3{stroke-width:8px;}
  </style>
  </defs>
  <title>agile-development</title>
  <polygon class="cls-1" points="410.47 255.24 368.16 280.25 367.64 231.1 410.47 255.24"/>
    <path class="cls-1" d="M241.75,123.66A86.67,86.67,0,0,0,92.61,182c0,1.06.07,2.1.09,3.15l14.37-1.4c0-.49-.05-1,0-1.46a72.27,72.27,0,0,1,65.1-70.48,74,74,0,0,1,8.57-.33,72.17,72.17,0,0,1,18.49,141.58q.54,2.14,1.11,4.27a84.27,84.27,0,0,1,24.74-.06,86.62,86.62,0,0,0,16.71-133.62Z"/>
    <polygon class="cls-1" points="118.64 173.52 100.25 204.14 82.93 172.9 118.64 173.52"/>
    <path class="cls-2" d="M127.25,117.71C99,106.44,83.2,74,92.42,44.89c9.14-28.79,40.3-46.76,69.77-40a60,60,0,0,1,40.4,32.71"/>
    <polygon class="cls-1" points="189.82 38.27 208.97 54.64 213.57 29.87 189.82 38.27"/>
    <line class="cls-3" y1="256.79" x2="380.42" y2="256.79"/>
</svg>