<svg id="Layer_2" data-name="Layer 2" xmlns="http://www.w3.org/2000/svg" xmlns:xlink="http://www.w3.org/1999/xlink" viewBox="0 0 284.67 297.44"><defs><style>.cls-1,.cls-6{fill:none;}.cls-2{clip-path:url(#clip-path);}.cls-3{fill:#3c3c3c;}.cls-4{fill:#5d8b8e;}.cls-5{clip-path:url(#clip-path-2);}.cls-6{stroke:#5d8b8e;stroke-miterlimit:10;stroke-width:2px;}</style><clipPath id="clip-path" transform="translate(0 -26.31)"><rect class="cls-1" x="122.53" y="163.96" width="39.66" height="40.76"/></clipPath><clipPath id="clip-path-2" transform="translate(0 -26.31)"><rect class="cls-1" x="130.27" y="224.67" width="17.76" height="24.67"/></clipPath></defs><title>api</title><g class="cls-2"><path class="cls-3" d="M161.21,188.64l-1.41-.81a17.57,17.57,0,0,0,0-7l1.4-.81a1.87,1.87,0,0,0,.69-2.56l-3.83-6.63a1.87,1.87,0,0,0-2.56-.69l-1.4.81a17.93,17.93,0,0,0-6.07-3.51v-1.61a1.88,1.88,0,0,0-1.87-1.87h-7.65a1.88,1.88,0,0,0-1.87,1.87v1.61a17.93,17.93,0,0,0-6.06,3.52l-1.41-.81a1.87,1.87,0,0,0-2.56.69l-3.83,6.63a1.87,1.87,0,0,0,.69,2.56l1.41.81a17.57,17.57,0,0,0,0,7l-1.4.81a1.88,1.88,0,0,0-.69,2.56l3.83,6.63a1.88,1.88,0,0,0,2.56.69l1.4-.81a17.94,17.94,0,0,0,6.07,3.51v1.61a1.88,1.88,0,0,0,1.87,1.87h7.65a1.88,1.88,0,0,0,1.87-1.87v-1.61a17.93,17.93,0,0,0,6.06-3.52l1.41.81a1.88,1.88,0,0,0,2.56-.69l3.83-6.63a1.88,1.88,0,0,0-.69-2.56Zm-.35,2L157,197.23a.68.68,0,0,1-.93.25l-1.79-1a.6.6,0,0,0-.71.08,16.71,16.71,0,0,1-6.35,3.68.6.6,0,0,0-.42.57v2a.68.68,0,0,1-.68.68h-7.65a.68.68,0,0,1-.68-.68v-2a.6.6,0,0,0-.42-.57,16.7,16.7,0,0,1-6.36-3.68.6.6,0,0,0-.71-.08l-1.78,1a.68.68,0,0,1-.93-.25l-3.83-6.63a.68.68,0,0,1,.25-.93l1.78-1a.6.6,0,0,0,.28-.65,16.43,16.43,0,0,1,0-7.34.6.6,0,0,0-.28-.65l-1.78-1a.68.68,0,0,1-.25-.93l3.83-6.63a.68.68,0,0,1,.93-.25l1.79,1a.6.6,0,0,0,.71-.08,16.7,16.7,0,0,1,6.35-3.68.6.6,0,0,0,.42-.57v-2a.68.68,0,0,1,.68-.68h7.65a.68.68,0,0,1,.68.68v2a.6.6,0,0,0,.42.57,16.71,16.71,0,0,1,6.36,3.68.6.6,0,0,0,.71.08l1.78-1a.68.68,0,0,1,.93.25l3.83,6.63a.68.68,0,0,1-.25.93l-1.78,1a.6.6,0,0,0-.28.65,16.45,16.45,0,0,1,0,7.34.6.6,0,0,0,.28.65l1.78,1a.68.68,0,0,1,.25.93Zm0,0" transform="translate(0 -26.31)"/></g><path class="cls-3" d="M142.34,172.25a12.08,12.08,0,1,0,12.08,12.08,12.09,12.09,0,0,0-12.08-12.08Zm0,23a10.88,10.88,0,1,1,10.88-10.88,10.9,10.9,0,0,1-10.88,10.88Zm0,0" transform="translate(0 -26.31)"/><path class="cls-4" d="M144.57,181.18h-2.23a.6.6,0,0,0-.6.6v5.1a.6.6,0,0,0,1.2,0v-1.32h1.63a2.19,2.19,0,0,0,0-4.39Zm0,3.19h-1.63v-2h1.63a1,1,0,0,1,0,2Zm0,0" transform="translate(0 -26.31)"/><path class="cls-4" d="M139.07,181.57a.6.6,0,0,0-.56-.39h-.64a.6.6,0,0,0-.56.39l-1.91,5.1a.6.6,0,1,0,1.12.42l.33-.89h2.68l.33.89a.6.6,0,0,0,1.12-.42ZM137.3,185l.89-2.38.89,2.38Zm0,0" transform="translate(0 -26.31)"/><path class="cls-4" d="M148.08,181.18a.6.6,0,0,0-.6.6v5.1a.6.6,0,0,0,1.2,0v-5.1a.6.6,0,0,0-.6-.6Zm0,0" transform="translate(0 -26.31)"/><path class="cls-3" d="M146.62,170.92c.42.13.83.29,1.23.46a.6.6,0,0,0,.47-1.1c-.44-.18-.88-.35-1.33-.5a.6.6,0,0,0-.36,1.14Zm0,0" transform="translate(0 -26.31)"/><path class="cls-3" d="M130,191.06a.6.6,0,0,0-1,.57,15.3,15.3,0,0,0,.82,1.33.6.6,0,1,0,1-.68,14.15,14.15,0,0,1-.75-1.23Zm0,0" transform="translate(0 -26.31)"/><path class="cls-3" d="M141.11,198.35a14.09,14.09,0,0,1-8.56-3.91.6.6,0,0,0-.83.86,15.29,15.29,0,0,0,9.29,4.24h.05a.6.6,0,0,0,.05-1.19Zm0,0" transform="translate(0 -26.31)"/><path class="cls-3" d="M150.94,171.72a.6.6,0,0,0-.67,1,14.09,14.09,0,0,1,5.66,8,.6.6,0,0,0,.58.44l.16,0a.6.6,0,0,0,.42-.73,15.29,15.29,0,0,0-6.14-8.63Zm0,0" transform="translate(0 -26.31)"/><path class="cls-4" d="M168.86,269.09c-1.36-5-11.49-10-29.22-10s-27.86,5-29.22,10a1.16,1.16,0,0,0-.17.57v43.51a1.1,1.1,0,0,0,.14.53c1.39,5.76,13.81,10.05,29.26,10.05s27.82-4.28,29.24-10a1.12,1.12,0,0,0,.15-.57V269.67a1.16,1.16,0,0,0-.17-.57Zm-2.27,30a3.25,3.25,0,0,1-.14.42,2.72,2.72,0,0,1-.17.35,4.58,4.58,0,0,1-.27.44l-.26.33c-.13.15-.27.3-.43.46l-.31.27a7.74,7.74,0,0,1-.61.5l-.3.21c-.26.18-.55.37-.85.55l-.25.14c-.35.19-.72.39-1.11.58l-.16.07c-.44.21-.9.41-1.39.61l0,0a45.71,45.71,0,0,1-10.06,2.55h-.06c-.77.11-1.57.21-2.38.3l-.4,0c-.71.07-1.43.14-2.18.2l-1,.06c-.56,0-1.11.07-1.68.09q-1.4.05-2.86.05t-2.86-.05l-1.68-.09-1-.06c-.74-.05-1.46-.12-2.17-.2l-.41,0q-1.22-.13-2.38-.3H129A45.74,45.74,0,0,1,119,304l0,0c-.49-.2-1-.4-1.39-.61l-.16-.07c-.39-.19-.76-.39-1.11-.58l-.25-.14c-.3-.18-.58-.36-.85-.55l-.3-.21c-.22-.17-.42-.33-.62-.5l-.3-.28a6.16,6.16,0,0,1-.43-.46c-.09-.11-.18-.22-.26-.33a4.52,4.52,0,0,1-.27-.43l-.17-.35a2.7,2.7,0,0,1-.13-.42,2.47,2.47,0,0,1-.09-.57,2.26,2.26,0,0,1,0-.4,1.25,1.25,0,0,0,0-.53v-8.73l.1.09c.26.22.52.45.82.67,4.43,3.35,13.28,6,26.12,6s21.61-2.58,26.06-5.91a10.2,10.2,0,0,0,1-.8v8.73a1.25,1.25,0,0,0,0,.53,2.26,2.26,0,0,1,0,.4,2.46,2.46,0,0,1-.09.57Zm.09-24.33v8.73a1.23,1.23,0,0,0,0,.52,2.25,2.25,0,0,1,0,.4,2.56,2.56,0,0,1-.09.57,3.48,3.48,0,0,1-.14.42,3.72,3.72,0,0,1-.17.35,4.33,4.33,0,0,1-.27.43l-.26.33a6.15,6.15,0,0,1-.43.46l-.31.28c-.19.17-.39.33-.61.5l-.3.21c-.26.18-.55.36-.85.55l-.25.14c-.35.2-.72.4-1.11.58l-.16.07c-.44.21-.9.41-1.39.61l0,0a45.65,45.65,0,0,1-10.06,2.55h-.06c-.77.11-1.57.22-2.38.3l-.4,0c-.71.07-1.43.14-2.18.19-.34,0-.69,0-1,.06l-1.68.09q-1.4,0-2.86,0t-2.86-.05c-.57,0-1.13-.06-1.68-.09l-1-.06c-.74-.06-1.46-.13-2.17-.2l-.41,0c-.81-.09-1.61-.2-2.38-.3H129A45.33,45.33,0,0,1,119,289.89l0,0c-.49-.2-1-.4-1.39-.61l-.16-.07c-.39-.19-.76-.38-1.11-.58l-.25-.14c-.3-.18-.58-.36-.85-.55l-.3-.21c-.22-.17-.42-.33-.62-.5l-.3-.28c-.16-.15-.29-.31-.43-.46a3.25,3.25,0,0,1-.26-.32,5,5,0,0,1-.27-.44,3.87,3.87,0,0,1-.17-.35,3.57,3.57,0,0,1-.22-1,2.25,2.25,0,0,1,0-.4,1.23,1.23,0,0,0,0-.52v-8.73c.14.13.3.26.45.39l.25.21c.35.28.73.55,1.15.82l.27.17c.34.21.71.42,1.1.63l.43.23c.43.22.88.43,1.36.64l.22.1c.55.24,1.14.46,1.75.68l.52.17c.49.17,1,.32,1.5.47l.56.17c.69.19,1.4.37,2.15.53l.32.07c.66.14,1.34.27,2,.4l.72.12c.67.11,1.35.21,2.06.3l.54.07c.87.1,1.78.2,2.71.28l.7,0c.74.06,1.5.1,2.28.14l.86,0c1,0,2,.06,3.12.06s2.1,0,3.12-.06l.86,0c.77,0,1.54-.08,2.28-.14l.7,0c.93-.08,1.84-.17,2.71-.28l.54-.07c.71-.09,1.39-.19,2.06-.3l.72-.12c.7-.13,1.38-.26,2-.4l.32-.07c.75-.17,1.46-.34,2.15-.53l.56-.17c.52-.15,1-.3,1.5-.47l.52-.17c.61-.22,1.19-.44,1.75-.68l.22-.1c.48-.21.92-.42,1.36-.64l.43-.23c.39-.21.75-.41,1.1-.63l.27-.17c.41-.26.8-.54,1.15-.82l.25-.21c.15-.13.32-.25.45-.39Zm-27-13.27c15.94,0,27,4.64,27,8.82s-11.1,8.82-27,8.82-27-4.65-27-8.82,11.1-8.82,27-8.82Zm27,51.38c0,.05,0,.1,0,.16-.67,4.07-11.68,8.42-27,8.42s-26.34-4.35-27-8.42a1.31,1.31,0,0,0,0-.16v-9.89l.1.09c.26.23.52.45.82.67,4.43,3.35,13.28,6,26.12,6s21.61-2.58,26.06-5.91a11.45,11.45,0,0,0,1-.8Zm0,0" transform="translate(0 -26.31)"/><g class="cls-5"><path class="cls-3" d="M145.25,239.2a1.22,1.22,0,0,1,1.74,0,1.26,1.26,0,0,1,0,1.74l-7.29,7.3a1.27,1.27,0,0,1-1.78,0l-7.29-7.3a1.23,1.23,0,0,1,1.74-1.74l5.2,5.22V225.89a1.23,1.23,0,0,1,1.24-1.22,1.21,1.21,0,0,1,1.22,1.22v18.53Zm0,0" transform="translate(0 -26.31)"/></g><polyline class="cls-6" points="0 69.69 90 69.69 90 129.69"/><polyline class="cls-6" points="284.67 69.69 194.67 69.69 194.67 129.69"/><rect class="cls-6" x="76.67" y="130.02" width="132.67" height="56" rx="6" ry="6"/><rect class="cls-4" x="231.51" y="15.65" width="18.04" height="17.64"/><path class="cls-3" d="M255.67,45.91V31.74h-.38V27.68a1.37,1.37,0,0,0-1.36-1.37H226.38A1.37,1.37,0,0,0,225,27.68V76.6A1.37,1.37,0,0,0,226.38,78h27.55a1.37,1.37,0,0,0,1.36-1.37V69h.38V64.52h-.38V45.91Zm-18-18.06H243v.68h-5.34Zm4.59,48.39a.2.2,0,0,1-.2.2h-2.93a.2.2,0,0,1-.2-.2V74.31a.2.2,0,0,1,.09-.17l1.47-1a.21.21,0,0,1,.23,0l1.47,1a.2.2,0,0,1,.09.2ZM253.36,70A1.36,1.36,0,0,1,252,71.33H228.32A1.36,1.36,0,0,1,227,70V31.23a1.36,1.36,0,0,1,1.36-1.36H252a1.36,1.36,0,0,1,1.36,1.36Zm0,0" transform="translate(0 -26.31)"/><rect class="cls-4" x="25.33" y="12.69" width="14.17" height="3.5"/><rect class="cls-4" x="57.83" y="12.19" width="14.17" height="3.5"/><rect class="cls-4" x="57.5" y="25.02" width="14.17" height="3.5"/><rect class="cls-4" x="25" y="25.02" width="14.17" height="3.5"/><path class="cls-3" d="M80.25,68.15V29.54a2.85,2.85,0,0,0-2.85-2.85H20.32a2.85,2.85,0,0,0-2.85,2.85V68.15A2.85,2.85,0,0,0,20.32,71H45.17v7.39H38.39a.61.61,0,0,0-.61.61v2.47a.61.61,0,0,0,.61.61H59.33a.61.61,0,0,0,.61-.61V79a.61.61,0,0,0-.61-.61H52.55V71H77.4A2.85,2.85,0,0,0,80.25,68.15ZM21.16,63.62V30.38h55.4V63.62Zm0,0" transform="translate(0 -26.31)"/></svg>