<svg xmlns="http://www.w3.org/2000/svg" enableBackground="new 0 0 512 512" viewBox="0 0 512 512"><path fill="#113bea" d="M256,25.68c-28.1,0-50.96,22.86-50.96,50.96c0,28.11,22.86,50.97,50.96,50.97
		c28.11,0,50.97-22.86,50.97-50.97C306.97,48.54,284.11,25.68,256,25.68z M256,107.61c-17.07,0-30.96-13.89-30.96-30.97
		c0-17.07,13.89-30.96,30.96-30.96c17.08,0,30.97,13.89,30.97,30.96C286.97,93.72,273.08,107.61,256,107.61z M295.27,122.73h-0.3
		c-2.05,0-4.04,0.63-5.72,1.8c-9.78,6.8-21.27,10.4-33.25,10.4c-11.97,0-23.46-3.6-33.24-10.4c-1.68-1.17-3.67-1.8-5.72-1.8h-0.3
		c-26.48,0-48.02,21.54-48.02,48.02v13.45c0,26.47,21.54,48.01,48.02,48.01h78.53c26.48,0,48.02-21.54,48.02-48.01v-13.45
		C343.29,144.27,321.75,122.73,295.27,122.73z M323.29,184.2c0,15.45-12.57,28.01-28.02,28.01h-78.53
		c-15.45,0-28.02-12.56-28.02-28.01v-13.45c0-14.59,11.22-26.62,25.48-27.9c12.5,7.91,26.88,12.08,41.8,12.08
		c14.93,0,29.31-4.17,41.81-12.08c14.26,1.28,25.48,13.31,25.48,27.9V184.2z M408.72,279.79c-28.1,0-50.96,22.86-50.96,50.97
		c0,28.1,22.86,50.96,50.96,50.96c28.11,0,50.97-22.86,50.97-50.96C459.69,302.65,436.83,279.79,408.72,279.79z M408.72,361.72
		c-17.07,0-30.96-13.891-30.96-30.96c0-17.081,13.89-30.97,30.96-30.97c17.08,0,30.97,13.89,30.97,30.97
		C439.69,347.83,425.8,361.72,408.72,361.72z M447.99,376.85h-0.3c-2.05,0-4.04,0.62-5.72,1.79
		c-9.78,6.81-21.27,10.399-33.25,10.399c-11.97,0-23.47-3.59-33.24-10.399c-1.68-1.17-3.67-1.79-5.72-1.79h-0.3
		c-26.48,0-48.02,21.54-48.02,48.01v13.45c0,26.47,21.54,48.01,48.02,48.01h78.53c26.47,0,48.01-21.54,48.01-48.01v-13.45
		C496,398.39,474.46,376.85,447.99,376.85z M476,438.31c0,15.45-12.56,28.01-28.01,28.01h-78.53c-15.45,0-28.02-12.56-28.02-28.01
		v-13.45c0-14.59,11.22-26.61,25.48-27.9c12.5,7.92,26.88,12.08,41.8,12.08c14.93,0,29.31-4.16,41.81-12.08
		c14.26,1.29,25.47,13.311,25.47,27.9V438.31z M103.29,279.79c-28.11,0-50.97,22.86-50.97,50.97c0,28.1,22.86,50.96,50.97,50.96
		c28.1,0,50.96-22.86,50.96-50.96C154.25,302.65,131.39,279.79,103.29,279.79z M103.29,361.72c-17.08,0-30.97-13.891-30.97-30.96
		c0-17.081,13.89-30.97,30.97-30.97c17.07,0,30.96,13.89,30.96,30.97C134.25,347.83,120.36,361.72,103.29,361.72z M142.55,376.85
		h-0.3c-2.05,0-4.04,0.62-5.72,1.79c-9.78,6.81-21.27,10.399-33.24,10.399c-11.98,0-23.47-3.59-33.25-10.399
		c-1.68-1.17-3.67-1.79-5.72-1.79h-0.3c-26.47,0-48.02,21.54-48.02,48.01v13.45c0,26.47,21.55,48.01,48.02,48.01h78.53
		c26.48,0,48.02-21.54,48.02-48.01v-13.45C190.57,398.39,169.03,376.85,142.55,376.85z M170.57,438.31
		c0,15.45-12.57,28.01-28.02,28.01H64.02c-15.45,0-28.02-12.56-28.02-28.01v-13.45c0-14.59,11.22-26.61,25.48-27.9
		c12.5,7.92,26.88,12.08,41.81,12.08c14.92,0,29.3-4.16,41.8-12.08c14.26,1.29,25.48,13.311,25.48,27.9V438.31z M343.64,359.41
		c-2.88-4.71-9.03-6.189-13.75-3.31c-22.18,13.569-47.73,20.75-73.89,20.75c-26.15,0-51.7-7.181-73.89-20.75
		c-4.71-2.88-10.86-1.4-13.74,3.31c-2.89,4.71-1.4,10.87,3.31,13.75c25.32,15.49,54.49,23.69,84.32,23.69
		c29.84,0,59-8.2,84.33-23.69C345.04,370.28,346.53,364.12,343.64,359.41z M395.62,153.24c-14.08-23.97-34.21-44.05-58.23-58.05
		c-4.77-2.79-10.9-1.17-13.68,3.6s-1.17,10.89,3.6,13.68c43.48,25.34,70.49,72.32,70.49,122.58c0,4.58-0.22,9.2-0.66,13.73
		c-0.52,5.5,3.5,10.38,9,10.91c0.33,0.03,0.65,0.05,0.97,0.05c5.09,0,9.45-3.88,9.94-9.05c0.5-5.16,0.75-10.42,0.75-15.64
		C417.8,206.24,410.13,177.95,395.62,153.24z M188.29,98.79c-2.78-4.77-8.9-6.38-13.67-3.6c-24.02,14-44.15,34.08-58.23,58.05
		c-14.51,24.71-22.18,53-22.18,81.81c0,5.52,0.28,11.08,0.84,16.53c0.52,5.15,4.87,8.99,9.93,8.99c0.34,0,0.68-0.01,1.03-0.05
		c5.49-0.56,9.49-5.46,8.93-10.96c-0.48-4.78-0.73-9.67-0.73-14.51c0-50.26,27.01-97.23,70.48-122.58
		C189.46,109.69,191.08,103.56,188.29,98.79z" class="color3d3f99 svgShape"/><path fill="#fff" d="M286.97 76.64c0 17.08-13.89 30.97-30.97 30.97-17.07 0-30.96-13.89-30.96-30.97 0-17.07 13.89-30.96 30.96-30.96C273.08 45.68 286.97 59.57 286.97 76.64zM323.29 170.75v13.45c0 15.45-12.57 28.01-28.02 28.01h-78.53c-15.45 0-28.02-12.56-28.02-28.01v-13.45c0-14.59 11.22-26.62 25.48-27.9 12.5 7.91 26.88 12.08 41.8 12.08 14.93 0 29.31-4.17 41.81-12.08C312.07 144.13 323.29 156.16 323.29 170.75zM476 424.86v13.45c0 15.45-12.56 28.01-28.01 28.01h-78.53c-15.45 0-28.02-12.56-28.02-28.01v-13.45c0-14.59 11.22-26.61 25.48-27.9 12.5 7.92 26.88 12.08 41.8 12.08 14.93 0 29.31-4.16 41.81-12.08C464.79 398.25 476 410.27 476 424.86zM439.69 330.76c0 17.069-13.89 30.96-30.97 30.96-17.07 0-30.96-13.891-30.96-30.96 0-17.081 13.89-30.97 30.96-30.97C425.8 299.79 439.69 313.68 439.69 330.76zM134.25 330.76c0 17.069-13.89 30.96-30.96 30.96-17.08 0-30.97-13.891-30.97-30.96 0-17.081 13.89-30.97 30.97-30.97C120.36 299.79 134.25 313.68 134.25 330.76zM170.57 424.86v13.45c0 15.45-12.57 28.01-28.02 28.01H64.02c-15.45 0-28.02-12.56-28.02-28.01v-13.45c0-14.59 11.22-26.61 25.48-27.9 12.5 7.92 26.88 12.08 41.81 12.08 14.92 0 29.3-4.16 41.8-12.08C159.35 398.25 170.57 410.27 170.57 424.86z" class="color73b2e1 svgShape"/></svg>