<svg xmlns="http://www.w3.org/2000/svg" enableBackground="new 0 0 512 512" version="1" viewBox="0 0 512 512"><circle cx="256" cy="256" r="221.959" fill="#FFD139"/><path fill="#223A5E" d="M213.367 234.493c-5.522 0-10-4.477-10-10 0-15.29-12.438-27.729-27.729-27.729s-27.729 12.439-27.729 27.729c0 5.523-4.478 10-10 10s-10-4.477-10-10c0-26.318 21.411-47.729 47.729-47.729 26.317 0 47.729 21.411 47.729 47.729C223.367 230.016 218.89 234.493 213.367 234.493zM374.091 234.493c-5.522 0-10-4.477-10-10 0-15.29-12.439-27.729-27.729-27.729s-27.729 12.439-27.729 27.729c0 5.523-4.478 10-10 10s-10-4.477-10-10c0-26.318 21.411-47.729 47.729-47.729 26.318 0 47.729 21.411 47.729 47.729C384.091 230.016 379.613 234.493 374.091 234.493z"/><path fill="#FFF" d="M379.651 154.478c-10.709 0-19.422-8.712-19.422-19.421v-27.241c0-2.761 2.238-5 5-5s5 2.239 5 5v27.241c0 5.195 4.227 9.421 9.422 9.421 5.194 0 9.421-4.227 9.421-9.421v-12.285c0-2.761 2.238-5 5-5s5 2.239 5 5v12.285C399.072 145.766 390.36 154.478 379.651 154.478zM321.94 129.008c-10.709 0-19.422-8.712-19.422-19.421V82.346c0-2.761 2.238-5 5-5s5 2.239 5 5v27.241c0 5.195 4.227 9.421 9.422 9.421 5.194 0 9.421-4.227 9.421-9.421V97.302c0-2.761 2.238-5 5-5s5 2.239 5 5v12.285C341.361 120.296 332.649 129.008 321.94 129.008z"/><path fill="#223A5E" d="M256,332.662c-52.091,0-97.452-27.628-121.032-68.44c-2.489-4.308-9.124-2.554-9.131,2.421
		c0,0.063,0,0.126,0,0.19c0,73.257,58.276,132.643,130.163,132.643s130.163-59.386,130.163-132.643c0-0.063,0-0.127,0-0.19
		c-0.007-4.976-6.642-6.729-9.131-2.421C353.452,305.034,308.091,332.662,256,332.662z"/></svg>