<svg xmlns="http://www.w3.org/2000/svg" fill="#ffff"   height="50" 
     width="50" viewBox="0 0 512 310.93"><g data-name="Layer 2"><path d="M165.63,270.8H10a10,10,0,0,1-10-10V200.61a100.38,100.38,0,0,1,198.28-22.12,10,10,0,0,1-19.51,4.39A80.39,80.39,0,0,0,20,200.61V250.8H165.63a10,10,0,0,1,0,20Z"/><path d="M100.37 120.32a60.16 60.16 0 1160.2-60.16A60.25 60.25 0 01100.37 120.32zm0-100.32a40.16 40.16 0 1040.2 40.16A40.23 40.23 0 00100.37 20zM346.37 310.93H165.63a10 10 0 01-10-10V240.45a100.11 100.11 0 01100-100h.74a100.11 100.11 0 01100 100v60.48A10 10 0 01346.37 310.93zm-170.74-20H336.37V240.45a80.09 80.09 0 00-80-80h-.74a80.09 80.09 0 00-80 80z"/><path d="M256 160.45a60.16 60.16 0 1160.2-60.16A60.25 60.25 0 01256 160.45zm0-100.32a40.16 40.16 0 1040.2 40.16A40.23 40.23 0 00256 60.13zM502 270.8H346.37a10 10 0 010-20H492V200.61a80.32 80.32 0 00-80.37-80.29c-37.26 0-70.23 26.31-78.4 62.57a10 10 0 01-19.51-4.4 100.41 100.41 0 01168.88-48.8A99.55 99.55 0 01512 200.61V260.8A10 10 0 01502 270.8z"/><path d="M411.63,120.32a60.16,60.16,0,1,1,60.21-60.16A60.25,60.25,0,0,1,411.63,120.32Zm0-100.32a40.16,40.16,0,1,0,40.21,40.16A40.23,40.23,0,0,0,411.63,20Z"/></g></svg>