<svg xmlns="http://www.w3.org/2000/svg" viewBox="0 0 128 128"><path fill="#e6e7e8" d="M120.148 55.12h-20.4a4.356 4.356 0 0 0-4.351 4.351V70.3a4.356 4.356 0 0 0 4.351 4.352h3.988V78.48a1 1 0 0 0 .589.912 1 1 0 0 0 1.074-.162l5.179-4.576h9.573A4.357 4.357 0 0 0 124.5 70.3V59.471A4.357 4.357 0 0 0 120.148 55.12zM26.6 79.23a1 1 0 0 0 1.663-.75V74.654h3.987A4.357 4.357 0 0 0 36.606 70.3V59.471a4.356 4.356 0 0 0-4.352-4.351h-20.4A4.356 4.356 0 0 0 7.5 59.471V70.3a4.357 4.357 0 0 0 4.352 4.352h9.574z"/><path fill="#e6e7e8" d="M105.187,107.437v-9.26A30.1,30.1,0,0,0,76.674,68.155a23.689,23.689,0,0,0,5.719-4.072,23.415,23.415,0,0,0,6.619-11.7,3.519,3.519,0,0,0,.926.126c2.451,0,4.37-2.529,4.37-5.757a7.514,7.514,0,0,0-.324-2.206V34.607a27.985,27.985,0,1,0-55.969,0v9.941a7.533,7.533,0,0,0-.323,2.2c0,3.228,1.919,5.757,4.37,5.757a3.474,3.474,0,0,0,1.035-.163,24.46,24.46,0,0,0,12.425,15.8A30.1,30.1,0,0,0,26.813,98.177v9.26a9,9,0,0,0,1,17.941h76.374a9,9,0,0,0,1-17.941Z"/><path fill="#ffd7e5" d="M23.814,120.378v-26.2A29.061,29.061,0,0,1,52.875,65.115H71.124a29.061,29.061,0,0,1,29.062,29.062v26.2Z"/><path fill="#fff" d="M53.128 67.176V65.115h-.253A29.061 29.061 0 0 0 23.814 94.177v3A29.061 29.061 0 0 1 52.875 68.115h.3A8.821 8.821 0 0 1 53.128 67.176zM71.124 65.115h-.252v2.061a8.821 8.821 0 0 1-.051.939h.3a29.061 29.061 0 0 1 29.062 29.062v-3A29.061 29.061 0 0 0 71.124 65.115z"/><path fill="#fff" d="M57.064,74.548h9.871a8.861,8.861,0,0,0,3.937-7.372V63.943A22.4,22.4,0,0,1,62.145,65.7h-.29a22.4,22.4,0,0,1-8.727-1.758v3.233A8.863,8.863,0,0,0,57.064,74.548Z"/><path fill="#d4fbff" d="M62,3.622h0A26.986,26.986,0,0,0,35.015,30.607V40.751C35.552,39.128,36.709,38,38.062,38a2.55,2.55,0,0,1,1.33.388V34.625a19.255,19.255,0,0,1,5.57-13.57A7.581,7.581,0,0,1,52.8,19.311,30.21,30.21,0,0,0,62,20.592a30.21,30.21,0,0,0,9.2-1.281,7.581,7.581,0,0,1,7.833,1.744,19.255,19.255,0,0,1,5.57,13.57v3.759A2.547,2.547,0,0,1,85.938,38c1.352,0,2.51,1.132,3.047,2.755V30.607A26.986,26.986,0,0,0,62,3.622Z"/><path fill="#fff" d="M85.938 38a2.547 2.547 0 0 0-1.33.388v4.709a22.783 22.783 0 0 1-.32 3.783 2.64 2.64 0 0 0 1.65.633c1.861 0 3.369-2.129 3.369-4.756S87.8 38 85.938 38zM39.392 42.551V38.384A2.55 2.55 0 0 0 38.062 38c-1.861 0-3.369 2.129-3.369 4.757s1.508 4.756 3.369 4.756a2.668 2.668 0 0 0 1.724-.69A23.528 23.528 0 0 1 39.392 42.551z"/><path fill="#fff" d="M79.038,21.055a7.581,7.581,0,0,0-7.833-1.744A30.21,30.21,0,0,1,62,20.592a30.21,30.21,0,0,1-9.2-1.281,7.581,7.581,0,0,0-7.833,1.744,19.256,19.256,0,0,0-5.57,13.571v7.925c0,12.259,9.532,22.7,21.784,23.136A22.609,22.609,0,0,0,84.608,43.093V34.626A19.256,19.256,0,0,0,79.038,21.055Z"/><path fill="#d4fbff" d="M47.86,30.8h8.876a3.477,3.477,0,0,1,3.477,3.477v5.06a5.89,5.89,0,0,1-5.89,5.89H48.677a5.89,5.89,0,0,1-5.89-5.89V35.871A5.074,5.074,0,0,1,47.86,30.8Z"/><path fill="#d4fbff" d="M69.677,30.8h5.646a5.89,5.89,0,0,1,5.89,5.89v6.249a2.287,2.287,0,0,1-2.287,2.287H68.86a5.074,5.074,0,0,1-5.074-5.074V36.687a5.89,5.89,0,0,1,5.89-5.89Z" transform="rotate(-180 72.5 38.01)"/><path fill="#fa759e" d="M116.149,52.119h-20.4a3.351,3.351,0,0,0-3.351,3.352V66.3a3.351,3.351,0,0,0,3.351,3.352h4.988V74.48l5.463-4.826h9.953A3.352,3.352,0,0,0,119.5,66.3V55.471A3.352,3.352,0,0,0,116.149,52.119Z"/><path fill="#fff" d="M103.189 65.134a.641.641 0 0 1 .2.509.625.625 0 0 1-.2.5.706.706 0 0 1-.486.175h-.948a1.457 1.457 0 0 1-1.595-1.6V62.632a1.124 1.124 0 0 0-.163-.679.763.763 0 0 0-.558-.246.718.718 0 0 1-.5-.21.7.7 0 0 1-.174-.5.669.669 0 0 1 .174-.474.726.726 0 0 1 .5-.21A.756.756 0 0 0 100 60.07a1.122 1.122 0 0 0 .163-.679v-2.1a1.457 1.457 0 0 1 1.595-1.6h.948a.714.714 0 0 1 .486.173.63.63 0 0 1 .2.5.644.644 0 0 1-.2.511.715.715 0 0 1-.486.174h-.276a.529.529 0 0 0-.372.113.547.547 0 0 0-.12.4v2.04a1.456 1.456 0 0 1-.3.924 1.259 1.259 0 0 1-.7.48 1.259 1.259 0 0 1 .7.48 1.453 1.453 0 0 1 .3.923v2.029a.544.544 0 0 0 .12.4.524.524 0 0 0 .372.114h.276A.705.705 0 0 1 103.189 65.134zM105.215 59.913a1.088 1.088 0 0 1 0-1.475 1.056 1.056 0 0 1 1.464 0 1.088 1.088 0 0 1 0 1.475 1.058 1.058 0 0 1-1.464 0zm1.464 2.593a1.5 1.5 0 0 1 .288.989 3.056 3.056 0 0 1-.9 2.185.539.539 0 0 1-.384.18.51.51 0 0 1-.354-.138.435.435 0 0 1-.15-.331.428.428 0 0 1 .132-.312 2.029 2.029 0 0 0 .528-.911 1 1 0 0 1-.66-.3.93.93 0 0 1-.252-.671 1.028 1.028 0 0 1 .282-.739.937.937 0 0 1 .7-.294A.954.954 0 0 1 106.679 62.506zM112.953 60.526a.665.665 0 0 1 .174.474.7.7 0 0 1-.174.5.718.718 0 0 1-.5.21.763.763 0 0 0-.558.246 1.125 1.125 0 0 0-.162.679l-.012 2.088a1.591 1.591 0 0 1-.42 1.176 1.573 1.573 0 0 1-1.164.42h-.96a.69.69 0 0 1-.474-.175.628.628 0 0 1-.2-.5.644.644 0 0 1 .2-.509.689.689 0 0 1 .474-.174h.288a.524.524 0 0 0 .372-.114.544.544 0 0 0 .12-.4V62.415a1.453 1.453 0 0 1 .3-.923 1.259 1.259 0 0 1 .7-.48 1.259 1.259 0 0 1-.7-.48 1.456 1.456 0 0 1-.3-.924v-2.04a.547.547 0 0 0-.12-.4.529.529 0 0 0-.372-.113h-.288a.7.7 0 0 1-.474-.174.647.647 0 0 1-.2-.511.634.634 0 0 1 .2-.5.7.7 0 0 1 .474-.173h.96a1.457 1.457 0 0 1 1.584 1.6v2.1a1.123 1.123 0 0 0 .162.679.772.772 0 0 0 .57.246A.726.726 0 0 1 112.953 60.526z"/><path fill="#fa759e" d="M7.851,52.119h20.4a3.352,3.352,0,0,1,3.352,3.352V66.3a3.352,3.352,0,0,1-3.352,3.352H23.267V74.48L17.8,69.654H7.851A3.352,3.352,0,0,1,4.5,66.3V55.471A3.352,3.352,0,0,1,7.851,52.119Z"/><path fill="#fff" d="M14.483 63.381a.548.548 0 0 1 .09.306.642.642 0 0 1-.186.474.629.629 0 0 1-.462.186.909.909 0 0 1-.336-.072L9.353 62.547a1.075 1.075 0 0 1-.468-.378 1.007 1.007 0 0 1 .468-1.506l4.236-1.728a.934.934 0 0 1 .347-.072.62.62 0 0 1 .457.18.633.633 0 0 1 .18.468.531.531 0 0 1-.348.516L10.3 61.6l3.924 1.572A.563.563 0 0 1 14.483 63.381zM17.555 62.247a.726.726 0 0 1-.15-.48 2.1 2.1 0 0 1 .222-1.02 5.15 5.15 0 0 1 .654-.9 4.863 4.863 0 0 0 .474-.618 1.05 1.05 0 0 0 .15-.558.651.651 0 0 0-.246-.534 1.032 1.032 0 0 0-.666-.2 1.649 1.649 0 0 0-.714.156q-.33.156-.882.48a1.271 1.271 0 0 1-.576.192.524.524 0 0 1-.426-.222.839.839 0 0 1-.174-.534.786.786 0 0 1 .078-.366.886.886 0 0 1 .246-.282 4 4 0 0 1 1.218-.654 4.291 4.291 0 0 1 1.386-.234 3.261 3.261 0 0 1 1.338.264 2.2 2.2 0 0 1 .924.726 1.743 1.743 0 0 1 .33 1.038 1.862 1.862 0 0 1-.174.81 2.685 2.685 0 0 1-.414.636q-.24.27-.648.666a7.054 7.054 0 0 0-.684.7 1.354 1.354 0 0 0-.288.63.609.609 0 0 1-.2.354.55.55 0 0 1-.366.126A.51.51 0 0 1 17.555 62.247zm-.294 2.574a1.09 1.09 0 0 1 0-1.476.981.981 0 0 1 .732-.294.967.967 0 0 1 .72.294 1.09 1.09 0 0 1 0 1.476.967.967 0 0 1-.72.294A.981.981 0 0 1 17.261 64.821zM27.221 61.035a1.041 1.041 0 0 1 0 1.134 1.084 1.084 0 0 1-.469.378l-4.235 1.728a.917.917 0 0 1-.336.072.626.626 0 0 1-.462-.186.639.639 0 0 1-.187-.474.548.548 0 0 1 .09-.306.574.574 0 0 1 .258-.21L25.805 61.6 21.88 60.027a.531.531 0 0 1-.348-.516.637.637 0 0 1 .18-.468.618.618 0 0 1 .456-.18.944.944 0 0 1 .349.072l4.235 1.728A.994.994 0 0 1 27.221 61.035z"/><path fill="#6dc9f7" d="M92.342,113.947a7.975,7.975,0,0,1,.513-4.767V78.548a4,4,0,0,0-4-4H35.145a4,4,0,0,0-4,4V109.18a7.975,7.975,0,0,1,.513,4.767Z"/><path fill="#d4fbff" d="M35.5,113.947V83.833a4,4,0,0,1,4-4h45a4,4,0,0,1,4,4v30.114Z"/><path fill="#fa759e" d="M55.813 102.752v.035a2.066 2.066 0 0 1-2.887 1.9L41.285 99.638a2.965 2.965 0 0 1-1.785-2.72v-.032a2.965 2.965 0 0 1 1.785-2.72l11.641-5.045a2.066 2.066 0 0 1 2.887 1.9v.057A2.065 2.065 0 0 1 54.49 93L44.446 96.87 54.5 100.83A2.065 2.065 0 0 1 55.813 102.752zM65.011 84.461a1.92 1.92 0 0 0-2.317 1.415l-5.119 21.15a1.921 1.921 0 0 0 1.414 2.317 1.947 1.947 0 0 0 .453.054 1.912 1.912 0 0 0 1.864-1.468l5.119-21.151A1.923 1.923 0 0 0 65.011 84.461zM82.719 99.6l-11.642 5.069a2.066 2.066 0 0 1-2.89-1.894v-.029A2.067 2.067 0 0 1 69.5 100.82l10.089-3.961-10.08-3.9a2.065 2.065 0 0 1-1.32-1.927h0a2.065 2.065 0 0 1 2.884-1.9L82.71 94.157a2.965 2.965 0 0 1 1.79 2.722h0A2.965 2.965 0 0 1 82.719 99.6z"/><path fill="#0089ef" d="M92.342,113.947H31.658a8.011,8.011,0,0,1-4.688,5.781,3.971,3.971,0,0,0,2.175.65h65.71a3.968,3.968,0,0,0,2.174-.65A8.012,8.012,0,0,1,92.342,113.947Z"/><circle cx="23.814" cy="112.378" r="8" fill="#fff"/><circle cx="100.186" cy="112.378" r="8" fill="#fff"/><path fill="#3a2c60" d="M52.026 37.668a2.261 2.261 0 1 0 2.26 2.261A2.261 2.261 0 0 0 52.026 37.668zM71.974 37.668a2.261 2.261 0 1 0 2.261 2.261A2.261 2.261 0 0 0 71.974 37.668zM62 50.992a3.575 3.575 0 0 0 3.571-3.572V45.913a1 1 0 0 0-2 0V47.42a1.571 1.571 0 1 1-3.142 0V45.913a1 1 0 0 0-2 0V47.42A3.575 3.575 0 0 0 62 50.992zM75.024 34.351L70.6 33.58a1 1 0 1 0-.344 1.97l4.427.771a1.02 1.02 0 0 0 .173.015 1 1 0 0 0 .17-1.985zM53.4 33.58l-4.427.771a1 1 0 1 0 .342 1.97l4.428-.771a1 1 0 1 0-.343-1.97zM67.807 54.19a1 1 0 0 0-1.594-1.208A5.554 5.554 0 0 1 62 54.9 5.363 5.363 0 0 1 57.8 53a1 1 0 0 0-1.618 1.175A7.373 7.373 0 0 0 62 56.9 7.578 7.578 0 0 0 67.807 54.19zM116.148 51.12h-20.4a4.356 4.356 0 0 0-4.351 4.351V66.3a4.356 4.356 0 0 0 4.351 4.352h3.988V74.48a1 1 0 0 0 .589.912 1 1 0 0 0 1.074-.162l5.179-4.576h9.573A4.357 4.357 0 0 0 120.5 66.3V55.471A4.357 4.357 0 0 0 116.148 51.12zM118.5 66.3a2.355 2.355 0 0 1-2.353 2.352H106.2a1 1 0 0 0-.662.25l-3.8 3.359V69.654a1 1 0 0 0-1-1H95.745A2.354 2.354 0 0 1 93.394 66.3V55.471a2.353 2.353 0 0 1 2.351-2.351h20.4a2.355 2.355 0 0 1 2.353 2.351zM22.6 75.23a1 1 0 0 0 1.663-.75V70.654h3.987A4.357 4.357 0 0 0 32.606 66.3V55.471a4.356 4.356 0 0 0-4.352-4.351H7.851A4.356 4.356 0 0 0 3.5 55.471V66.3a4.357 4.357 0 0 0 4.352 4.352h9.574zM5.5 66.3V55.471A2.354 2.354 0 0 1 7.851 53.12h20.4a2.354 2.354 0 0 1 2.352 2.351V66.3a2.355 2.355 0 0 1-2.352 2.352H23.267a1 1 0 0 0-1 1v2.609l-3.8-3.359a1 1 0 0 0-.662-.25H7.851A2.355 2.355 0 0 1 5.5 66.3zM35.5 103.958a1 1 0 0 0 1-1v-6.5a1 1 0 0 0-2 0v6.5A1 1 0 0 0 35.5 103.958zM40.888 100.555l11.64 5.045a3.066 3.066 0 0 0 4.285-2.812v-.036A3.049 3.049 0 0 0 54.87 99.9L47.2 96.88l7.648-2.946a3.1 3.1 0 0 0 1.963-2.917A3.066 3.066 0 0 0 52.528 88.2l-11.64 5.045a3.988 3.988 0 0 0 0 7.306zm.8-5.472l11.64-5.044a1.077 1.077 0 0 1 .427-.09 1.058 1.058 0 0 1 .582.176 1.112 1.112 0 0 1-.2 1.942l-10.044 3.87A1 1 0 0 0 44.08 97.8l10.058 3.96a1.06 1.06 0 0 1 .675.992v.036a1.066 1.066 0 0 1-1.49.977L41.683 98.72a1.989 1.989 0 0 1 0-3.637zM56.949 109a2.919 2.919 0 0 0 5.329-.834L67.4 87.015a2.919 2.919 0 1 0-5.674-1.374L56.6 106.79A2.892 2.892 0 0 0 56.949 109zm1.6-1.736l5.119-21.151a.915.915 0 0 1 .417-.57.9.9 0 0 1 .474-.134.946.946 0 0 1 .217.026h0a.921.921 0 0 1 .678 1.11l-5.119 21.151a.932.932 0 0 1-1.109.678.921.921 0 0 1-.569-.416A.91.91 0 0 1 58.547 107.262zM69.146 93.892l7.687 2.974-7.7 3.024a3.079 3.079 0 1 0 2.346 5.693l11.641-5.069a3.964 3.964 0 0 0-.012-7.275L71.467 88.218a3.066 3.066 0 1 0-2.321 5.674zm.521-3.75a1.052 1.052 0 0 1 .582-.178 1.064 1.064 0 0 1 .425.09l11.639 5.021a1.964 1.964 0 0 1 .007 3.605h0l-11.641 5.069a1.049 1.049 0 0 1-1.01-.086 1.09 1.09 0 0 1 .194-1.912l10.09-3.961a1 1 0 0 0 0-1.864l-10.079-3.9a1.058 1.058 0 0 1-.681-.994A1.047 1.047 0 0 1 69.667 90.142z"/><path fill="#3a2c60" d="M101.187,103.437v-9.26A30.1,30.1,0,0,0,72.674,64.155a23.689,23.689,0,0,0,5.719-4.072,23.417,23.417,0,0,0,6.62-11.7,3.427,3.427,0,0,0,.925.13c2.451,0,4.37-2.529,4.37-5.757a7.514,7.514,0,0,0-.324-2.206V30.607a27.985,27.985,0,1,0-55.969,0v9.941a7.533,7.533,0,0,0-.323,2.2c0,3.228,1.919,5.757,4.37,5.757a3.446,3.446,0,0,0,1.036-.16,24.456,24.456,0,0,0,12.424,15.8A30.1,30.1,0,0,0,22.813,94.177v9.26a9,9,0,0,0,1,17.941h76.374a9,9,0,0,0,1-17.941Zm-2,0a8.976,8.976,0,0,0-5.332,2.553V78.548a4.91,4.91,0,0,0-.094-.929,27.906,27.906,0,0,1,5.426,16.558Zm-27.315-37.3A27.954,27.954,0,0,1,90.409,73.82a4.943,4.943,0,0,0-1.554-.272H69.506a9.788,9.788,0,0,0,2.366-6.372Zm-2.087-.766c.032.026.061.04.087.031v1.777a7.835,7.835,0,0,1-3.294,6.372H57.422a7.835,7.835,0,0,1-3.294-6.372V65.4c.02.007.045-.027.07-.075a22.532,22.532,0,0,0,6.942,1.362c.291.01.58.015.87.015A23.573,23.573,0,0,0,69.785,65.368Zm-15.291,8.18H35.145a4.955,4.955,0,0,0-1.555.272,27.958,27.958,0,0,1,18.538-7.686v1.042A9.788,9.788,0,0,0,54.494,73.548Zm-19.349,2h53.71a3,3,0,0,1,3,3v30.438a8.949,8.949,0,0,0-.668,3.392c0,.192.016.38.028.569H89.5V83.833a5.006,5.006,0,0,0-5-5h-45a5.006,5.006,0,0,0-5,5v8.914a1,1,0,1,0,2,0V83.833a3,3,0,0,1,3-3h45a3,3,0,0,1,3,3v29.114h-51v-6.512a1,1,0,0,0-2,0v6.512H32.785c.012-.189.028-.377.028-.569a8.949,8.949,0,0,0-.668-3.392V78.548A3,3,0,0,1,35.145,75.548Zm-2.71,39.4h59.13a9.02,9.02,0,0,0,2.977,4.431H29.458A9.02,9.02,0,0,0,32.435,114.947ZM82.192,35.453A6.078,6.078,0,0,0,76.14,29.8H66.074a3.291,3.291,0,0,0-3.287,3.287v.767H61.171A4.469,4.469,0,0,0,56.736,29.8H47.86a6.076,6.076,0,0,0-6.052,5.656l-1.416.4V34.625a18.211,18.211,0,0,1,5.281-12.867,6.357,6.357,0,0,1,4.556-1.868,7.112,7.112,0,0,1,2.25.37A31.223,31.223,0,0,0,62,21.592a31.223,31.223,0,0,0,9.521-1.332,6.554,6.554,0,0,1,6.8,1.5,18.209,18.209,0,0,1,5.282,12.867v1.232Zm-1.979.418v3.463a4.9,4.9,0,0,1-4.89,4.89H69.677a4.9,4.9,0,0,1-4.89-4.89v-6.25A1.289,1.289,0,0,1,66.074,31.8H76.14A4.078,4.078,0,0,1,80.213,35.871Zm-21-1.6v5.06a4.9,4.9,0,0,1-4.89,4.89H48.677a4.9,4.9,0,0,1-4.89-4.89V35.871A4.078,4.078,0,0,1,47.86,31.8h8.876A2.48,2.48,0,0,1,59.213,34.274ZM85.938,46.509a1.449,1.449,0,0,1-.56-.129,24.016,24.016,0,0,0,.23-3.287V39.038a1.477,1.477,0,0,1,.33-.042c1.285,0,2.37,1.72,2.37,3.756S87.223,46.509,85.938,46.509ZM62,4.622A26.014,26.014,0,0,1,87.984,30.607v7.041A3.589,3.589,0,0,0,85.938,37c-.112,0-.219.022-.33.033v-2.4A20.2,20.2,0,0,0,79.75,20.353a8.542,8.542,0,0,0-8.861-1.99A29.233,29.233,0,0,1,62,19.592a29.237,29.237,0,0,1-8.889-1.229,8.542,8.542,0,0,0-8.861,1.99,20.2,20.2,0,0,0-5.858,14.272v2.4c-.111-.011-.218-.033-.33-.033a3.6,3.6,0,0,0-2.047.652V30.607A26.015,26.015,0,0,1,62,4.622ZM38.062,46.509c-1.285,0-2.37-1.72-2.37-3.757S36.777,39,38.062,39a1.47,1.47,0,0,1,.33.042v3.513a24.271,24.271,0,0,0,.3,3.795A1.483,1.483,0,0,1,38.062,46.509Zm2.33-3.958V37.937l1.395-.4v1.8a6.9,6.9,0,0,0,6.89,6.89h5.646a6.9,6.9,0,0,0,6.89-6.89V35.851h1.574v3.483a6.9,6.9,0,0,0,6.89,6.89h5.646a6.9,6.9,0,0,0,6.89-6.89v-1.8l1.4.4v5.156a21.608,21.608,0,0,1-22.4,21.594C49.731,64.279,40.392,54.349,40.392,42.551ZM30.239,77.618a4.929,4.929,0,0,0-.094.93V105.99a8.976,8.976,0,0,0-5.332-2.553v-9.26A27.909,27.909,0,0,1,30.239,77.618Zm-13.426,34.76a7,7,0,1,1,7,7A7.008,7.008,0,0,1,16.813,112.378Zm83.374,7a7,7,0,1,1,7-7A7.008,7.008,0,0,1,100.187,119.378Z"/></svg>