<svg fill="#ffff" xmlns="http://www.w3.org/2000/svg" viewBox="0 0 24 24"><path d="M18.9102 11.7646c-.1304-.0439-.2729.021-.3203.1504-.1321.3656-.3625.6844-.6371.967-.1967-.3424-.4812-.6303-.8267-.8308-.1191-.0688-.2725-.0293-.3418.0908-.0693.1196-.0283.2725.0908.3418.3533.2048.6228.528.7641.9096.0015.0052-.0013.0105.0005.0157.0742.2065.1104.3999.1104.5908 0 .9648-.7852 1.75-1.75 1.75-.1382 0-.25.1118-.25.25 0 .9648-.7852 1.75-1.75 1.75s-1.75-.7852-1.75-1.75c0-.1382-.1118-.25-.25-.25s-.25.1118-.25.25c0 .9648-.7852 1.75-1.75 1.75s-1.75-.7852-1.75-1.75c0-.1382-.1118-.25-.25-.25-.9648 0-1.75-.7852-1.75-1.75 0-.1909.0361-.3843.1104-.5908.0019-.0052-.001-.0104.0005-.0157.1413-.3817.4108-.7048.7641-.9096.1191-.0693.1602-.2222.0908-.3418-.0698-.1201-.2241-.1597-.3418-.0908-.3482.202-.6337.4932-.8305.8391-.4994-.5125-.7935-1.1785-.7935-1.8904 0-.5863.204-1.1522.5615-1.6292.3234.2982.6906.5474 1.105.6942.0278.0098.0557.0142.0835.0142.103 0 .1992-.064.2358-.1665.0459-.1304-.0225-.2729-.1523-.3193-.4238-.1495-.8063-.4063-1.1111-.7393-.0047-.0063-.0027-.015-.0081-.021-.4609-.5122-.7144-1.1631-.7144-1.833 0-.1382-.1118-.25-.25-.25s-.25.1118-.25.25c0 .7222.2476 1.4243.7017 2-.4541.5757-.7017 1.2778-.7017 2 0 .9189.3936 1.7866 1.0859 2.4067-.0576.2017-.0859.397-.0859.5933 0 1.1606.8828 2.1187 2.0122 2.2378.0625.5927.3597 1.113.7924 1.478-.0427.3312-.0469.8475.2208 1.3941.0435.0889.1323.1401.2246.1401.0371 0 .0747-.0083.1099-.0254.124-.061.1753-.2109.1147-.3345-.1551-.3164-.1912-.6194-.1888-.867.2935.1405.6176.2269.9642.2269.8696 0 1.6255-.4961 2-1.2197.3745.7236 1.1304 1.2197 2 1.2197.3466 0 .6708-.0864.9643-.2269.0023.2476-.0336.5505-.1884.8666-.1226.249-.3667.5962-.8394.8604h-3.9365c-.1382 0-.25.1118-.25.25 0 .6008.4343 1.08 1 1.1994v.8006c0 .6895.5605 1.25 1.25 1.25s1.25-.5605 1.25-1.25v-.8006c.5139-.1084.8997-.5166.9685-1.0438.5533-.3235.8562-.741 1.0061-1.0458.2678-.5466.2635-1.0629.2208-1.3942.4326-.3649.7296-.8853.7919-1.4779 1.1299-.1191 2.0127-1.0771 2.0127-2.2378 0-.1963-.0283-.3916-.0859-.5933.4058-.3638.7139-.8174.8965-1.3218.0469-.1299-.0205-.2729-.1504-.3203zm-6.9102 10.9854c-.4136 0-.75-.3364-.75-.75v-.75h1.5v.75c0 .4136-.3364.75-.75.75zm1-2h-2c-.325 0-.5955-.2104-.6994-.5h3.3988c-.1039.2896-.3745.5-.6994.5zM17.0586 3.9414c-.4531-1.3164-1.666-2.1914-3.0586-2.1914-.0447 0-.0885.0034-.1323.0087-.0011 0-.0017-.001-.0029-.0009-.4156-.6259-1.1158-1.0078-1.8648-1.0078-.7495 0-1.4502.3823-1.8657 1.0088-.0444-.0054-.0889-.0088-.1343-.0088-1.3926 0-2.6055.8755-3.0586 2.1919-.9307.3218-1.6743 1.0518-2.0044 1.9736-.0464.1304.021.2734.1509.3198.0278.0098.0566.0146.0845.0146.1025 0 .1987-.0635.2354-.1655.2391-.6677.7418-1.2026 1.3737-1.5179-.019.1431-.0314.2874-.0314.4334 0 .1382.1118.25.25.25s.25-.1118.25-.25c0-.2557.0377-.5071.1063-.7488.007-.0135.0187-.0239.0231-.0388.3535-1.1738 1.4062-1.9624 2.6206-1.9624.0454 0 .0889.0068.1328.0127l.1084.0127c.0118.0007.0223-.0063.0341-.0073.2186.0219.4347.0652.6412.1386.0278.0098.0557.0142.0835.0142.103 0 .1992-.064.2358-.1665.0459-.1304-.0225-.2729-.1523-.3193-.1226-.0433-.2536-.0538-.3806-.082.3287-.3741.7952-.603 1.2971-.603.4944 0 .9557.2209 1.2836.585-.1238.028-.2474.0577-.3671.1-.1304.0464-.1982.189-.1523.3193.0366.1025.1328.1665.2358.1665.0278 0 .0557-.0044.0835-.0142.2083-.0739.4263-.1153.6473-.1371.0098.0004.0181.0065.028.0058l.1084-.0127c.0439-.0059.0874-.0127.1328-.0127 1.2144 0 2.2671.7886 2.6206 1.9624.0046.0154.0167.0262.024.0402.0684.2413.1054.4922.1054.7474 0 .1382.1118.25.25.25s.25-.1118.25-.25c0-.1518-.0116-.3024-.0322-.4511.932.4566 1.5322 1.3921 1.5322 2.4511 0 .6699-.2534 1.3208-.7144 1.833-.0054.006-.0034.0148-.0081.0212-.3045.3334-.6873.5895-1.1105.7391-.1304.0459-.1987.189-.1528.3188.0361.103.1328.167.2358.167.0278 0 .0557-.0044.083-.0142.4148-.1465.7822-.3956 1.1055-.694.3574.4769.5615 1.0428.5615 1.6291 0 .1382.1118.25.25.25s.25-.1118.25-.25c0-.7222-.2476-1.4243-.7017-2 .4541-.5757.7017-1.2778.7017-2 0-1.3926-.875-2.6055-2.1914-3.0586z"/><path d="M8 7.75c-.4136 0-.75-.3364-.75-.75 0-.1382-.1118-.25-.25-.25s-.25.1118-.25.25c0 .6895.5605 1.25 1.25 1.25s1.25-.5605 1.25-1.25-.5605-1.25-1.25-1.25c-.1382 0-.25.1118-.25.25s.1118.25.25.25c.4136 0 .75.3364.75.75s-.3364.75-.75.75zM16 6.25c.1382 0 .25-.1118.25-.25s-.1118-.25-.25-.25c-.6895 0-1.25.5605-1.25 1.25s.5605 1.25 1.25 1.25 1.25-.5605 1.25-1.25c0-.1382-.1118-.25-.25-.25s-.25.1118-.25.25c0 .4136-.3364.75-.75.75s-.75-.3364-.75-.75.3364-.75.75-.75zM12 2.75c-.1382 0-.25.1118-.25.25V7c0 1.5166-1.2334 2.75-2.75 2.75-.1382 0-.25.1118-.25.25s.1118.25.25.25c1.1617 0 2.1752-.6177 2.75-1.5369v2.3133c-.2111-.1629-.4632-.2764-.75-.2764-.6895 0-1.25.5605-1.25 1.25 0 .1382.1118.25.25.25s.25-.1118.25-.25c0-.4136.3364-.75.75-.75s.75.3364.75.75v2c0 .1382.1118.25.25.25s.25-.1118.25-.25v-2c0-.4136.3364-.75.75-.75s.75.3364.75.75c0 .1382.1118.25.25.25s.25-.1118.25-.25c0-.6895-.5605-1.25-1.25-1.25-.2868 0-.5389.1135-.75.2764v-2.3133c.5748.9193 1.5883 1.5369 2.75 1.5369.1382 0 .25-.1118.25-.25s-.1118-.25-.25-.25c-1.5166 0-2.75-1.2334-2.75-2.75V3c0-.1382-.1118-.25-.25-.25zM10.25 13c0-.1382-.1118-.25-.25-.25s-.25.1118-.25.25c0 .4136-.3364.75-.75.75-.6895 0-1.25.5605-1.25 1.25 0 .1382.1118.25.25.25s.25-.1118.25-.25c0-.4136.3364-.75.75-.75s.75.3364.75.75c0 .1382.1118.25.25.25s.25-.1118.25-.25c0-.4196-.2211-.7732-.5391-1 .318-.2268.5391-.5804.5391-1zM13.75 15c0 .1382.1118.25.25.25s.25-.1118.25-.25c0-.4136.3364-.75.75-.75s.75.3364.75.75c0 .1382.1118.25.25.25s.25-.1118.25-.25c0-.6895-.5605-1.25-1.25-1.25-.4136 0-.75-.3364-.75-.75 0-.1382-.1118-.25-.25-.25s-.25.1118-.25.25c0 .4196.2211.7732.5391 1-.318.2268-.5391.5804-.5391 1z"/><path d="M10 3.75c-.6895 0-1.25.5605-1.25 1.25 0 .1382.1118.25.25.25s.25-.1118.25-.25c0-.4136.3364-.75.75-.75s.75.3364.75.75c0 .1382.1118.25.25.25s.25-.1118.25-.25c0-.6895-.5605-1.25-1.25-1.25zM14 3.75c-.6895 0-1.25.5605-1.25 1.25 0 .1382.1118.25.25.25s.25-.1118.25-.25c0-.4136.3364-.75.75-.75s.75.3364.75.75c0 .1382.1118.25.25.25s.25-.1118.25-.25c0-.6895-.5605-1.25-1.25-1.25zM4 9.75h-1c-.1382 0-.25.1118-.25.25s.1118.25.25.25h1c.1382 0 .25-.1118.25-.25s-.1118-.25-.25-.25zM3.8749 13.7834l-.866.5c-.1197.0691-.1606.2219-.0915.3415.0691.1197.2218.1606.3415.0916l.866-.5c.1197-.0691.1606-.2219.0915-.3416-.0691-.1196-.2218-.1606-.3415-.0915zM21 9.75h-1c-.1382 0-.25.1118-.25.25s.1118.25.25.25h1c.1382 0 .25-.1118.25-.25s-.1118-.25-.25-.25zM3.8749 6.2173c.1197.0691.2724.0282.3415-.0915s.0282-.2724-.0915-.3415l-.866-.5c-.1197-.0691-.2724-.0282-.3415.0915s-.0282.2724.0915.3415l.866.5zM20.1252 6.2164l.866-.5c.1197-.0691.1606-.2219.0916-.3415-.0691-.1197-.2219-.1606-.3416-.0915l-.866.5c-.1197.0691-.1606.2218-.0916.3415.0691.1196.2219.1606.3416.0915zM20.1251 13.7839c-.1197-.0691-.2724-.0282-.3415.0915s-.0282.2724.0915.3415l.866.5c.1197.0691.2724.0282.3415-.0915s.0282-.2724-.0915-.3415l-.866-.5z"/></svg>