<svg xmlns="http://www.w3.org/2000/svg" viewBox="0 0 32 32"><path fill="#263238" d="M9.5 25a2 2 0 1 1-.001 4.001A2 2 0 0 1 9.5 25zm0-1c-1.654 0-3 1.346-3 3s1.346 3 3 3 3-1.346 3-3-1.346-3-3-3zm13 1a2 2 0 1 1-.001 4.001A2 2 0 0 1 22.5 25zm0-1c-1.654 0-3 1.346-3 3s1.346 3 3 3 3-1.346 3-3-1.346-3-3-3zM9.5 3a2 2 0 1 1-.001 4.001A2 2 0 0 1 9.5 3zm0-1c-1.654 0-3 1.346-3 3s1.346 3 3 3 3-1.346 3-3-1.346-3-3-3zM4 14a2 2 0 1 1-.001 4.001A2 2 0 0 1 4 14zm0-1c-1.654 0-3 1.346-3 3s1.346 3 3 3 3-1.346 3-3-1.346-3-3-3zm24 1a2 2 0 1 1-.001 4.001A2 2 0 0 1 28 14zm0-1c-1.654 0-3 1.346-3 3s1.346 3 3 3 3-1.346 3-3-1.346-3-3-3zM22.5 3a2 2 0 1 1-.001 4.001A2 2 0 0 1 22.5 3zm0-1c-1.654 0-3 1.346-3 3s1.346 3 3 3 3-1.346 3-3-1.346-3-3-3z"/><path fill="#263238" d="M11.434 7.09l1.75 3.03-.866.5-1.75-3.03zM19.684 21.378l1.75 3.031-.866.5-1.75-3.03zM20.568 7.09l.866.499-1.75 3.031-.866-.5zM12.318 21.379l.866.5-1.75 3.03-.866-.499zM22.5 15.5H26v1h-3.5zM6 15.5h3.5v1H6z"/><path fill="#263238" d="M22.001 19a.5.5 0 0 1-.461-.693A6.006 6.006 0 0 0 16 10a6.007 6.007 0 0 0-5.541 8.306.5.5 0 0 1-.924.384A7.008 7.008 0 0 1 16 9a7.008 7.008 0 0 1 6.463 9.692.499.499 0 0 1-.462.308z"/><path fill="#263238" d="M16 23a7.012 7.012 0 0 1-5.178-2.3.499.499 0 0 1-.066-.58c.247-.442.633-.77 1.059-.897L14 18.438v-.213c-.639-.57-1-1.368-1-2.225v-1c0-1.309 0-3.5 3-3.5s3 2.191 3 3.5v1c0 .856-.361 1.654-1 2.225v.213l2.211.794c.4.119.786.446 1.033.889a.502.502 0 0 1-.066.58A7.015 7.015 0 0 1 16 23zm-4.146-2.673C12.969 21.396 14.457 22 16 22s3.032-.606 4.147-1.674a.68.68 0 0 0-.249-.145l-2.567-.921a.5.5 0 0 1-.331-.471v-.8c0-.157.073-.304.199-.399.509-.385.801-.965.801-1.59v-1c0-1.55-.097-2.5-2-2.5s-2 .95-2 2.5v1c0 .625.292 1.205.801 1.59a.498.498 0 0 1 .199.399v.8a.5.5 0 0 1-.331.471l-2.542.913a.753.753 0 0 0-.273.154z"/></svg>