<svg xmlns="http://www.w3.org/2000/svg" viewBox="0 0 32 32"><g stroke="#ffff" transform="translate(.5 -1019.737)"><g strokeWidth="1.001" transform="matrix(-3.55516 1.28092 1.28208 3.55195 -331.794 -14.867)"><path fill="none" strokeWidth=".265" d="m 6.6145843,294.75102 -1e-6,1.5875"/><path fill="none" strokeLinecap="round" strokeLinejoin="round" strokeWidth=".265" d="m 7.1418908,296.33851 -1.05459,0"/><path style="line-height:normal;text-indent:0;text-align:start;text-decoration-line:none;text-decoration-style:solid;text-decoration-color:#000;text-transform:none;white-space:normal;isolation:auto;mix-blend-mode:normal;solid-color:#000;solid-opacity:1" fill="#ffff" fill-rule="evenodd" stroke="none" d="m 1239.2617,-607.24609 a 0.50027634,0.49982374 7.7214678e-5 0 0 -0.1,0.0156 0.50027634,0.49982374 7.7214678e-5 0 0 -0.049,0.0176 l -4.6934,1.68945 a 0.50027634,0.49982374 7.7214678e-5 0 0 -0.3047,0.63672 l 2.836,7.85156 c 0.5873,1.62704 2.3956,2.47712 4.0234,1.89063 a 0.50027634,0.49982374 7.7214678e-5 0 0 0.029,-0.01 c 1.5191,-0.64966 2.2245,-2.42101 1.5742,-3.93945 l -2.8242,-7.82617 a 0.50027634,0.49982374 7.7214678e-5 0 0 -0.4922,-0.32617 z m 1.252,5.36718 1.1367,3.15039 a 0.50027634,0.49982374 7.7214678e-5 0 0 0.012,0.0273 c 0.4345,1.01466 -0.037,2.16699 -1.043,2.61133 -1.1117,0.38852 -2.3292,-0.17161 -2.7304,-1.28321 l -1.1367,-3.14843 z" color="#000" enableBackground="accumulate" font-family="sans-serif" font-weight="400" overflow="visible" transform="matrix(-.24891 .08976 .08984 .24914 368.938 331.761)"/><path style="line-height:normal;text-indent:0;text-align:start;text-decoration-line:none;text-decoration-style:solid;text-decoration-color:#000;text-transform:none;white-space:normal;isolation:auto;mix-blend-mode:normal;solid-color:#000;solid-opacity:1" fill="#fad300" fill-rule="evenodd" stroke="none" d="m 6.0861361,291.97264 -2.528e-4,0.92553 1.0587562,3.5e-4 7.68e-5,-0.92602 z" color="#000" enableBackground="accumulate" font-family="sans-serif" font-weight="400" overflow="visible"/><path fill="#ffff" stroke="none" d="M-6.5234552 293.55823a.13230647.13240555 0 01-.1323065.1324.13230647.13240555 0 01-.1323065-.1324.13230647.13240555 0 01.1323065-.13241.13230647.13240555 0 01.1323065.13241zM-6.2587076 294.08749a.13230647.13240555 0 01-.1323065.13241.13230647.13240555 0 01-.1323065-.13241.13230647.13240555 0 01.1323065-.1324.13230647.13240555 0 01.1323065.1324z" transform="matrix(-1 -.00031 .00031 1 0 0)"/></g><g strokeWidth="1.001" transform="matrix(3.55516 1.28092 -1.28208 3.55195 362.794 -15.867)"><path fill="none" strokeWidth=".265" d="m 6.6145843,294.75102 -1e-6,1.5875"/><path fill="none" strokeLinecap="round" strokeLinejoin="round" strokeWidth=".265" d="m 7.1418908,296.33851 -1.05459,0"/><path style="line-height:normal;text-indent:0;text-align:start;text-decoration-line:none;text-decoration-style:solid;text-decoration-color:#000;text-transform:none;white-space:normal;isolation:auto;mix-blend-mode:normal;solid-color:#000;solid-opacity:1" fill="#ffff" fill-rule="evenodd" stroke="none" d="m 1227.8613,-608.24805 0,0.002 a 0.49982374,0.50027634 89.999923 0 0 -0.4433,0.32617 l -2.8242,7.82617 c -0.6504,1.51844 0.057,3.28997 1.5761,3.93945 a 0.49982374,0.50027634 89.999923 0 0 0.027,0.01 c 1.6277,0.58646 3.4381,-0.26359 4.0254,-1.89063 l 2.8339,-7.85156 a 0.49982374,0.50027634 89.999923 0 0 -0.3046,-0.63672 l -4.6934,-1.68945 a 0.49982374,0.50027634 89.999923 0 0 -0.049,-0.0176 0.49982374,0.50027634 89.999923 0 0 -0.1485,-0.0176 z m 0.3242,1.13867 3.7637,1.35547 -1.1875,3.28907 -3.7617,-1.35743 z" color="#000" enableBackground="accumulate" font-family="sans-serif" font-weight="400" overflow="visible" transform="matrix(.24891 -.08976 .08984 .24914 -245.077 553.471)"/><path style="line-height:normal;text-indent:0;text-align:start;text-decoration-line:none;text-decoration-style:solid;text-decoration-color:#000;text-transform:none;white-space:normal;isolation:auto;mix-blend-mode:normal;solid-color:#000;solid-opacity:1" fill="#fad300" fill-rule="evenodd" stroke="none" d="m 6.0857716,293.16381 1.0587812,3.5e-4 -6.78e-5,0.88642 c -1.5e-5,0.31296 -0.252702,0.56135 -0.5643605,0.56479 -0.2902985,-0.0204 -0.5112141,-0.26516 -0.4942267,-0.55696 a 0.13237368,0.13237368 24.28819 0 0 -1.79e-5,-0.008 z" color="#000" enableBackground="accumulate" font-family="sans-serif" font-weight="400" overflow="visible"/><path fill="#ffff" stroke="none" d="M-6.5234552 293.55823a.13230647.13240555 0 01-.1323065.1324.13230647.13240555 0 01-.1323065-.1324.13230647.13240555 0 01.1323065-.13241.13230647.13240555 0 01.1323065.13241zM-6.2587076 294.08749a.13230647.13240555 0 01-.1323065.13241.13230647.13240555 0 01-.1323065-.13241.13230647.13240555 0 01.1323065-.1324.13230647.13240555 0 01.1323065.1324z" transform="matrix(-1 -.00031 .00031 1 0 0)"/></g><g transform="translate(.5)"><path fill="none" strokeLinecap="round" strokeLinejoin="round" d="M15.499951 1026.3551l.00005-1.7358M13.24495 1026.8571l-1.2399-1.2399M17.75505 1026.8571l1.2399-1.2399"/></g></g></svg>