 <svg
                                            width="32"
                                            height="32"
                                            viewBox="0 0 32 32"
                                            fill="none"
                                            xmlns="http://www.w3.org/2000/svg"
                                        >
                                            <path
                                                d="M24.3 31.1499C22.95 31.1499 21.4 30.7999 19.7 30.1499C16.3 28.7999 12.55 26.1999 9.19997 22.8499C5.84997 19.4999 3.24997 15.7499 1.89997 12.2999C0.39997 8.59994 0.54997 5.54994 2.29997 3.84994C2.34997 3.79994 2.44997 3.74994 2.49997 3.69994L6.69997 1.19994C7.74997 0.599942 9.09997 0.899942 9.79997 1.89994L12.75 6.29994C13.45 7.34994 13.15 8.74994 12.15 9.44994L10.35 10.6999C11.65 12.7999 15.35 17.9499 21.25 21.6499L22.35 20.0499C23.2 18.8499 24.55 18.4999 25.65 19.2499L30.05 22.1999C31.05 22.8999 31.35 24.2499 30.75 25.2999L28.25 29.4999C28.2 29.5999 28.15 29.6499 28.1 29.6999C27.2 30.6499 25.9 31.1499 24.3 31.1499ZM3.79997 5.54994C2.84997 6.59994 2.89997 8.74994 3.99997 11.4999C5.24997 14.6499 7.64997 18.0999 10.8 21.2499C13.9 24.3499 17.4 26.7499 20.5 27.9999C23.2 29.0999 25.35 29.1499 26.45 28.1999L28.85 24.0999C28.85 24.0499 28.85 24.0499 28.85 23.9999L24.45 21.0499C24.45 21.0499 24.35 21.0999 24.25 21.2499L23.15 22.8499C22.45 23.8499 21.1 24.1499 20.1 23.4999C13.8 19.5999 9.89997 14.1499 8.49997 11.9499C7.84997 10.8999 8.09997 9.54994 9.09997 8.84994L10.9 7.59994V7.54994L7.94997 3.14994C7.94997 3.09994 7.89997 3.09994 7.84997 3.14994L3.79997 5.54994Z"
                                                fill="#ffff"
                                            />
                                        </svg>