<svg xmlns="http://www.w3.org/2000/svg" enableBackground="new 0 0 294.4 262.3" viewBox="0 0 294.4 262.3"><path fill="#9ac7f7" d="M112.7,193.4v60.4c0,1.7,0.1,3.3,0.2,4.8h68.5c0.1-1.5,0.2-3.1,0.2-4.8v-60.4H112.7z"/><path fill="#0561fc" d="M294.4,200.7c0,5.8-4.7,10.6-10.6,10.6H10.6c-5.8,0-10.6-4.7-10.6-10.6V10.6C0,4.7,4.7,0,10.6,0h273.2
				c5.8,0,10.6,4.7,10.6,10.6V200.7z"/><path fill="#c5e1f9" d="M0,160.1v40.6c0,5.8,4.7,10.6,10.6,10.6h273.2c5.8,0,10.6-4.7,10.6-10.6v-40.6H0z"/><line x1="96.8" x2="198.3" y1="255.9" y2="255.9" fill="none" stroke="#c5e1f9" strokeWidth="12.78"/><rect width="253.9" height="121.1" x="21.3" y="17" fill="#0450cf"/><rect width="86.7" height="61.1" x="188.6" y="17" fill="#7eb3ff"/><rect width="86.7" height="61.1" x="188.6" y="77.3" fill="#fd2227"/><g><path fill="#fff" d="M252.5 77.3c0-18.3 0 .7 0-6.9 0-3.7-2.9-8.9-6.6-10.3-10.6-3.4-17.4-3.4-28 .5-3.7 1.4-6.6 6-6.6 9.8 0 7.6 0-11.4 0 6.9M242.2 43c0-5.7-4.6-10.3-10.3-10.3-5.7 0-10.3 4.6-10.3 10.3 0 5.7 4.6 10.3 10.3 10.3C237.6 53.3 242.2 48.7 242.2 43z"/></g><g><path fill="#fff" d="M146.6 137.9c0-41.7 0 1.7 0-15.7 0-8.5-6.6-20.2-15.1-23.5-24.1-7.8-39.8-7.8-63.9 1.2-8.5 3.3-15 13.8-15.1 22.3 0 17.4 0-26.1 0 15.7M123.2 59.6c0-13-10.5-23.5-23.5-23.5-13 0-23.5 10.5-23.5 23.5 0 13 10.5 23.5 23.5 23.5C112.6 83.1 123.2 72.6 123.2 59.6z"/></g><g><path fill="#fff" d="M252.5 138.2c0-18.3 0 .7 0-6.9 0-3.7-2.9-8.9-6.6-10.3-10.6-3.4-17.4-3.4-28 .5-3.7 1.4-6.6 6-6.6 9.8 0 7.6 0-11.4 0 6.9M242.2 103.8c0-5.7-4.6-10.3-10.3-10.3-5.7 0-10.3 4.6-10.3 10.3 0 5.7 4.6 10.3 10.3 10.3C237.6 114.1 242.2 109.5 242.2 103.8z"/></g></svg>