<svg xmlns="http://www.w3.org/2000/svg" viewBox="0 0 300 300"  >

  <defs>
  <clipPath id="__lottie_element_2"><rect  width="300" height="300" x="0" y="0"></rect></clipPath>
</defs>
  <g clip-path="url(#__lottie_element_2)">
  <g transform="matrix(1,0,0,1,-443.5,-565)" opacity="1" style="display: block;"><g opacity="1" transform="matrix(1,0,0,1,595.0120239257812,770.8569946289062)">
<path fill="rgb(78,90,176)" fillOpacity="1" 
  d=" M78.94599914550781,-29.996000289916992 C78.93099975585938,-29.868000030517578 
  78.91799926757812,-29.739999771118164 78.89099884033203,-29.61199951171875 C78.86900329589844,-29.507999420166016 78.83599853515625,-29.405000686645508 78.80599975585938,-29.301000595092773 C78.77100372314453,-29.18000030517578 78.73799896240234,-29.05900001525879 78.69300079345703,-28.93899917602539 C78.65499877929688,-28.839000701904297 78.60700225830078,-28.740999221801758 78.56199645996094,-28.642000198364258 C78.50499725341797,-28.516000747680664 78.4469985961914,-28.389999389648438 78.37799835205078,-28.264999389648438 C78.3280029296875,-28.173999786376953 78.26799774169922,-28.084999084472656 78.21099853515625,-27.9950008392334 C78.12100219726562,-27.85300064086914 78.0250015258789,-27.711000442504883 77.91899871826172,-27.57200050354004 C77.85600280761719,-27.489999771118164 77.78900146484375,-27.409000396728516 77.72100067138672,-27.327999114990234 C77.56300354003906,-27.139999389648438 77.38899993896484,-26.95599937438965 77.2020034790039,-26.774999618530273 C77.13400268554688,-26.708999633789062 77.0719985961914,-26.642000198364258 77,-26.577999114990234 C76.88300323486328,-26.472999572753906 76.75399780273438,-26.37299919128418 76.62699890136719,-26.270999908447266 C76.51499938964844,-26.180999755859375 76.40699768066406,-26.09000015258789 76.28700256347656,-26.003000259399414 C76.1500015258789,-25.90399932861328 76,-25.80900001525879 75.85299682617188,-25.71299934387207 C75.70099639892578,-25.61400032043457 75.55699920654297,-25.511999130249023 75.39399719238281,-25.41699981689453 C75.39399719238281,-25.41699981689453 8.491999626159668,13.642999649047852 8.491999626159668,13.642999649047852 C7.985000133514404,13.939000129699707 7.431000232696533,14.190999984741211 6.861000061035156,14.420999526977539 C6.711999893188477,14.480999946594238 6.560999870300293,14.536999702453613 6.4079999923706055,14.593000411987305 C6.053999900817871,14.722000122070312 5.683000087738037,14.824000358581543 5.313000202178955,14.928999900817871 C4.928999900817871,15.036999702453613 4.543000221252441,15.140000343322754 4.144999980926514,15.222000122070312 C3.678999900817871,15.317999839782715 3.2079999446868896,15.406000137329102 2.7279999256134033,15.467000007629395 C2.611999988555908,15.482000350952148 2.499000072479248,15.501999855041504 2.382999897003174,15.515000343322754 C1.7350000143051147,15.585000038146973 1.0789999961853027,15.618000030517578 0.421999990940094,15.62399959564209 C0.3190000057220459,15.625 0.21400000154972076,15.626999855041504 0.11100000143051147,15.62600040435791 C-0.5370000004768372,15.621000289916992 -1.184999942779541,15.585000038146973 -1.8250000476837158,15.517999649047852 C-1.9210000038146973,15.508000373840332 -2.0169999599456787,15.496999740600586 -2.11299991607666,15.484999656677246 C-2.749000072479248,15.409000396728516 -3.375999927520752,15.300999641418457 -3.98799991607666,15.161999702453613 C-4.099999904632568,15.13700008392334 -4.209000110626221,15.107000350952148 -4.320000171661377,15.079999923706055 C-4.876999855041504,14.942000389099121 -5.418000221252441,14.774999618530273 -5.940999984741211,14.583999633789062 C-6.034999847412109,14.550000190734863 -6.133999824523926,14.52299976348877 -6.22599983215332,14.487000465393066 C-6.853000164031982,14.243000030517578 -7.451000213623047,13.96500015258789 -8.005999565124512,13.642999649047852 C-8.005999565124512,13.642999649047852 -75.33699798583984,-25.41699981689453 -75.33699798583984,-25.41699981689453 C-77.71399688720703,-26.79599952697754 -78.93599700927734,-28.606000900268555 -78.98600006103516,-30.417999267578125 C-78.98600006103516,-30.417999267578125 -78.55400085449219,-15.092000007629395 -78.55400085449219,-15.092000007629395 C-78.50499725341797,-13.302000045776367 -77.29000091552734,-11.510000228881836 -74.9280014038086,-10.14799976348877 C-74.9280014038086,-10.14799976348877 -7.993000030517578,28.45599937438965 -7.993000030517578,28.45599937438965 C-7.468999862670898,28.757999420166016 -6.9079999923706055,29.025999069213867 -6.317999839782715,29.259000778198242 C-6.288000106811523,29.270999908447266 -6.254000186920166,29.277999877929688 -6.223999977111816,29.290000915527344 C-6.13100004196167,29.326000213623047 -6.0320000648498535,29.35300064086914 -5.936999797821045,29.386999130249023 C-5.598999977111816,29.510000228881836 -5.26200008392334,29.632999420166016 -4.908999919891357,29.733999252319336 C-4.71999979019165,29.788000106811523 -4.5229997634887695,29.827999114990234 -4.329999923706055,29.875999450683594 C-4.218999862670898,29.902999877929688 -4.110000133514404,29.933000564575195 -3.997999906539917,29.95800018310547 C-3.8980000019073486,29.981000900268555 -3.8010001182556152,30.010000228881836 -3.700000047683716,30.0310001373291 C-3.322000026702881,30.108999252319336 -2.937000036239624,30.176000595092773 -2.549999952316284,30.231000900268555 C-2.4130001068115234,30.25 -2.2739999294281006,30.26099967956543 -2.135999917984009,30.277000427246094 C-2.0390000343322754,30.288999557495117 -1.9429999589920044,30.298999786376953 -1.8459999561309814,30.30900001525879 C-1.7050000429153442,30.323999404907227 -1.565000057220459,30.344999313354492 -1.4229999780654907,30.35700035095215 C-1.0440000295639038,30.38800048828125 -0.6639999747276306,30.409000396728516 -0.28200000524520874,30.417999267578125 C-0.16300000250339508,30.42099952697754 -0.0430000014603138,30.415000915527344 0.07599999755620956,30.416000366210938 C0.18000000715255737,30.41699981689453 0.28299999237060547,30.416000366210938 0.3869999945163727,30.415000915527344 C0.5600000023841858,30.413999557495117 0.7329999804496765,30.417999267578125 0.9049999713897705,30.41200065612793 C1.3350000381469727,30.39699935913086 1.7640000581741333,30.368000030517578 2.190000057220459,30.326000213623047 C2.239000082015991,30.320999145507812 2.2850000858306885,30.31100082397461 2.3340001106262207,30.305999755859375 C2.4509999752044678,30.292999267578125 2.565000057220459,30.273000717163086 2.680999994277954,30.257999420166016 C3.01200008392334,30.215999603271484 3.3440001010894775,30.18000030517578 3.6689999103546143,30.121000289916992 C3.812999963760376,30.094999313354492 3.944999933242798,30.04599952697754 4.086999893188477,30.017000198364258 C4.484000205993652,29.934999465942383 4.866000175476074,29.833999633789062 5.249000072479248,29.726999282836914 C5.451000213623047,29.670000076293945 5.666999816894531,29.63800048828125 5.863999843597412,29.573999404907227 C6.0269999504089355,29.520999908447266 6.177999973297119,29.452999114990234 6.336999893188477,29.395000457763672 C6.488999843597412,29.34000015258789 6.638999938964844,29.28499984741211 6.788000106811523,29.225000381469727 C7.355000019073486,28.996999740600586 7.9039998054504395,28.749000549316406 8.409000396728516,28.45599937438965 C8.409000396728516,28.45599937438965 74.91600036621094,-10.14900016784668 74.91600036621094,-10.14900016784668 C74.96499633789062,-10.178000450134277 75.01399993896484,-10.206999778747559 75.06199645996094,-10.236000061035156 C75.1719970703125,-10.302000045776367 75.26699829101562,-10.371999740600586 75.37100219726562,-10.4399995803833 C75.51799774169922,-10.53499984741211 75.66699981689453,-10.630000114440918 75.80400085449219,-10.729000091552734 C75.9229965209961,-10.8149995803833 76.03099822998047,-10.904000282287598 76.14199829101562,-10.993000030517578 C76.26799774169922,-11.093000411987305 76.39600372314453,-11.194000244140625 76.51200103759766,-11.29699993133545 C76.53500366210938,-11.317999839782715 76.56400299072266,-11.336999893188477 76.58699798583984,-11.357999801635742 C76.63400268554688,-11.401000022888184 76.66699981689453,-11.446999549865723 76.71299743652344,-11.491000175476074 C76.9000015258789,-11.670000076293945 77.0719985961914,-11.85200023651123 77.22899627685547,-12.038000106811523 C77.26300048828125,-12.07800006866455 77.30899810791016,-12.116000175476074 77.34200286865234,-12.156999588012695 C77.3740005493164,-12.196999549865723 77.3949966430664,-12.23799991607666 77.4260025024414,-12.277999877929688 C77.53199768066406,-12.416000366210938 77.6259994506836,-12.557000160217285 77.71600341796875,-12.697999954223633 C77.75399780273438,-12.756999969482422 77.802001953125,-12.814000129699707 77.83699798583984,-12.873000144958496 C77.85399627685547,-12.902999877929688 77.86499786376953,-12.932999610900879 77.88200378417969,-12.963000297546387 C77.95099639892578,-13.086000442504883 78.00800323486328,-13.211999893188477 78.06500244140625,-13.336999893188477 C78.0979995727539,-13.40999984741211 78.14299774169922,-13.480999946594238 78.1719970703125,-13.553999900817871 C78.18199920654297,-13.579000473022461 78.18599700927734,-13.604000091552734 78.19499969482422,-13.628999710083008 C78.23999786376953,-13.748000144958496 78.27300262451172,-13.866999626159668 78.30699920654297,-13.987000465393066 C78.33000183105469,-14.067999839782715 78.36499786376953,-14.14900016784668 78.38300323486328,-14.229999542236328 C78.38800048828125,-14.251999855041504 78.38700103759766,-14.27299976348877 78.39199829101562,-14.295000076293945 C78.41899871826172,-14.420999526977539 78.43099975585938,-14.545999526977539 78.44599914550781,-14.67199993133545 C78.45600128173828,-14.753999710083008 78.47599792480469,-14.836999893188477 78.48100280761719,-14.918999671936035 C78.48300170898438,-14.954000473022461 78.48500061035156,-14.98900032043457 78.48600006103516,-15.02400016784668 C78.48600006103516,-15.02400016784668 78.98600006103516,-30.350000381469727 78.98600006103516,-30.350000381469727 C78.98200225830078,-30.23200035095215 78.95999908447266,-30.11400032043457 78.94599914550781,-29.996000289916992z">
</path></g><g opacity="1" transform="matrix(1,0,0,1,595.0130004882812,740.4719848632812)"><path fill="rgb(222,222,255)" fillOpacity="1" d=" M75.48400115966797,-4.861000061035156 C80.13400268554688,-2.177000045776367 80.15699768066406,2.1760001182556152 75.53800201416016,4.860000133514404 C75.53800201416016,4.860000133514404 8.63700008392334,43.73899841308594 8.63700008392334,43.73899841308594 C4.01800012588501,46.42300033569336 -3.494999885559082,46.42300033569336 -8.145000457763672,43.73899841308594 C-8.145000457763672,43.73899841308594 -75.48400115966797,4.861000061035156 -75.48400115966797,4.861000061035156 C-80.13400268554688,2.177000045776367 -80.15699768066406,-2.1760001182556152 -75.53800201416016,-4.860000133514404 C-75.53800201416016,-4.860000133514404 -8.63700008392334,-43.73899841308594 -8.63700008392334,-43.73899841308594 C-4.01800012588501,-46.42300033569336 3.494999885559082,-46.42300033569336 8.145000457763672,-43.73899841308594 C8.145000457763672,-43.73899841308594 75.48400115966797,-4.861000061035156 75.48400115966797,-4.861000061035156z">
  
</path></g></g><g transform="matrix(1,0,0,1,155.40499877929688,177.68899536132812)" opacity="1" style="display: block;"><g opacity="1" transform="matrix(1,0,0,1,0,0)"><path fill="rgb(180,187,239)" fillOpacity="1" d=" M27.30299949645996,-13.503999710083008 C34.33300018310547,-10.362000465393066 36.849998474121094,-5.815000057220459 33.694000244140625,-2.621999979019165 C33.20100021362305,-2.0999999046325684 32.54399871826172,-1.6239999532699585 31.743999481201172,-1.1970000267028809 C31.743999481201172,-1.1970000267028809 -0.8399999737739563,16.208999633789062 -0.8399999737739563,16.208999633789062 C-1.430999994277954,16.524999618530273 -2.0880000591278076,16.801000595092773 -2.7839999198913574,17.0310001373291 C-8.8149995803833,19.075000762939453 -18.194000244140625,18.023000717163086 -24.832000732421875,14.425000190734863 C-32.04100036621094,10.517000198364258 -33.31700134277344,5.045000076293945 -27.847999572753906,2.1070001125335693 C-27.847999572753906,2.1070001125335693 -27.832000732421875,2.0980000495910645 -27.832000732421875,2.0980000495910645 C-36.152000427246094,-2.5439999103546143 -37.428001403808594,-8.925999641418457 -30.81599998474121,-12.48900032043457 C-26.413999557495117,-14.861000061035156 -18.905000686645508,-15.689000129699707 -11.904999732971191,-12.689000129699707 C-11.821000099182129,-14.138999938964844 -11.368000030517578,-15.074000358581543 -10.904999732971191,-15.689000129699707 C-8.52299976348877,-18.851999282836914 -1.8389999866485596,-18.90999984741211 5.626999855041504,-15.532999992370605 C11.468999862670898,-17.298999786376953 20.43600082397461,-16.572999954223633 27.30299949645996,-13.503999710083008z"></path></g></g><g transform="matrix(1,0,0,1,-443.5,-557.5415649414062)" opacity="1" style="display: block;"><g opacity="1" transform="matrix(1,0,0,1,571.7420043945312,688.802001953125)"><path fill="rgb(78,90,176)" fillOpacity="1" d=" M6.118000030517578,24.030000686645508 C6.118000030517578,24.030000686645508 -6.002999782562256,16.729000091552734 -6.002999782562256,16.729000091552734 C-6.002999782562256,16.729000091552734 -6.118000030517578,-24.030000686645508 -6.118000030517578,-24.030000686645508 C-6.118000030517578,-24.030000686645508 6.002999782562256,-16.729000091552734 6.002999782562256,-16.729000091552734 C6.002999782562256,-16.729000091552734 6.118000030517578,24.030000686645508 6.118000030517578,24.030000686645508z"></path></g><g opacity="1" transform="matrix(1,0,0,1,576.4600219726562,665.6649780273438)"><path fill="rgb(109,114,191)" fillOpacity="1" d=" M1.284999966621399,6.4079999923706055 C1.284999966621399,6.4079999923706055 -10.836000442504883,-0.8930000066757202 -10.836000442504883,-0.8930000066757202 C-10.836000442504883,-0.8930000066757202 -1.284999966621399,-6.4079999923706055 -1.284999966621399,-6.4079999923706055 C-1.284999966621399,-6.4079999923706055 10.836000442504883,0.8930000066757202 10.836000442504883,0.8930000066757202 C10.836000442504883,0.8930000066757202 1.284999966621399,6.4079999923706055 1.284999966621399,6.4079999923706055z"></path></g><g opacity="1" transform="matrix(1,0,0,1,582.5780029296875,689.6950073242188)"><path fill="rgb(139,144,219)" fillOpacity="1" d=" M4.7179999351501465,-23.136999130249023 C4.7179999351501465,-23.136999130249023 4.834000110626221,17.621999740600586 4.834000110626221,17.621999740600586 C4.834000110626221,17.621999740600586 -4.7179999351501465,23.136999130249023 -4.7179999351501465,23.136999130249023 C-4.7179999351501465,23.136999130249023 -4.834000110626221,-17.621999740600586 -4.834000110626221,-17.621999740600586 C-4.834000110626221,-17.621999740600586 4.7179999351501465,-23.136999130249023 4.7179999351501465,-23.136999130249023z"></path></g></g><g transform="matrix(1,0,0,1,-443.5,-557.5415649414062)" opacity="1" style="display: block;"><g opacity="1" transform="matrix(1,0,0,1,556.3560180664062,702.7369995117188)"><path fill="rgb(78,90,176)" fillOpacity="1" d=" M6.1020002365112305,18.148000717163086 C6.1020002365112305,18.148000717163086 -6.019000053405762,10.847999572753906 -6.019000053405762,10.847999572753906 C-6.019000053405762,10.847999572753906 -6.1020002365112305,-18.148000717163086 -6.1020002365112305,-18.148000717163086 C-6.1020002365112305,-18.148000717163086 6.019000053405762,-10.847999572753906 6.019000053405762,-10.847999572753906 C6.019000053405762,-10.847999572753906 6.1020002365112305,18.148000717163086 6.1020002365112305,18.148000717163086z"></path></g><g opacity="1" transform="matrix(1,0,0,1,561.0900268554688,685.4819946289062)"><path fill="rgb(109,114,191)" fillOpacity="1" d=" M1.284999966621399,6.4079999923706055 C1.284999966621399,6.4079999923706055 -10.836000442504883,-0.8930000066757202 -10.836000442504883,-0.8930000066757202 C-10.836000442504883,-0.8930000066757202 -1.284999966621399,-6.4079999923706055 -1.284999966621399,-6.4079999923706055 C-1.284999966621399,-6.4079999923706055 10.836000442504883,0.8930000066757202 10.836000442504883,0.8930000066757202 C10.836000442504883,0.8930000066757202 1.284999966621399,6.4079999923706055 1.284999966621399,6.4079999923706055z"></path></g><g opacity="1" transform="matrix(1,0,0,1,567.1920166015625,703.6300048828125)"><path fill="rgb(139,144,219)" fillOpacity="1" d=" M4.735000133514404,-17.2549991607666 C4.735000133514404,-17.2549991607666 4.816999912261963,11.741000175476074 4.816999912261963,11.741000175476074 C4.816999912261963,11.741000175476074 -4.735000133514404,17.2549991607666 -4.735000133514404,17.2549991607666 C-4.735000133514404,17.2549991607666 -4.816999912261963,-11.741000175476074 -4.816999912261963,-11.741000175476074 C-4.816999912261963,-11.741000175476074 4.735000133514404,-17.2549991607666 4.735000133514404,-17.2549991607666z"></path></g></g><g transform="matrix(1,0,0,1,-443.5,-557.5415649414062)" opacity="1" style="display: block;"><g opacity="1" transform="matrix(1,0,0,1,541.4569702148438,715.4769897460938)"><path fill="rgb(78,90,176)" fillOpacity="1" d=" M6.086999893188477,12.859999656677246 C6.086999893188477,12.859999656677246 -6.033999919891357,5.559000015258789 -6.033999919891357,5.559000015258789 C-6.033999919891357,5.559000015258789 -6.086999893188477,-12.859999656677246 -6.086999893188477,-12.859999656677246 C-6.086999893188477,-12.859999656677246 6.033999919891357,-5.559000015258789 6.033999919891357,-5.559000015258789 C6.033999919891357,-5.559000015258789 6.086999893188477,12.859999656677246 6.086999893188477,12.859999656677246z"></path></g><g opacity="1" transform="matrix(1,0,0,1,546.2030029296875,703.5130004882812)"><path fill="rgb(109,114,191)" fillOpacity="1" d=" M1.2890000343322754,6.40500020980835 C1.2890000343322754,6.40500020980835 -10.831999778747559,-0.8949999809265137 -10.831999778747559,-0.8949999809265137 C-10.831999778747559,-0.8949999809265137 -1.2890000343322754,-6.40500020980835 -1.2890000343322754,-6.40500020980835 C-1.2890000343322754,-6.40500020980835 10.831999778747559,0.8949999809265137 10.831999778747559,0.8949999809265137 C10.831999778747559,0.8949999809265137 1.2890000343322754,6.40500020980835 1.2890000343322754,6.40500020980835z"></path></g><g opacity="1" transform="matrix(1,0,0,1,552.2890014648438,716.3720092773438)"><path fill="rgb(139,144,219)" fillOpacity="1" d=" M4.745999813079834,-11.96399974822998 C4.745999813079834,-11.96399974822998 4.797999858856201,6.454999923706055 4.797999858856201,6.454999923706055 C4.797999858856201,6.454999923706055 -4.745999813079834,11.96399974822998 -4.745999813079834,11.96399974822998 C-4.745999813079834,11.96399974822998 -4.797999858856201,-6.454999923706055 -4.797999858856201,-6.454999923706055 C-4.797999858856201,-6.454999923706055 4.745999813079834,-11.96399974822998 4.745999813079834,-11.96399974822998z"></path></g></g><g transform="matrix(1,0,0,1,104.87200164794922,109.25941467285156)" opacity="1" style="display: block;"><g opacity="1" transform="matrix(1,0,0,1,0,0)"><path strokeLinecap="round" strokeLinejoin="round" fillOpacity="0" stroke-dasharray=" 3 9 1" stroke-dashoffset="0" stroke="rgb(78,90,176)" strokeOpacity="1" strokeWidth="3" d=" M13.531000137329102,-9.039999961853027 C6.1620001792907715,9.338000297546387 -7.124000072479248,22.809999465942383 -18.843000411987305,30.801000595092773"></path></g></g><g transform="matrix(0.9975640773773193,-0.06975647062063217,0.06975647062063217,0.9975640773773193,123.62000274658203,71.93929290771484)" opacity="1" style="display: none;">
  <g opacity="1" transform="matrix(1,0,0,1,0,0)">
  </g></g><g transform="matrix(0.9961276650428772,0.087918721139431,-0.087918721139431,0.9961276650428772,119.85165405273438,95.80939483642578)" opacity="1" style="display: block;"><g opacity="1" transform="matrix(1,0,0,1,0,0)"><path fill="rgb(78,90,176)" fillOpacity="1" d=" M-5.317999839782715,3.3320000171661377 C-5.317999839782715,3.3320000171661377 1.4700000286102295,-5.0289998054504395 1.4700000286102295,-5.0289998054504395 C1.4700000286102295,-5.0289998054504395 5.317999839782715,5.0289998054504395 5.317999839782715,5.0289998054504395 C5.317999839782715,5.0289998054504395 -5.317999839782715,3.3320000171661377 -5.317999839782715,3.3320000171661377z"></path></g></g></g></svg>