<svg xmlns="http://www.w3.org/2000/svg" data-name="Layer 1" viewBox="0 0 128 128"><path fill="#5e7dfc" d="M13.542 49.167h100.677V59H13.542z" class="colorfc785e svgShape"/><path fill="#c5cef1" d="M115.005 4.83v47.21H12.755V3.67l3.75-3.25h96.59l1.91 4.41z" class="colorc5edf1 svgShape"/><path fill="#82879e" d="M69 13a1 1 0 0 0 0-2h-9a1 1 0 0 0 0 2zm6 3a1 1 0 0 0-1-1H54a1 1 0 0 0 0 2h20a1 1 0 0 0 1-1zm-6 5a1 1 0 0 0 0-2h-9a1 1 0 0 0 0 2z" class="color829d9e svgShape" opacity=".5"/><path fill="#5e7dfc" d="M102 83a11.004 11.004 0 0 1 10.524-10.976 11.227 11.227 0 0 0-7.054-8.144 10.855 10.855 0 0 1-5.48 2.07A8.21 8.21 0 0 1 99 66a12.483 12.483 0 0 1-1.38-.08 11.039 11.039 0 0 1-5.51-2.36C86.57 65.69 85 72.08 85 72.08v18.11h19.694A10.943 10.943 0 0 1 102 83zM35.953 63.56a11.039 11.039 0 0 1-5.51 2.36 12.483 12.483 0 0 1-1.38.08 8.21 8.21 0 0 1-.99-.05 10.855 10.855 0 0 1-5.48-2.07 11.227 11.227 0 0 0-7.054 8.147 10.973 10.973 0 0 1 7.767 18.163h19.757V72.08s-1.57-6.39-7.11-8.52zm90.857 63.63H99v-27.11s1.57-6.39 7.11-8.52a11.039 11.039 0 0 0 5.51 2.36A12.483 12.483 0 0 0 113 94a8.21 8.21 0 0 0 .99-.05 10.855 10.855 0 0 0 5.48-2.07 11.26 11.26 0 0 1 7.34 10.31c.57 10.19 0 25 0 25z" class="colorfc785e svgShape"/><path fill="#3f53a5" d="M106.22 126h20.26v-2H106.8a3.806 3.806 0 0 1-.58 2Z" class="colora54b3f svgShape" opacity=".5"/><path fill="#5e7dfc" d="M1.253 127.19h27.81v-27.11s-1.57-6.39-7.11-8.52a11.039 11.039 0 0 1-5.51 2.36 12.483 12.483 0 0 1-1.38.08 8.21 8.21 0 0 1-.99-.05 10.855 10.855 0 0 1-5.48-2.07 11.26 11.26 0 0 0-7.34 10.31c-.57 10.19 0 25 0 25Z" class="colorfc785e svgShape"/><path fill="#516bd6" d="M96 116h9v2H92a1 1 0 0 0 0 2h13v2h-9a1 1 0 0 0 0 2h9a2.006 2.006 0 0 1-2 2H25a2.006 2.006 0 0 1-2-2h9a1 1 0 0 0 0-2h-9v-2h13a1 1 0 0 0 0-2H23v-2h9a1 1 0 0 0 0-2h-9a2.006 2.006 0 0 1 2-2h78a2.006 2.006 0 0 1 2 2h-9a1 1 0 0 0 0 2Z" class="colord68751 svgShape"/><path fill="#8099ff" d="M103.14 110.01c-.05 0-.09-.01-.14-.01H25c-.05 0-.09.01-.14.01l18.06-34.54A5.313 5.313 0 0 1 47 73h34a5.296 5.296 0 0 1 4.08 2.47Z" class="colorffdb80 svgShape"/><path fill="#113bea" d="M29 46a9 9 0 1 0 9 9 9 9 0 0 0-9-9Zm0 16a7 7 0 1 1 7-7 7.008 7.008 0 0 1-7 7Z" class="color2d4356 svgShape"/><circle cx="29" cy="55" r="7" fill="#e1e5f4" class="colore1ebf4 svgShape"/><path fill="#113bea" d="M15 74a9 9 0 1 0 9 9 9 9 0 0 0-9-9Zm0 16a7 7 0 1 1 7-7 7.008 7.008 0 0 1-7 7Z" class="color2d4356 svgShape"/><circle cx="15" cy="83" r="7" fill="#e1e5f4" class="colore1ebf4 svgShape"/><path fill="#113bea" d="M99 46a9 9 0 1 0 9 9 9 9 0 0 0-9-9Zm0 16a7 7 0 1 1 7-7 7.008 7.008 0 0 1-7 7Z" class="color2d4356 svgShape"/><circle cx="99" cy="55" r="7" fill="#e1e5f4" class="colore1ebf4 svgShape"/><path fill="#113bea" d="M113 74a9 9 0 1 0 9 9 9 9 0 0 0-9-9Zm0 16a7 7 0 1 1 7-7 7.008 7.008 0 0 1-7 7Z" class="color2d4356 svgShape"/><circle cx="113" cy="83" r="7" fill="#e1e5f4" class="colore1ebf4 svgShape"/><path fill="#113bea" d="M69 12a1 1 0 0 0 0-2h-9a1 1 0 0 0 0 2zm6 3a1 1 0 0 0-1-1H54a1 1 0 0 0 0 2h20a1 1 0 0 0 1-1zm-6 5a1 1 0 0 0 0-2h-9a1 1 0 0 0 0 2z" class="color2d4356 svgShape"/><path fill="#5e7dfc" d="M77.81 72.19H50V54.08s1.57-6.39 7.11-8.52a11.039 11.039 0 0 0 5.51 2.36A12.483 12.483 0 0 0 64 48a8.21 8.21 0 0 0 .99-.05 10.855 10.855 0 0 0 5.48-2.07 11.26 11.26 0 0 1 7.34 10.31 115.72 115.72 0 0 1 0 16Z" class="colorfc785e svgShape"/><path fill="#113bea" d="M64 28a9 9 0 1 0 9 9 9 9 0 0 0-9-9Zm0 16a7 7 0 1 1 7-7 7.008 7.008 0 0 1-7 7Z" class="color2d4356 svgShape"/><circle cx="64" cy="37" r="7" fill="#e1e5f4" class="colore1ebf4 svgShape"/><path fill="#113bea" d="M88.427 58H81v2h8.214a10.915 10.915 0 0 1-.787-2zM16.195 72.067a10.027 10.027 0 0 1 7.095-7.684 11.063 11.063 0 0 1-1.902-1.461 12.014 12.014 0 0 0-7.225 9.12c.277-.02.555-.042.838-.042a11.213 11.213 0 0 1 1.194.067zm90.417-9.145a11.086 11.086 0 0 1-1.902 1.461 10.028 10.028 0 0 1 7.095 7.684 11.22 11.22 0 0 1 1.194-.067c.283 0 .56.021.838.042a12.013 12.013 0 0 0-7.225-9.12z" class="color2d4356 svgShape"/><path fill="#113bea" d="M120.61 90.92a10.43 10.43 0 0 1-1.9 1.46A10.021 10.021 0 0 1 126 102v24h-19.56a3.906 3.906 0 0 0 .56-2v-10a3.968 3.968 0 0 0-.74-2.3c-.04-.08-.07-.16-.11-.24l-5.95-11.39a10.023 10.023 0 0 1 7.09-7.69 10.43 10.43 0 0 1-1.9-1.46 12.042 12.042 0 0 0-6.52 6.61L86.85 74.54a5.857 5.857 0 0 0-.82-1.14 10.008 10.008 0 0 1 7.26-9.02 10.43 10.43 0 0 1-1.9-1.46 12.04 12.04 0 0 0-7.21 9.02A6.59 6.59 0 0 0 81 71h-2V56a12.006 12.006 0 0 0-7.39-11.08 10.43 10.43 0 0 1-1.9 1.46A10.021 10.021 0 0 1 77 56v15H51V56a10.021 10.021 0 0 1 7.29-9.62 10.43 10.43 0 0 1-1.9-1.46A12.006 12.006 0 0 0 49 56v15h-2a6.59 6.59 0 0 0-3.18.94 12.04 12.04 0 0 0-7.21-9.02 10.43 10.43 0 0 1-1.9 1.46 10.033 10.033 0 0 1 7.27 9.03 5.212 5.212 0 0 0-.83 1.13L29.13 97.53a12.042 12.042 0 0 0-6.52-6.61 10.43 10.43 0 0 1-1.9 1.46 10.023 10.023 0 0 1 7.09 7.69l-5.95 11.39c-.04.08-.07.16-.11.24A3.968 3.968 0 0 0 21 114v10a3.906 3.906 0 0 0 .56 2H2v-24a10.021 10.021 0 0 1 7.29-9.62 10.43 10.43 0 0 1-1.9-1.46A12.006 12.006 0 0 0 0 102v26h128v-26a12.006 12.006 0 0 0-7.39-11.08ZM42.92 75.47A5.313 5.313 0 0 1 47 73h34a5.296 5.296 0 0 1 4.08 2.47l18.06 34.54c-.05 0-.09-.01-.14-.01H25c-.05 0-.09.01-.14.01ZM96 116h9v2H92a1 1 0 0 0 0 2h13v2h-9a1 1 0 0 0 0 2h9a2.006 2.006 0 0 1-2 2H25a2.006 2.006 0 0 1-2-2h9a1 1 0 0 0 0-2h-9v-2h13a1 1 0 0 0 0-2H23v-2h9a1 1 0 0 0 0-2h-9a2.006 2.006 0 0 1 2-2h78a2.006 2.006 0 0 1 2 2h-9a1 1 0 0 0 0 2Z" class="color2d4356 svgShape"/><path fill="#8099ff" d="M67.22 56.59 64.03 59l-2.78-1.97 1.37-9.11A12.483 12.483 0 0 0 64 48a8.21 8.21 0 0 0 .99-.05Z" class="colorffdb80 svgShape"/><path fill="#113bea" d="M66.009 47.808A10.992 10.992 0 0 1 64 48l1.99 8.729-1.899 1.259a.331.331 0 0 1-.149.008l-1.94-1.31 1.657-8.703a10.995 10.995 0 0 1-1.99-.237l-1.62 8.512a2.062 2.062 0 0 0 .876 2.138l1.912 1.267a2.203 2.203 0 0 0 2.346 0l1.912-1.267a2.007 2.007 0 0 0 .85-2.113Z" class="color2d4356 svgShape"/><path fill="#5969ad" d="m81.178 92.887-2.71 2.105a5.58 5.58 0 0 1-2.857.936l-22.789-.85.948-.738-3.086-.115a1.63 1.63 0 0 0-.583 1.715c.124.392.53 1.056 1.86 1.106l23.487.879.163.003a7.568 7.568 0 0 0 4.07-1.346l3.336-2.547c1.057-.806 1.006-1.584.881-1.975-.124-.392-.53-1.057-1.86-1.106l-4.04-.151-2.442 1.864Z" class="colorad9359 svgShape" opacity=".45"/><path fill="#5969ad" d="M77.9 87.06c-.13-.39-.53-1.06-1.86-1.11l-23.49-.87-.16-.01a7.553 7.553 0 0 0-4.07 1.35l-3.34 2.54c-1.05.81-1 1.59-.88 1.98.13.39.53 1.06 1.86 1.11l23.49.87.16.01a7.525 7.525 0 0 0 4.07-1.35l3.34-2.54c1.05-.81 1-1.59.88-1.98Zm-5.43 2.93a5.564 5.564 0 0 1-2.86.94l-22.79-.85 2.71-2.11a5.628 5.628 0 0 1 2.94-.97h.01l22.7.89Z" class="colorad9359 svgShape" opacity=".45"/><path fill="#9fa1aa" d="M36 55a7 7 0 0 1-14 0 5.546 5.546 0 0 1 .08-1 6.99 6.99 0 0 0 13.84 0 5.546 5.546 0 0 1 .08 1zM22 83a7 7 0 0 1-14 0 5.546 5.546 0 0 1 .08-1 6.99 6.99 0 0 0 13.84 0 5.546 5.546 0 0 1 .08 1zm84-28a7 7 0 0 1-14 0 5.546 5.546 0 0 1 .08-1 6.99 6.99 0 0 0 13.84 0 5.546 5.546 0 0 1 .08 1zM71 37a7 7 0 0 1-14 0 5.546 5.546 0 0 1 .08-1 6.99 6.99 0 0 0 13.84 0 5.546 5.546 0 0 1 .08 1z" class="color9fa5aa svgShape" opacity=".5"/><path fill="#3f53a5" d="M21.56 126H2v-2h19a3.906 3.906 0 0 0 .56 2Z" class="colora54b3f svgShape" opacity=".5"/><path fill="#5969ad" d="M103.14 110.01c-.05 0-.09-.01-.14-.01H25c-.05 0-.09.01-.14.01l1.05-2.01h76.18Z" class="colorad9359 svgShape" opacity=".45"/><path fill="#fff" d="M36 55a5.547 5.547 0 0 1-.08 1 6.99 6.99 0 0 0-13.84 0 5.547 5.547 0 0 1-.08-1 7 7 0 0 1 14 0zM22 83a5.547 5.547 0 0 1-.08 1 6.99 6.99 0 0 0-13.84 0A5.547 5.547 0 0 1 8 83a7 7 0 0 1 14 0zm84-28a5.547 5.547 0 0 1-.08 1 6.99 6.99 0 0 0-13.84 0 5.547 5.547 0 0 1-.08-1 7 7 0 0 1 14 0zm14 28a5.547 5.547 0 0 1-.08 1 6.99 6.99 0 0 0-13.84 0 5.547 5.547 0 0 1-.08-1 7 7 0 0 1 14 0z" class="colorffffff svgShape" opacity=".5"/><path fill="#9fa1aa" d="M120 83a7 7 0 0 1-14 0 5.546 5.546 0 0 1 .08-1 6.99 6.99 0 0 0 13.84 0 5.546 5.546 0 0 1 .08 1Z" class="color9fa5aa svgShape" opacity=".5"/><path fill="#fff" d="M71 37a5.547 5.547 0 0 1-.08 1 6.99 6.99 0 0 0-13.84 0 5.547 5.547 0 0 1-.08-1 7 7 0 0 1 14 0Z" class="colorffffff svgShape" opacity=".5"/><path fill="#e4e6ed" d="M114 4v2a2.006 2.006 0 0 0-2-2H16a2.006 2.006 0 0 0-2 2V4a2.005 2.005 0 0 1 1.8-1.99A1.34 1.34 0 0 1 16 2h96a1.34 1.34 0 0 1 .2.01A2.005 2.005 0 0 1 114 4Z" class="colore4eded svgShape" opacity=".5"/><path fill="#2d3a72" d="M105 124a2.006 2.006 0 0 1-2 2H25a2.006 2.006 0 0 1-2-2Z" class="color72492d svgShape" opacity=".4"/><path fill="#e1e5f4" d="m75.18 86.89-2.71 2.1a5.564 5.564 0 0 1-2.86.94l-22.79-.85 2.71-2.11a5.628 5.628 0 0 1 2.94-.97h.01zm.371 4.78-.66.502a9.486 9.486 0 0 1-5.28 1.758c-.042 0-.283-.014-.283-.014L53.77 93.34l-.95.74 22.79.85a5.564 5.564 0 0 0 2.86-.94l2.71-2.1z" class="colore1ebf4 svgShape"/><path fill="#113bea" d="m81.178 91.887-2.71 2.105a5.58 5.58 0 0 1-2.857.936l-22.789-.85.948-.738-3.086-.115a1.63 1.63 0 0 0-.583 1.715c.124.392.53 1.056 1.86 1.106l23.487.879.163.003a7.568 7.568 0 0 0 4.07-1.346l3.336-2.547c1.057-.806 1.006-1.584.881-1.975-.124-.392-.53-1.057-1.86-1.106l-4.04-.151-2.442 1.864Z" class="color2d4356 svgShape"/><path fill="#113bea" d="M77.9 86.06c-.13-.39-.53-1.06-1.86-1.11l-23.49-.87-.16-.01a7.553 7.553 0 0 0-4.07 1.35l-3.34 2.54c-1.05.81-1 1.59-.88 1.98.13.39.53 1.06 1.86 1.11l23.49.87.16.01a7.525 7.525 0 0 0 4.07-1.35l3.34-2.54c1.05-.81 1-1.59.88-1.98Zm-5.43 2.93a5.564 5.564 0 0 1-2.86.94l-22.79-.85 2.71-2.11a5.628 5.628 0 0 1 2.94-.97h.01l22.7.89Z" class="color2d4356 svgShape"/><path fill="#3f53a5" d="M112 56h-2.05a10.907 10.907 0 0 1-.376 2H112a1.274 1.274 0 0 0 .2-.01A2.006 2.006 0 0 0 114 56v-2a2.006 2.006 0 0 1-2 2Z" class="colora54b3f svgShape" opacity=".5"/><path fill="#113bea" d="M38.785 60H47v-2h-7.428a10.94 10.94 0 0 1-.787 2zm41.889-7h2.987a21.999 21.999 0 0 1 5.103-2H80.08a13.952 13.952 0 0 1 .594 2z" class="color2d4356 svgShape"/><path fill="#113bea" d="M112 0H16a4.012 4.012 0 0 0-4 4v52a4.012 4.012 0 0 0 4 4h3.214a10.956 10.956 0 0 1-.788-2H16a2.002 2.002 0 0 1-2-2v-3h4.191a10.885 10.885 0 0 1 .573-2H14V4a2.002 2.002 0 0 1 2-2h96a2.002 2.002 0 0 1 2 2v47h-4.764a10.913 10.913 0 0 1 .573 2H114v3a2.002 2.002 0 0 1-2 2h-2.427a10.856 10.856 0 0 1-.788 2H112a4.012 4.012 0 0 0 4-4V4a4.012 4.012 0 0 0-4-4Z" class="color2d4356 svgShape"/><path fill="#113bea" d="M39.809 53h7.517a13.952 13.952 0 0 1 .594-2h-8.684a10.885 10.885 0 0 1 .573 2Z" class="color2d4356 svgShape"/><path fill="#3f53a5" d="M18.05 56H16a2.006 2.006 0 0 1-2-2v2a2.006 2.006 0 0 0 1.8 1.99 1.274 1.274 0 0 0 .2.01h2.426a10.907 10.907 0 0 1-.375-2zm21.9 0a10.907 10.907 0 0 1-.376 2H47v-2zm48.1 0H81v2h7.426a10.907 10.907 0 0 1-.375-2z" class="colora54b3f svgShape" opacity=".5"/></svg>