<svg xmlns="http://www.w3.org/2000/svg" xmlns:xlink="http://www.w3.org/1999/xlink" viewBox="0 0 1080 1080" preserveAspectRatio="xMidYMid meet" style="width: 100%; height: 100%; transform: translate3d(0px, 0px, 0px); content-visibility: visible;"><defs><clipPath id="__lottie_element_56"><rect width="100%" height="100%" x="0" y="0"></rect></clipPath><clipPath id="__lottie_element_58"><path d="M0,0 L842,0 L842,596 L0,596z"></path></clipPath></defs><g clip-path="url(#__lottie_element_56)"><g clip-path="url(#__lottie_element_58)" transform="matrix(1,0,0,1,119,242)" opacity="1" style="display: block;"><g transform="matrix(1,0,0,1,0,0)" opacity="1" style="display: block;"><g opacity="1" transform="matrix(1,0,0,1,315.6109924316406,295.6940002441406)"><path fill="rgb(219,226,255)" fillOpacity="1" d=" M123.98400115966797,-214.7469940185547 C123.98400115966797,-214.7469940185547 -123.98400115966797,-214.7469940185547 -123.98400115966797,-214.7469940185547 C-123.98400115966797,-214.7469940185547 -247.96800231933594,0.0010000000474974513 -247.96800231933594,0.0010000000474974513 C-247.96800231933594,0.0010000000474974513 -123.98400115966797,214.74600219726562 -123.98400115966797,214.74600219726562 C-123.98400115966797,214.74600219726562 123.98400115966797,214.74600219726562 123.98400115966797,214.74600219726562 C123.98400115966797,214.74600219726562 247.96800231933594,0.0010000000474974513 247.96800231933594,0.0010000000474974513 C247.96800231933594,0.0010000000474974513 123.98400115966797,-214.7469940185547 123.98400115966797,-214.7469940185547z"></path></g><g opacity="1" transform="matrix(1,0,0,1,625.7540283203125,188.4980010986328)"><path fill="rgb(219,226,255)" fillOpacity="1" d=" M54.29600143432617,-94.04399871826172 C54.29600143432617,-94.04399871826172 -54.297000885009766,-94.04299926757812 -54.297000885009766,-94.04299926757812 C-54.297000885009766,-94.04299926757812 -108.59200286865234,0.0010000000474974513 -108.59200286865234,0.0010000000474974513 C-108.59200286865234,0.0010000000474974513 -54.297000885009766,94.04399871826172 -54.297000885009766,94.04399871826172 C-54.297000885009766,94.04399871826172 54.29600143432617,94.04399871826172 54.29600143432617,94.04399871826172 C54.29600143432617,94.04399871826172 108.59300231933594,0.0010000000474974513 108.59300231933594,0.0010000000474974513 C108.59300231933594,0.0010000000474974513 54.29600143432617,-94.04399871826172 54.29600143432617,-94.04399871826172z"></path></g><g opacity="1" transform="matrix(1,0,0,1,633.552978515625,393.1260070800781)"><path fill="rgb(219,226,255)" fillOpacity="1" d=" M38.5890007019043,-66.83899688720703 C38.5890007019043,-66.83899688720703 -38.5890007019043,-66.83899688720703 -38.5890007019043,-66.83899688720703 C-38.5890007019043,-66.83899688720703 -77.17900085449219,0 -77.17900085449219,0 C-77.17900085449219,0 -38.5890007019043,66.83899688720703 -38.5890007019043,66.83899688720703 C-38.5890007019043,66.83899688720703 38.5890007019043,66.83899688720703 38.5890007019043,66.83899688720703 C38.5890007019043,66.83899688720703 77.17900085449219,0 77.17900085449219,0 C77.17900085449219,0 38.5890007019043,-66.83899688720703 38.5890007019043,-66.83899688720703z"></path></g><g opacity="1" transform="matrix(1,0,0,1,424.3869934082031,456.4360046386719)"><path fill="rgb(17,59,233)" fillOpacity="1" d=" M-38.880001068115234,48.060001373291016 C-38.880001068115234,48.060001373291016 38.880001068115234,48.060001373291016 38.880001068115234,48.060001373291016 C38.880001068115234,48.060001373291016 38.880001068115234,-48.060001373291016 38.880001068115234,-48.060001373291016 C38.880001068115234,-48.060001373291016 -38.880001068115234,-48.060001373291016 -38.880001068115234,-48.060001373291016 C-38.880001068115234,-48.060001373291016 -38.880001068115234,48.060001373291016 -38.880001068115234,48.060001373291016z M11.84000015258789,-7.848999977111816 C11.84000015258789,-0.8600000143051147 6.170000076293945,4.809999942779541 -0.8199999928474426,4.809999942779541 C-7.809999942779541,4.809999942779541 -13.479999542236328,-0.8600000143051147 -13.479999542236328,-7.848999977111816 C-13.479999542236328,-7.848999977111816 -13.479999542236328,-20.509000778198242 -13.479999542236328,-20.509000778198242 C-13.479999542236328,-20.509000778198242 11.84000015258789,-20.509000778198242 11.84000015258789,-20.509000778198242 C11.84000015258789,-20.509000778198242 11.84000015258789,-7.848999977111816 11.84000015258789,-7.848999977111816z"></path></g><g opacity="1" transform="matrix(1,0,0,1,424.3869934082031,429.35101318359375)"><path fill="rgb(76,92,152)" fillOpacity="1" d=" M-38.880001068115234,20.975000381469727 C-38.880001068115234,20.975000381469727 -13.347000122070312,20.975000381469727 -13.347000122070312,20.975000381469727 C-13.425000190734863,20.405000686645508 -13.479999542236328,19.827999114990234 -13.479999542236328,19.236000061035156 C-13.479999542236328,19.236000061035156 -13.479999542236328,6.576000213623047 -13.479999542236328,6.576000213623047 C-13.479999542236328,6.576000213623047 11.84000015258789,6.576000213623047 11.84000015258789,6.576000213623047 C11.84000015258789,6.576000213623047 11.84000015258789,19.236000061035156 11.84000015258789,19.236000061035156 C11.84000015258789,19.827999114990234 11.78499984741211,20.405000686645508 11.706000328063965,20.975000381469727 C11.706000328063965,20.975000381469727 38.880001068115234,20.975000381469727 38.880001068115234,20.975000381469727 C38.880001068115234,20.975000381469727 38.880001068115234,-20.975000381469727 38.880001068115234,-20.975000381469727 C38.880001068115234,-20.975000381469727 -38.880001068115234,-20.975000381469727 -38.880001068115234,-20.975000381469727 C-38.880001068115234,-20.975000381469727 -38.880001068115234,20.975000381469727 -38.880001068115234,20.975000381469727z"></path></g><g opacity="1" transform="matrix(1,0,0,1,424.385986328125,321.90899658203125)"><path fill="rgb(17,59,233)" fillOpacity="1" d=" M162.98199462890625,114.01699829101562 C162.98199462890625,114.01699829101562 -162.98199462890625,114.01699829101562 -162.98199462890625,114.01699829101562 C-171.8179931640625,114.01699829101562 -178.98199462890625,106.85399627685547 -178.98199462890625,98.01699829101562 C-178.98199462890625,98.01699829101562 -178.98199462890625,-98.01699829101562 -178.98199462890625,-98.01699829101562 C-178.98199462890625,-106.8550033569336 -171.8179931640625,-114.01699829101562 -162.98199462890625,-114.01699829101562 C-162.98199462890625,-114.01699829101562 162.98199462890625,-114.01699829101562 162.98199462890625,-114.01699829101562 C171.81900024414062,-114.01699829101562 178.98199462890625,-106.8550033569336 178.98199462890625,-98.01699829101562 C178.98199462890625,-98.01699829101562 178.98199462890625,98.01699829101562 178.98199462890625,98.01699829101562 C178.98199462890625,106.85399627685547 171.81900024414062,114.01699829101562 162.98199462890625,114.01699829101562z"></path></g><g opacity="1" transform="matrix(1,0,0,1,424.385986328125,321.90899658203125)"><path fill="rgb(255,255,255)" fillOpacity="1" d=" M156.22000122070312,98.99199676513672 C156.22000122070312,98.99199676513672 -156.22000122070312,98.99199676513672 -156.22000122070312,98.99199676513672 C-160.08599853515625,98.99199676513672 -163.22000122070312,95.85800170898438 -163.22000122070312,91.99199676513672 C-163.22000122070312,91.99199676513672 -163.22000122070312,-91.99199676513672 -163.22000122070312,-91.99199676513672 C-163.22000122070312,-95.85900115966797 -160.08599853515625,-98.99199676513672 -156.22000122070312,-98.99199676513672 C-156.22000122070312,-98.99199676513672 156.22000122070312,-98.99199676513672 156.22000122070312,-98.99199676513672 C160.0850067138672,-98.99199676513672 163.22000122070312,-95.85900115966797 163.22000122070312,-91.99199676513672 C163.22000122070312,-91.99199676513672 163.22000122070312,91.99199676513672 163.22000122070312,91.99199676513672 C163.22000122070312,95.85800170898438 160.0850067138672,98.99199676513672 156.22000122070312,98.99199676513672z"></path></g><g opacity="1" transform="matrix(1,0,0,1,424.3869934082031,230.57699584960938)"><path fill="rgb(168,185,255)" fillOpacity="1" d=" M157.49099731445312,-7.659999847412109 C157.49099731445312,-7.659999847412109 -157.49099731445312,-7.659999847412109 -157.49099731445312,-7.659999847412109 C-160.65499877929688,-7.659999847412109 -163.22000122070312,-5.0960001945495605 -163.22000122070312,-1.930999994277954 C-163.22000122070312,-1.930999994277954 -163.22000122070312,7.659999847412109 -163.22000122070312,7.659999847412109 C-163.22000122070312,7.659999847412109 163.22000122070312,7.659999847412109 163.22000122070312,7.659999847412109 C163.22000122070312,7.659999847412109 163.22000122070312,-1.930999994277954 163.22000122070312,-1.930999994277954 C163.22000122070312,-5.0960001945495605 160.65499877929688,-7.659999847412109 157.49099731445312,-7.659999847412109z"></path></g><g opacity="1" transform="matrix(1,0,0,1,334.1109924316406,354.9020080566406)"><path fill="rgb(168,185,255)" fillOpacity="1" d=" M43.459999084472656,5.671000003814697 C43.459999084472656,5.671000003814697 -43.459999084472656,5.671000003814697 -43.459999084472656,5.671000003814697 C-44.012001037597656,5.671000003814697 -44.459999084472656,5.223999977111816 -44.459999084472656,4.671000003814697 C-44.459999084472656,4.671000003814697 -44.459999084472656,-4.671000003814697 -44.459999084472656,-4.671000003814697 C-44.459999084472656,-5.2230000495910645 -44.012001037597656,-5.671000003814697 -43.459999084472656,-5.671000003814697 C-43.459999084472656,-5.671000003814697 43.459999084472656,-5.671000003814697 43.459999084472656,-5.671000003814697 C44.012001037597656,-5.671000003814697 44.459999084472656,-5.2230000495910645 44.459999084472656,-4.671000003814697 C44.459999084472656,-4.671000003814697 44.459999084472656,4.671000003814697 44.459999084472656,4.671000003814697 C44.459999084472656,5.223999977111816 44.012001037597656,5.671000003814697 43.459999084472656,5.671000003814697z"></path></g><g opacity="1" transform="matrix(1,0,0,1,383.4909973144531,335.3080139160156)"><path fill="rgb(168,185,255)" fillOpacity="1" d=" M43.459999084472656,5.671000003814697 C43.459999084472656,5.671000003814697 -43.459999084472656,5.671000003814697 -43.459999084472656,5.671000003814697 C-44.01300048828125,5.671000003814697 -44.459999084472656,5.223999977111816 -44.459999084472656,4.671000003814697 C-44.459999084472656,4.671000003814697 -44.459999084472656,-4.671000003814697 -44.459999084472656,-4.671000003814697 C-44.459999084472656,-5.2230000495910645 -44.01300048828125,-5.671000003814697 -43.459999084472656,-5.671000003814697 C-43.459999084472656,-5.671000003814697 43.459999084472656,-5.671000003814697 43.459999084472656,-5.671000003814697 C44.012001037597656,-5.671000003814697 44.459999084472656,-5.2230000495910645 44.459999084472656,-4.671000003814697 C44.459999084472656,-4.671000003814697 44.459999084472656,4.671000003814697 44.459999084472656,4.671000003814697 C44.459999084472656,5.223999977111816 44.012001037597656,5.671000003814697 43.459999084472656,5.671000003814697z"></path></g><g opacity="1" transform="matrix(1,0,0,1,514.7109985351562,351.3219909667969)"><path fill="rgb(168,185,255)" fillOpacity="1" d=" M21.559999465942383,5.671000003814697 C21.559999465942383,5.671000003814697 -21.559999465942383,5.671000003814697 -21.559999465942383,5.671000003814697 C-22.113000869750977,5.671000003814697 -22.559999465942383,5.2230000495910645 -22.559999465942383,4.671000003814697 C-22.559999465942383,4.671000003814697 -22.559999465942383,-4.671000003814697 -22.559999465942383,-4.671000003814697 C-22.559999465942383,-5.223999977111816 -22.113000869750977,-5.671000003814697 -21.559999465942383,-5.671000003814697 C-21.559999465942383,-5.671000003814697 21.559999465942383,-5.671000003814697 21.559999465942383,-5.671000003814697 C22.113000869750977,-5.671000003814697 22.559999465942383,-5.223999977111816 22.559999465942383,-4.671000003814697 C22.559999465942383,-4.671000003814697 22.559999465942383,4.671000003814697 22.559999465942383,4.671000003814697 C22.559999465942383,5.2230000495910645 22.113000869750977,5.671000003814697 21.559999465942383,5.671000003814697z"></path></g><g opacity="1" transform="matrix(1,0,0,1,311.5509948730469,335.3080139160156)"><path fill="rgb(168,185,255)" fillOpacity="1" d=" M21.559999465942383,5.671000003814697 C21.559999465942383,5.671000003814697 -21.559999465942383,5.671000003814697 -21.559999465942383,5.671000003814697 C-22.11199951171875,5.671000003814697 -22.559999465942383,5.223999977111816 -22.559999465942383,4.671000003814697 C-22.559999465942383,4.671000003814697 -22.559999465942383,-4.671000003814697 -22.559999465942383,-4.671000003814697 C-22.559999465942383,-5.2230000495910645 -22.11199951171875,-5.671000003814697 -21.559999465942383,-5.671000003814697 C-21.559999465942383,-5.671000003814697 21.559999465942383,-5.671000003814697 21.559999465942383,-5.671000003814697 C22.11199951171875,-5.671000003814697 22.559999465942383,-5.2230000495910645 22.559999465942383,-4.671000003814697 C22.559999465942383,-4.671000003814697 22.559999465942383,4.671000003814697 22.559999465942383,4.671000003814697 C22.559999465942383,5.223999977111816 22.11199951171875,5.671000003814697 21.559999465942383,5.671000003814697z"></path></g><g opacity="1" transform="matrix(1,0,0,1,312.75,259.2130126953125)"><path fill="rgb(168,185,255)" fillOpacity="1" d=" M21.559999465942383,5.671000003814697 C21.559999465942383,5.671000003814697 -21.559999465942383,5.671000003814697 -21.559999465942383,5.671000003814697 C-22.11199951171875,5.671000003814697 -22.559999465942383,5.223999977111816 -22.559999465942383,4.671000003814697 C-22.559999465942383,4.671000003814697 -22.559999465942383,-4.671000003814697 -22.559999465942383,-4.671000003814697 C-22.559999465942383,-5.223999977111816 -22.11199951171875,-5.671000003814697 -21.559999465942383,-5.671000003814697 C-21.559999465942383,-5.671000003814697 21.559999465942383,-5.671000003814697 21.559999465942383,-5.671000003814697 C22.113000869750977,-5.671000003814697 22.559999465942383,-5.223999977111816 22.559999465942383,-4.671000003814697 C22.559999465942383,-4.671000003814697 22.559999465942383,4.671000003814697 22.559999465942383,4.671000003814697 C22.559999465942383,5.223999977111816 22.113000869750977,5.671000003814697 21.559999465942383,5.671000003814697z"></path></g><g opacity="1" transform="matrix(1,0,0,1,0,0)"><path strokeLinecap="butt" strokeLinejoin="miter" fillOpacity="0" strokeMiterlimit="10" stroke="rgb(17,59,233)" strokeOpacity="1" strokeWidth="3" d="M0 0"></path></g><g opacity="1" transform="matrix(1,0,0,1,0,0)"><path strokeLinecap="butt" strokeLinejoin="miter" fillOpacity="0" strokeMiterlimit="10" stroke="rgb(17,59,233)" strokeOpacity="1" strokeWidth="3" d="M0 0"></path></g><g opacity="1" transform="matrix(1,0,0,1,0,0)"><path strokeLinecap="butt" strokeLinejoin="miter" fillOpacity="0" strokeMiterlimit="10" stroke="rgb(17,59,233)" strokeOpacity="1" strokeWidth="3" d="M0 0"></path></g><g opacity="1" transform="matrix(1,0,0,1,0,0)"><path strokeLinecap="butt" strokeLinejoin="miter" fillOpacity="0" strokeMiterlimit="10" stroke="rgb(17,59,233)" strokeOpacity="1" strokeWidth="3" d="M0 0"></path></g><g opacity="1" transform="matrix(1,0,0,1,0,0)"><path strokeLinecap="butt" strokeLinejoin="miter" fillOpacity="0" strokeMiterlimit="10" stroke="rgb(17,59,233)" strokeOpacity="1" strokeWidth="3" d="M0 0"></path></g><g opacity="1" transform="matrix(1,0,0,1,0,0)"><path strokeLinecap="butt" strokeLinejoin="miter" fillOpacity="0" strokeMiterlimit="10" stroke="rgb(17,59,233)" strokeOpacity="1" strokeWidth="3" d=" M492.1510009765625,299.6570129394531 C492.1510009765625,299.6570129394531 519.0419921875,299.6570129394531 540.8499755859375,299.6570129394531"></path></g><g opacity="1" transform="matrix(1,0,0,1,0,0)"><path strokeLinecap="butt" strokeLinejoin="miter" fillOpacity="0" strokeMiterlimit="10" stroke="rgb(17,59,233)" strokeOpacity="1" strokeWidth="3" d=" M492.1510009765625,288.1969909667969 C492.1510009765625,288.1969909667969 568.22998046875,288.1969909667969 568.22998046875,288.1969909667969"></path></g><g opacity="1" transform="matrix(1,0,0,1,0,0)"><path strokeLinecap="butt" strokeLinejoin="miter" fillOpacity="0" strokeMiterlimit="10" stroke="rgb(17,59,233)" strokeOpacity="1" strokeWidth="3" d=" M492.1510009765625,276.73699951171875 C492.1510009765625,276.73699951171875 568.22998046875,276.73699951171875 568.22998046875,276.73699951171875"></path></g><g opacity="1" transform="matrix(1,0,0,1,0,0)"><path strokeLinecap="butt" strokeLinejoin="miter" fillOpacity="0" strokeMiterlimit="10" stroke="rgb(17,59,233)" strokeOpacity="1" strokeWidth="3" d=" M290.1910095214844,397.177001953125 C290.1910095214844,397.177001953125 290.6730041503906,397.177001953125 291.5589904785156,397.177001953125"></path></g><g opacity="1" transform="matrix(1,0,0,1,0,0)"><path strokeLinecap="butt" strokeLinejoin="miter" fillOpacity="0" strokeMiterlimit="10" stroke="rgb(17,59,233)" strokeOpacity="1" strokeWidth="3" d=" M290.1910095214844,301.7120056152344 C290.1910095214844,301.7120056152344 366.27099609375,301.7120056152344 366.27099609375,301.7120056152344"></path></g><g opacity="1" transform="matrix(1,0,0,1,0,0)"><path strokeLinecap="butt" strokeLinejoin="miter" fillOpacity="0" strokeMiterlimit="10" stroke="rgb(17,59,233)" strokeOpacity="1" strokeWidth="3" d=" M290.4309997558594,384.45001220703125 C290.4309997558594,384.45001220703125 372.2569885253906,384.45001220703125 421.0379943847656,384.45001220703125"></path></g><g opacity="1" transform="matrix(1,0,0,1,0,0)"><path strokeLinecap="butt" strokeLinejoin="miter" fillOpacity="0" strokeMiterlimit="10" stroke="rgb(17,59,233)" strokeOpacity="1" strokeWidth="3" d=" M290.4309997558594,371.44000244140625 C290.4309997558594,371.44000244140625 456.510986328125,371.44000244140625 456.510986328125,371.44000244140625"></path></g><g opacity="1" transform="matrix(1,0,0,1,0,0)"><path strokeLinecap="butt" strokeLinejoin="miter" fillOpacity="0" strokeMiterlimit="10" stroke="rgb(17,59,233)" strokeOpacity="1" strokeWidth="3" d=" M290.1910095214844,288.7019958496094 C290.1910095214844,288.7019958496094 456.27099609375,288.7019958496094 456.27099609375,288.7019958496094"></path></g><g opacity="1" transform="matrix(1,0,0,1,0,0)"><path strokeLinecap="butt" strokeLinejoin="miter" fillOpacity="0" strokeMiterlimit="10" stroke="rgb(17,59,233)" strokeOpacity="1" strokeWidth="3" d=" M290.1910095214844,275.6919860839844 C290.1910095214844,275.6919860839844 456.27099609375,275.6919860839844 456.27099609375,275.6919860839844"></path></g><g opacity="1" transform="matrix(1,0,0,1,523.8309936523438,259.2130126953125)"><path fill="rgb(168,185,255)" fillOpacity="1" d=" M30.68000030517578,5.671000003814697 C30.68000030517578,5.671000003814697 -30.68000030517578,5.671000003814697 -30.68000030517578,5.671000003814697 C-31.232999801635742,5.671000003814697 -31.68000030517578,5.223999977111816 -31.68000030517578,4.671000003814697 C-31.68000030517578,4.671000003814697 -31.68000030517578,-4.671000003814697 -31.68000030517578,-4.671000003814697 C-31.68000030517578,-5.223999977111816 -31.232999801635742,-5.671000003814697 -30.68000030517578,-5.671000003814697 C-30.68000030517578,-5.671000003814697 30.68000030517578,-5.671000003814697 30.68000030517578,-5.671000003814697 C31.232999801635742,-5.671000003814697 31.68000030517578,-5.223999977111816 31.68000030517578,-4.671000003814697 C31.68000030517578,-4.671000003814697 31.68000030517578,4.671000003814697 31.68000030517578,4.671000003814697 C31.68000030517578,5.223999977111816 31.232999801635742,5.671000003814697 30.68000030517578,5.671000003814697z"></path></g><g opacity="1" transform="matrix(1,0,0,1,424.87799072265625,508.9960021972656)"><path fill="rgb(77,93,157)" fillOpacity="1" d=" M241.68299865722656,4.5 C241.68299865722656,4.5 -241.68299865722656,4.5 -241.68299865722656,4.5 C-241.68299865722656,4.5 -241.68299865722656,-4.5 -241.68299865722656,-4.5 C-241.68299865722656,-4.5 241.68299865722656,-4.5 241.68299865722656,-4.5 C241.68299865722656,-4.5 241.68299865722656,4.5 241.68299865722656,4.5z"></path></g><g opacity="1" transform="matrix(1,0,0,1,424.3869934082031,488.0320129394531)"><path fill="rgb(77,93,157)" fillOpacity="1" d=" M-38.880001068115234,8.232999801635742 C-38.880001068115234,8.232999801635742 38.880001068115234,8.232999801635742 38.880001068115234,8.232999801635742 C38.880001068115234,8.232999801635742 38.880001068115234,-8.232999801635742 38.880001068115234,-8.232999801635742 C38.880001068115234,-8.232999801635742 -38.880001068115234,-8.232999801635742 -38.880001068115234,-8.232999801635742 C-38.880001068115234,-8.232999801635742 -38.880001068115234,8.232999801635742 -38.880001068115234,8.232999801635742z"></path></g><g opacity="1" transform="matrix(1,0,0,1,424.3869934082031,496.2640075683594)"><path fill="rgb(17,59,233)" fillOpacity="1" d=" M56.880001068115234,8.232000350952148 C56.880001068115234,8.232000350952148 -56.880001068115234,8.232000350952148 -56.880001068115234,8.232000350952148 C-56.880001068115234,8.232000350952148 -56.880001068115234,-3.2320001125335693 -56.880001068115234,-3.2320001125335693 C-56.880001068115234,-5.99399995803833 -54.64099884033203,-8.232000350952148 -51.880001068115234,-8.232000350952148 C-51.880001068115234,-8.232000350952148 51.880001068115234,-8.232000350952148 51.880001068115234,-8.232000350952148 C54.641998291015625,-8.232000350952148 56.880001068115234,-5.99399995803833 56.880001068115234,-3.2320001125335693 C56.880001068115234,-3.2320001125335693 56.880001068115234,8.232000350952148 56.880001068115234,8.232000350952148z"></path></g><g opacity="1" transform="matrix(1,0,0,1,0,0)"><path strokeLinecap="round" strokeLinejoin="round" fillOpacity="0" stroke="rgb(168,185,255)" strokeOpacity="1" strokeWidth="3" d=" M534.8880004882812,117.677001953125 C534.8880004882812,117.677001953125 574.72802734375,117.677001953125 574.72802734375,117.677001953125"></path></g><g opacity="1" transform="matrix(1,0,0,1,0,0)"><path strokeLinecap="round" strokeLinejoin="round" fillOpacity="0" stroke="rgb(168,185,255)" strokeOpacity="1" strokeWidth="3" d=" M534.8880004882812,127.75700378417969 C534.8880004882812,127.75700378417969 574.72802734375,127.75700378417969 574.72802734375,127.75700378417969"></path></g><g opacity="1" transform="matrix(1,0,0,1,0,0)"><path strokeLinecap="round" strokeLinejoin="round" fillOpacity="0" stroke="rgb(168,185,255)" strokeOpacity="1" strokeWidth="3" d=" M534.8880004882812,137.83700561523438 C534.8880004882812,137.83700561523438 535.5560302734375,137.83700561523438 536.719970703125,137.83700561523438"></path></g><g opacity="1" transform="matrix(1,0,0,1,0,0)"><path strokeLinecap="round" strokeLinejoin="round" fillOpacity="0" stroke="rgb(168,185,255)" strokeOpacity="1" strokeWidth="3" d=" M683.8259887695312,399.2879943847656 C683.8259887695312,399.2879943847656 686.8610229492188,399.2879943847656 691.2559814453125,399.2879943847656"></path></g><g opacity="1" transform="matrix(1,0,0,1,0,0)"><path strokeLinecap="round" strokeLinejoin="round" fillOpacity="0" stroke="rgb(168,185,255)" strokeOpacity="1" strokeWidth="3" d="M0 0"></path></g><g opacity="1" transform="matrix(1,0,0,1,0,0)"><path strokeLinecap="round" strokeLinejoin="round" fillOpacity="0" stroke="rgb(168,185,255)" strokeOpacity="1" strokeWidth="3" d="M0 0"></path></g><g opacity="1" transform="matrix(1,0,0,1,0,0)"><path strokeLinecap="round" strokeLinejoin="round" fillOpacity="0" stroke="rgb(168,185,255)" strokeOpacity="1" strokeWidth="3" d=" M127.08499908447266,142.2570037841797 C127.08499908447266,142.2570037841797 166.9239959716797,142.2570037841797 166.9239959716797,142.2570037841797"></path></g><g opacity="1" transform="matrix(1,0,0,1,0,0)"><path strokeLinecap="round" strokeLinejoin="round" fillOpacity="0" stroke="rgb(168,185,255)" strokeOpacity="1" strokeWidth="3" d=" M127.08499908447266,152.33700561523438 C127.08499908447266,152.33700561523438 135.08799743652344,152.33700561523438 143.92100524902344,152.33700561523438"></path></g><g opacity="1" transform="matrix(1,0,0,1,0,0)"><path strokeLinecap="round" strokeLinejoin="round" fillOpacity="0" stroke="rgb(168,185,255)" strokeOpacity="1" strokeWidth="3" d="M0 0"></path></g></g><g transform="matrix(1,0,0,1,-9.020721435546875,0)" opacity="1" style="display: block;"><g opacity="1" transform="matrix(1,0,0,1,0,0)"><g opacity="1" transform="matrix(1,0,0,1,171.48500061035156,382.32598876953125)"><path fill="rgb(255,255,255)" fillOpacity="1" d=" M58.880001068115234,85.9209976196289 C58.880001068115234,85.9209976196289 -58.880001068115234,85.9209976196289 -58.880001068115234,85.9209976196289 C-61.0890007019043,85.9209976196289 -62.880001068115234,84.12999725341797 -62.880001068115234,81.9209976196289 C-62.880001068115234,81.9209976196289 -62.880001068115234,-81.9209976196289 -62.880001068115234,-81.9209976196289 C-62.880001068115234,-84.12999725341797 -61.0890007019043,-85.9209976196289 -58.880001068115234,-85.9209976196289 C-58.880001068115234,-85.9209976196289 58.880001068115234,-85.9209976196289 58.880001068115234,-85.9209976196289 C61.0890007019043,-85.9209976196289 62.880001068115234,-84.12999725341797 62.880001068115234,-81.9209976196289 C62.880001068115234,-81.9209976196289 62.880001068115234,81.9209976196289 62.880001068115234,81.9209976196289 C62.880001068115234,84.12999725341797 61.0890007019043,85.9209976196289 58.880001068115234,85.9209976196289z"></path></g><g opacity="1" transform="matrix(1,0,0,1,0,0)"><path strokeLinecap="butt" strokeLinejoin="miter" fillOpacity="0" strokeMiterlimit="10" stroke="rgb(17,59,233)" strokeOpacity="1" strokeWidth="3" d=" M134.76499938964844,446.7659912109375 C134.76499938964844,446.7659912109375 186.125,446.7659912109375 186.125,446.7659912109375"></path></g><g opacity="1" transform="matrix(1,0,0,1,0,0)"><path strokeLinecap="butt" strokeLinejoin="miter" fillOpacity="0" strokeMiterlimit="10" stroke="rgb(17,59,233)" strokeOpacity="1" strokeWidth="3" d=" M134.76499938964844,434.1669921875 C134.76499938964844,434.1669921875 216.125,434.1669921875 216.125,434.1669921875"></path></g><g opacity="1" transform="matrix(1,0,0,1,0,0)"><path strokeLinecap="butt" strokeLinejoin="miter" fillOpacity="0" strokeMiterlimit="10" stroke="rgb(17,59,233)" strokeOpacity="1" strokeWidth="3" d=" M134.76499938964844,418.32598876953125 C134.76499938964844,418.32598876953125 186.125,418.32598876953125 186.125,418.32598876953125"></path></g><g opacity="1" transform="matrix(1,0,0,1,0,0)"><path strokeLinecap="butt" strokeLinejoin="miter" fillOpacity="0" strokeMiterlimit="10" stroke="rgb(17,59,233)" strokeOpacity="1" strokeWidth="3" d=" M134.76499938964844,405.72601318359375 C134.76499938964844,405.72601318359375 216.125,405.72601318359375 216.125,405.72601318359375"></path></g><g opacity="1" transform="matrix(1,0,0,1,0,0)"><path strokeLinecap="butt" strokeLinejoin="miter" fillOpacity="0" strokeMiterlimit="10" stroke="rgb(17,59,233)" strokeOpacity="1" strokeWidth="3" d=" M134.76499938964844,393.1260070800781 C134.76499938964844,393.1260070800781 216.125,393.1260070800781 216.125,393.1260070800781"></path></g><g opacity="1" transform="matrix(1,0,0,1,171.48399353027344,343.4460144042969)"><path fill="rgb(168,185,255)" fillOpacity="1" d=" M24.479999542236328,0 C24.479999542236328,13.520000457763672 13.520000457763672,24.479999542236328 0,24.479999542236328 C-13.520000457763672,24.479999542236328 -24.479999542236328,13.520000457763672 -24.479999542236328,0 C-24.479999542236328,-13.520000457763672 -13.520000457763672,-24.479999542236328 0,-24.479999542236328 C13.520000457763672,-24.479999542236328 24.479999542236328,-13.520000457763672 24.479999542236328,0z"></path></g><g opacity="1" transform="matrix(1,0,0,1,171.48500061035156,382.32598876953125)"><path strokeLinecap="butt" strokeLinejoin="miter" fillOpacity="0" strokeMiterlimit="10" stroke="rgb(17,59,233)" strokeOpacity="1" strokeWidth="3" d=" M58.880001068115234,85.9209976196289 C58.880001068115234,85.9209976196289 -58.880001068115234,85.9209976196289 -58.880001068115234,85.9209976196289 C-61.0890007019043,85.9209976196289 -62.880001068115234,84.12999725341797 -62.880001068115234,81.9209976196289 C-62.880001068115234,81.9209976196289 -62.880001068115234,-81.9209976196289 -62.880001068115234,-81.9209976196289 C-62.880001068115234,-84.12999725341797 -61.0890007019043,-85.9209976196289 -58.880001068115234,-85.9209976196289 C-58.880001068115234,-85.9209976196289 58.880001068115234,-85.9209976196289 58.880001068115234,-85.9209976196289 C61.0890007019043,-85.9209976196289 62.880001068115234,-84.12999725341797 62.880001068115234,-81.9209976196289 C62.880001068115234,-81.9209976196289 62.880001068115234,81.9209976196289 62.880001068115234,81.9209976196289 C62.880001068115234,84.12999725341797 61.0890007019043,85.9209976196289 58.880001068115234,85.9209976196289z"></path></g><g opacity="1" transform="matrix(1,0,0,1,122.43399810791016,434.1659851074219)"><path strokeLinecap="butt" strokeLinejoin="miter" fillOpacity="0" strokeMiterlimit="10" stroke="rgb(17,59,233)" strokeOpacity="1" strokeWidth="3" d=" M4.050000190734863,4.050000190734863 C4.050000190734863,4.050000190734863 -4.050000190734863,4.050000190734863 -4.050000190734863,4.050000190734863 C-4.050000190734863,4.050000190734863 -4.050000190734863,-4.050000190734863 -4.050000190734863,-4.050000190734863 C-4.050000190734863,-4.050000190734863 4.050000190734863,-4.050000190734863 4.050000190734863,-4.050000190734863 C4.050000190734863,-4.050000190734863 4.050000190734863,4.050000190734863 4.050000190734863,4.050000190734863z"></path></g><g opacity="1" transform="matrix(1,0,0,1,122.43399810791016,393.1260070800781)"><path strokeLinecap="butt" strokeLinejoin="miter" fillOpacity="0" strokeMiterlimit="10" stroke="rgb(17,59,233)" strokeOpacity="1" strokeWidth="3" d=" M4.050000190734863,4.051000118255615 C4.050000190734863,4.051000118255615 -4.050000190734863,4.051000118255615 -4.050000190734863,4.051000118255615 C-4.050000190734863,4.051000118255615 -4.050000190734863,-4.051000118255615 -4.050000190734863,-4.051000118255615 C-4.050000190734863,-4.051000118255615 4.050000190734863,-4.051000118255615 4.050000190734863,-4.051000118255615 C4.050000190734863,-4.051000118255615 4.050000190734863,4.051000118255615 4.050000190734863,4.051000118255615z"></path></g><g opacity="1" transform="matrix(1,0,0,1,122.43499755859375,309.96600341796875)"><path strokeLinecap="round" strokeLinejoin="round" fillOpacity="0" stroke="rgb(17,59,233)" strokeOpacity="1" strokeWidth="2" d=" M3.181999921798706,-3.181999921798706 C3.181999921798706,-3.181999921798706 -3.181999921798706,3.181999921798706 -3.181999921798706,3.181999921798706"></path></g><g opacity="1" transform="matrix(1,0,0,1,122.43399810791016,309.96600341796875)"><path strokeLinecap="round" strokeLinejoin="round" fillOpacity="0" stroke="rgb(17,59,233)" strokeOpacity="1" strokeWidth="2" d=" M-3.181999921798706,-3.181999921798706 C-3.181999921798706,-3.181999921798706 3.181999921798706,3.181999921798706 3.181999921798706,3.181999921798706"></path></g></g><g opacity="1" transform="matrix(1,0,0,1,280.6730041503906,354.90301513671875)"><path strokeLinecap="butt" strokeLinejoin="miter" fillOpacity="0" strokeMiterlimit="10" stroke="rgb(76,92,152)" strokeOpacity="1" strokeWidth="3" d=" M4.0920000076293945,0 C4.0920000076293945,2.259999990463257 2.259999990463257,4.0920000076293945 0,4.0920000076293945 C-2.259999990463257,4.0920000076293945 -4.0920000076293945,2.259999990463257 -4.0920000076293945,0 C-4.0920000076293945,-2.259999990463257 -2.259999990463257,-4.0920000076293945 0,-4.0920000076293945 C2.259999990463257,-4.0920000076293945 4.0920000076293945,-2.259999990463257 4.0920000076293945,0z"></path></g><g opacity="1" transform="matrix(1,0,0,1,206.66099548339844,354.90301513671875)"><path strokeLinecap="butt" strokeLinejoin="miter" fillOpacity="0" strokeMiterlimit="10" stroke="rgb(76,92,152)" strokeOpacity="1" strokeWidth="3" d=" M4.0920000076293945,0 C4.0920000076293945,2.259999990463257 2.259999990463257,4.0920000076293945 0,4.0920000076293945 C-2.259999990463257,4.0920000076293945 -4.0920000076293945,2.259999990463257 -4.0920000076293945,0 C-4.0920000076293945,-2.259999990463257 -2.259999990463257,-4.0920000076293945 0,-4.0920000076293945 C2.259999990463257,-4.0920000076293945 4.0920000076293945,-2.259999990463257 4.0920000076293945,0z"></path></g><g opacity="1" transform="matrix(1,0,0,1,0,0)"><path strokeLinecap="butt" strokeLinejoin="miter" fillOpacity="0" strokeMiterlimit="10" stroke="rgb(76,92,152)" strokeOpacity="1" strokeWidth="3" d=" M276.58099365234375,354.90301513671875 C276.58099365234375,354.90301513671875 210.7530059814453,354.90301513671875 210.7530059814453,354.90301513671875"></path></g></g><g transform="matrix(1,0,0,1,0,9.6064453125)" opacity="1" style="display: block;"><g opacity="1" transform="matrix(1,0,0,1,0,0)"><g opacity="1" transform="matrix(1,0,0,1,186.48399353027344,222.91700744628906)"><path fill="rgb(255,255,255)" fillOpacity="1" d=" M70.55999755859375,-30.948999404907227 C70.55999755859375,-30.948999404907227 70.55999755859375,30.948999404907227 70.55999755859375,30.948999404907227 C70.55999755859375,34.814998626708984 67.4260025024414,37.94900131225586 63.560001373291016,37.94900131225586 C63.560001373291016,37.94900131225586 -63.560001373291016,37.94900131225586 -63.560001373291016,37.94900131225586 C-67.4260025024414,37.94900131225586 -70.55999755859375,34.814998626708984 -70.55999755859375,30.948999404907227 C-70.55999755859375,30.948999404907227 -70.55999755859375,-30.948999404907227 -70.55999755859375,-30.948999404907227 C-70.55999755859375,-34.814998626708984 -67.4260025024414,-37.94900131225586 -63.560001373291016,-37.94900131225586 C-63.560001373291016,-37.94900131225586 63.560001373291016,-37.94900131225586 63.560001373291016,-37.94900131225586 C67.4260025024414,-37.94900131225586 70.55999755859375,-34.814998626708984 70.55999755859375,-30.948999404907227z"></path></g><g opacity="1" transform="matrix(1,0,0,1,186.48500061035156,222.91700744628906)"><path fill="rgb(17,59,233)" fillOpacity="1" d=" M63.560001373291016,39.44900131225586 C63.560001373291016,39.44900131225586 -63.560001373291016,39.44900131225586 -63.560001373291016,39.44900131225586 C-68.24700164794922,39.44900131225586 -72.05999755859375,35.63600158691406 -72.05999755859375,30.948999404907227 C-72.05999755859375,30.948999404907227 -72.05999755859375,-30.948999404907227 -72.05999755859375,-30.948999404907227 C-72.05999755859375,-35.637001037597656 -68.24700164794922,-39.44900131225586 -63.560001373291016,-39.44900131225586 C-63.560001373291016,-39.44900131225586 63.560001373291016,-39.44900131225586 63.560001373291016,-39.44900131225586 C68.24700164794922,-39.44900131225586 72.05999755859375,-35.637001037597656 72.05999755859375,-30.948999404907227 C72.05999755859375,-30.948999404907227 72.05999755859375,30.948999404907227 72.05999755859375,30.948999404907227 C72.05999755859375,35.63600158691406 68.24700164794922,39.44900131225586 63.560001373291016,39.44900131225586z M-63.560001373291016,-36.44900131225586 C-66.59300231933594,-36.44900131225586 -69.05999755859375,-33.981998443603516 -69.05999755859375,-30.948999404907227 C-69.05999755859375,-30.948999404907227 -69.05999755859375,30.948999404907227 -69.05999755859375,30.948999404907227 C-69.05999755859375,33.981998443603516 -66.59300231933594,36.44900131225586 -63.560001373291016,36.44900131225586 C-63.560001373291016,36.44900131225586 63.560001373291016,36.44900131225586 63.560001373291016,36.44900131225586 C66.59200286865234,36.44900131225586 69.05999755859375,33.981998443603516 69.05999755859375,30.948999404907227 C69.05999755859375,30.948999404907227 69.05999755859375,-30.948999404907227 69.05999755859375,-30.948999404907227 C69.05999755859375,-33.981998443603516 66.59200286865234,-36.44900131225586 63.560001373291016,-36.44900131225586 C63.560001373291016,-36.44900131225586 -63.560001373291016,-36.44900131225586 -63.560001373291016,-36.44900131225586z"></path></g><g opacity="1" transform="matrix(1,0,0,1,130.06399536132812,197.47799682617188)"><path fill="rgb(17,59,233)" fillOpacity="1" d=" M-3.181999921798706,4.230999946594238 C-3.437999963760376,4.230999946594238 -3.694000005722046,4.132999897003174 -3.8889999389648438,3.937999963760376 C-4.28000020980835,3.546999931335449 -4.28000020980835,2.9149999618530273 -3.8889999389648438,2.5239999294281006 C-3.8889999389648438,2.5239999294281006 2.4749999046325684,-3.8399999141693115 2.4749999046325684,-3.8399999141693115 C2.865000009536743,-4.230999946594238 3.497999906539917,-4.230999946594238 3.8889999389648438,-3.8399999141693115 C4.2789998054504395,-3.450000047683716 4.2789998054504395,-2.816999912261963 3.8889999389648438,-2.4260001182556152 C3.8889999389648438,-2.4260001182556152 -2.4749999046325684,3.937999963760376 -2.4749999046325684,3.937999963760376 C-2.6700000762939453,4.132999897003174 -2.9260001182556152,4.230999946594238 -3.181999921798706,4.230999946594238z"></path></g><g opacity="1" transform="matrix(1,0,0,1,130.06500244140625,197.47799682617188)"><path fill="rgb(17,59,233)" fillOpacity="1" d=" M3.181999921798706,4.230999946594238 C2.9260001182556152,4.230999946594238 2.6700000762939453,4.132999897003174 2.4749999046325684,3.937999963760376 C2.4749999046325684,3.937999963760376 -3.890000104904175,-2.4260001182556152 -3.890000104904175,-2.4260001182556152 C-4.28000020980835,-2.816999912261963 -4.28000020980835,-3.450000047683716 -3.890000104904175,-3.8399999141693115 C-3.499000072479248,-4.230999946594238 -2.865999937057495,-4.230999946594238 -2.4760000705718994,-3.8399999141693115 C-2.4760000705718994,-3.8399999141693115 3.888000011444092,2.5239999294281006 3.888000011444092,2.5239999294281006 C4.2789998054504395,2.9149999618530273 4.2789998054504395,3.546999931335449 3.888000011444092,3.937999963760376 C3.693000078201294,4.132999897003174 3.437999963760376,4.230999946594238 3.181999921798706,4.230999946594238z"></path></g><g opacity="1" transform="matrix(1,0,0,1,167.86300659179688,224.47999572753906)"><path fill="rgb(17,59,233)" fillOpacity="1" d=" M3.2049999237060547,-6.807000160217285 C1.2690000534057617,-6.807000160217285 -0.21400000154972076,-6.2170000076293945 -1.2450000047683716,-5.035999774932861 C-2.2760000228881836,-3.8540000915527344 -2.7909998893737793,-2.181999921798706 -2.7909998893737793,-0.019999999552965164 C-2.7909998893737793,2.1679999828338623 -2.2200000286102295,3.8529999256134033 -1.0750000476837158,5.034999847412109 C0.06800000369548798,6.216000080108643 1.6080000400543213,6.806000232696533 3.5450000762939453,6.806000232696533 C4.574999809265137,6.806000232696533 5.448999881744385,6.670000076293945 6.165999889373779,6.392000198364258 C6.882999897003174,6.114999771118164 7.566999912261963,5.800000190734863 8.222000122070312,5.448999881744385 C8.64799976348877,5.800000190734863 8.980999946594238,6.2220001220703125 9.220999717712402,6.711999893188477 C9.458999633789062,7.203000068664551 9.579000473022461,7.775000095367432 9.579000473022461,8.428999900817871 C9.579000473022461,9.458999633789062 9.006999969482422,10.333999633789062 7.86299991607666,11.050000190734863 C6.718999862670898,11.765000343322754 4.9770002365112305,12.125 2.640000104904175,12.125 C0.9549999833106995,12.125 -0.6290000081062317,11.883999824523926 -2.111999988555908,11.407999992370605 C-3.5959999561309814,10.930999755859375 -4.890999794006348,10.194999694824219 -5.997000217437744,9.201000213623047 C-7.104000091552734,8.208999633789062 -7.9770002365112305,6.951000213623047 -8.618000030517578,5.428999900817871 C-9.258999824523926,3.9100000858306885 -9.579000473022461,2.0929999351501465 -9.579000473022461,-0.019999999552965164 C-9.579000473022461,-1.9809999465942383 -9.272000312805176,-3.7090001106262207 -8.654999732971191,-5.204999923706055 C-8.039999961853027,-6.702000141143799 -7.197000026702881,-7.9629998207092285 -6.129000186920166,-8.994999885559082 C-5.060999870300293,-10.026000022888184 -3.809999942779541,-10.805000305175781 -2.375999927520752,-11.333999633789062 C-0.9430000185966492,-11.862000465393066 0.5899999737739563,-12.125 2.2249999046325684,-12.125 C4.538000106811523,-12.125 6.328999996185303,-11.748000144958496 7.598999977111816,-10.994000434875488 C8.868000030517578,-10.241000175476074 9.503999710083008,-9.272000312805176 9.503999710083008,-8.09000015258789 C9.503999710083008,-7.435999870300293 9.34000015258789,-6.86899995803833 9.013999938964844,-6.39300012588501 C8.685999870300293,-5.914000034332275 8.309000015258789,-5.538000106811523 7.881999969482422,-5.26200008392334 C7.2270002365112305,-5.690000057220459 6.53000020980835,-6.052999973297119 5.789000034332275,-6.355999946594238 C5.046999931335449,-6.6570000648498535 4.184999942779541,-6.807000160217285 3.2049999237060547,-6.807000160217285z"></path></g><g opacity="1" transform="matrix(1,0,0,1,188.02099609375,225.08299255371094)"><path fill="rgb(17,59,233)" fillOpacity="1" d=" M2.9600000381469727,8.956999778747559 C2.759000062942505,9.057000160217285 2.388000011444092,9.138999938964844 1.8480000495910645,9.201000213623047 C1.3070000410079956,9.265999794006348 0.7850000262260437,9.29699993133545 0.28200000524520874,9.29699993133545 C-0.7490000128746033,9.29699993133545 -1.5269999504089355,9.126999855041504 -2.055999994277954,8.786999702453613 C-2.5840001106262207,8.446999549865723 -2.8480000495910645,7.724999904632568 -2.8480000495910645,6.61899995803833 C-2.8480000495910645,6.61899995803833 -2.8480000495910645,2.4709999561309814 -2.8480000495910645,2.4709999561309814 C-2.8480000495910645,2.4709999561309814 -8.543000221252441,2.4709999561309814 -8.543000221252441,2.4709999561309814 C-8.718999862670898,2.193000078201294 -8.86299991607666,1.8279999494552612 -8.97700023651123,1.3769999742507935 C-9.09000015258789,0.9240000247955322 -9.145000457763672,0.47099998593330383 -9.145000457763672,0.017999999225139618 C-9.145000457763672,-0.8870000243186951 -8.944999694824219,-1.5470000505447388 -8.543000221252441,-1.9609999656677246 C-8.140999794006348,-2.377000093460083 -7.599999904632568,-2.5840001106262207 -6.921000003814697,-2.5840001106262207 C-6.921000003814697,-2.5840001106262207 -2.8480000495910645,-2.5840001106262207 -2.8480000495910645,-2.5840001106262207 C-2.8480000495910645,-2.5840001106262207 -2.8480000495910645,-8.920000076293945 -2.8480000495910645,-8.920000076293945 C-2.5969998836517334,-8.994000434875488 -2.2130000591278076,-9.076000213623047 -1.6970000267028809,-9.163999557495117 C-1.1829999685287476,-9.251999855041504 -0.6740000247955322,-9.29699993133545 -0.17000000178813934,-9.29699993133545 C0.8349999785423279,-9.29699993133545 1.6080000400543213,-9.121000289916992 2.1489999294281006,-8.770000457763672 C2.688999891281128,-8.416000366210938 2.9600000381469727,-7.676000118255615 2.9600000381469727,-6.543000221252441 C2.9600000381469727,-6.543000221252441 2.9600000381469727,-2.5840001106262207 2.9600000381469727,-2.5840001106262207 C2.9600000381469727,-2.5840001106262207 8.541999816894531,-2.5840001106262207 8.541999816894531,-2.5840001106262207 C8.666999816894531,-2.2809998989105225 8.798999786376953,-1.909999966621399 8.937999725341797,-1.4709999561309814 C9.074999809265137,-1.031000018119812 9.145999908447266,-0.5720000267028809 9.145999908447266,-0.09399999678134918 C9.145999908447266,0.7850000262260437 8.942999839782715,1.434000015258789 8.541999816894531,1.8480000495910645 C8.140000343322754,2.26200008392334 7.611000061035156,2.4709999561309814 6.958000183105469,2.4709999561309814 C6.958000183105469,2.4709999561309814 2.9600000381469727,2.4709999561309814 2.9600000381469727,2.4709999561309814 C2.9600000381469727,2.4709999561309814 2.9600000381469727,8.956999778747559 2.9600000381469727,8.956999778747559z"></path></g><g opacity="1" transform="matrix(1,0,0,1,208.5749969482422,225.08299255371094)"><path fill="rgb(17,59,233)" fillOpacity="1" d=" M2.9600000381469727,8.956999778747559 C2.759000062942505,9.057000160217285 2.38700008392334,9.138999938964844 1.847000002861023,9.201000213623047 C1.305999994277954,9.265999794006348 0.7839999794960022,9.29699993133545 0.2809999883174896,9.29699993133545 C-0.75,9.29699993133545 -1.527999997138977,9.126999855041504 -2.056999921798706,8.786999702453613 C-2.5850000381469727,8.446999549865723 -2.8489999771118164,7.724999904632568 -2.8489999771118164,6.61899995803833 C-2.8489999771118164,6.61899995803833 -2.8489999771118164,2.4709999561309814 -2.8489999771118164,2.4709999561309814 C-2.8489999771118164,2.4709999561309814 -8.543999671936035,2.4709999561309814 -8.543999671936035,2.4709999561309814 C-8.720000267028809,2.193000078201294 -8.86400032043457,1.8279999494552612 -8.977999687194824,1.3769999742507935 C-9.090999603271484,0.9240000247955322 -9.145999908447266,0.47099998593330383 -9.145999908447266,0.017999999225139618 C-9.145999908447266,-0.8870000243186951 -8.946000099182129,-1.5470000505447388 -8.543999671936035,-1.9609999656677246 C-8.142000198364258,-2.377000093460083 -7.60099983215332,-2.5840001106262207 -6.921999931335449,-2.5840001106262207 C-6.921999931335449,-2.5840001106262207 -2.8489999771118164,-2.5840001106262207 -2.8489999771118164,-2.5840001106262207 C-2.8489999771118164,-2.5840001106262207 -2.8489999771118164,-8.920000076293945 -2.8489999771118164,-8.920000076293945 C-2.5980000495910645,-8.994000434875488 -2.2139999866485596,-9.076000213623047 -1.6979999542236328,-9.163999557495117 C-1.184000015258789,-9.251999855041504 -0.675000011920929,-9.29699993133545 -0.17100000381469727,-9.29699993133545 C0.8339999914169312,-9.29699993133545 1.6069999933242798,-9.121000289916992 2.1480000019073486,-8.770000457763672 C2.687999963760376,-8.416000366210938 2.9600000381469727,-7.676000118255615 2.9600000381469727,-6.543000221252441 C2.9600000381469727,-6.543000221252441 2.9600000381469727,-2.5840001106262207 2.9600000381469727,-2.5840001106262207 C2.9600000381469727,-2.5840001106262207 8.541000366210938,-2.5840001106262207 8.541000366210938,-2.5840001106262207 C8.666000366210938,-2.2809998989105225 8.798999786376953,-1.909999966621399 8.937999725341797,-1.4709999561309814 C9.074999809265137,-1.031000018119812 9.145000457763672,-0.5720000267028809 9.145000457763672,-0.09399999678134918 C9.145000457763672,0.7850000262260437 8.942000389099121,1.434000015258789 8.541000366210938,1.8480000495910645 C8.138999938964844,2.26200008392334 7.610000133514404,2.4709999561309814 6.956999778747559,2.4709999561309814 C6.956999778747559,2.4709999561309814 2.9600000381469727,2.4709999561309814 2.9600000381469727,2.4709999561309814 C2.9600000381469727,2.4709999561309814 2.9600000381469727,8.956999778747559 2.9600000381469727,8.956999778747559z"></path></g></g><g opacity="1" transform="matrix(1,0,0,1,258.239013671875,253.28199768066406)"><path strokeLinecap="butt" strokeLinejoin="miter" fillOpacity="0" strokeMiterlimit="10" stroke="rgb(76,92,152)" strokeOpacity="1" strokeWidth="3" d=" M-23.874000549316406,-17.356000900268555 C-23.874000549316406,-17.356000900268555 0.8339999914169312,-17.356000900268555 0.8339999914169312,-17.356000900268555 C7.196000099182129,-17.356000900268555 12.354000091552734,-12.197999954223633 12.354000091552734,-5.835000038146973 C12.354000091552734,-5.835000038146973 12.354000091552734,5.835999965667725 12.354000091552734,5.835999965667725 C12.354000091552734,12.199000358581543 17.511999130249023,17.356000900268555 23.874000549316406,17.356000900268555"></path></g><g opacity="1" transform="matrix(1,0,0,1,285.2250061035156,270.6369934082031)"><path strokeLinecap="butt" strokeLinejoin="miter" fillOpacity="0" strokeMiterlimit="10" stroke="rgb(76,92,152)" strokeOpacity="1" strokeWidth="3" d=" M4.0920000076293945,0 C4.0920000076293945,2.259999990463257 2.259999990463257,4.0920000076293945 0,4.0920000076293945 C-2.259999990463257,4.0920000076293945 -4.0920000076293945,2.259999990463257 -4.0920000076293945,0 C-4.0920000076293945,-2.259999990463257 -2.259999990463257,-4.0920000076293945 0,-4.0920000076293945 C2.259999990463257,-4.0920000076293945 4.0920000076293945,-2.259999990463257 4.0920000076293945,0z"></path></g><g opacity="1" transform="matrix(1,0,0,1,230.6529998779297,235.92599487304688)"><path strokeLinecap="butt" strokeLinejoin="miter" fillOpacity="0" strokeMiterlimit="10" stroke="rgb(76,92,152)" strokeOpacity="1" strokeWidth="3" d=" M4.0920000076293945,-0.0010000000474974513 C4.0920000076293945,2.259999990463257 2.259999990463257,4.091000080108643 0,4.091000080108643 C-2.259999990463257,4.091000080108643 -4.0920000076293945,2.259999990463257 -4.0920000076293945,-0.0010000000474974513 C-4.0920000076293945,-2.260999917984009 -2.259999990463257,-4.091000080108643 0,-4.091000080108643 C2.259999990463257,-4.091000080108643 4.0920000076293945,-2.260999917984009 4.0920000076293945,-0.0010000000474974513z"></path></g></g><g transform="matrix(1,0,0,1,0,-8.488067626953125)" opacity="1" style="display: block;"><g opacity="1" transform="matrix(1,0,0,1,0,0)"><g opacity="1" transform="matrix(1,0,0,1,359.5509948730469,152.33599853515625)"><path fill="rgb(255,255,255)" fillOpacity="1" d=" M70.56099700927734,-30.948999404907227 C70.56099700927734,-30.948999404907227 70.56099700927734,30.948999404907227 70.56099700927734,30.948999404907227 C70.56099700927734,34.814998626708984 67.4260025024414,37.94900131225586 63.56100082397461,37.94900131225586 C63.56100082397461,37.94900131225586 -63.560001373291016,37.94900131225586 -63.560001373291016,37.94900131225586 C-67.4260025024414,37.94900131225586 -70.55999755859375,34.814998626708984 -70.55999755859375,30.948999404907227 C-70.55999755859375,30.948999404907227 -70.55999755859375,-30.948999404907227 -70.55999755859375,-30.948999404907227 C-70.55999755859375,-34.81399917602539 -67.4260025024414,-37.94900131225586 -63.560001373291016,-37.94900131225586 C-63.560001373291016,-37.94900131225586 63.56100082397461,-37.94900131225586 63.56100082397461,-37.94900131225586 C67.4260025024414,-37.94900131225586 70.56099700927734,-34.81399917602539 70.56099700927734,-30.948999404907227z"></path></g><g opacity="1" transform="matrix(1,0,0,1,359.5509948730469,152.33599853515625)"><path fill="rgb(17,59,233)" fillOpacity="1" d=" M63.560001373291016,39.44900131225586 C63.560001373291016,39.44900131225586 -63.56100082397461,39.44900131225586 -63.56100082397461,39.44900131225586 C-68.24800109863281,39.44900131225586 -72.06099700927734,35.637001037597656 -72.06099700927734,30.948999404907227 C-72.06099700927734,30.948999404907227 -72.06099700927734,-30.948999404907227 -72.06099700927734,-30.948999404907227 C-72.06099700927734,-35.637001037597656 -68.24800109863281,-39.44900131225586 -63.56100082397461,-39.44900131225586 C-63.56100082397461,-39.44900131225586 63.560001373291016,-39.44900131225586 63.560001373291016,-39.44900131225586 C68.24600219726562,-39.44900131225586 72.05999755859375,-35.637001037597656 72.05999755859375,-30.948999404907227 C72.05999755859375,-30.948999404907227 72.05999755859375,30.948999404907227 72.05999755859375,30.948999404907227 C72.05999755859375,35.637001037597656 68.24600219726562,39.44900131225586 63.560001373291016,39.44900131225586z M-63.56100082397461,-36.44900131225586 C-66.59400177001953,-36.44900131225586 -69.06099700927734,-33.981998443603516 -69.06099700927734,-30.948999404907227 C-69.06099700927734,-30.948999404907227 -69.06099700927734,30.948999404907227 -69.06099700927734,30.948999404907227 C-69.06099700927734,33.983001708984375 -66.59400177001953,36.44900131225586 -63.56100082397461,36.44900131225586 C-63.56100082397461,36.44900131225586 63.560001373291016,36.44900131225586 63.560001373291016,36.44900131225586 C66.59200286865234,36.44900131225586 69.05999755859375,33.983001708984375 69.05999755859375,30.948999404907227 C69.05999755859375,30.948999404907227 69.05999755859375,-30.948999404907227 69.05999755859375,-30.948999404907227 C69.05999755859375,-33.981998443603516 66.59200286865234,-36.44900131225586 63.560001373291016,-36.44900131225586 C63.560001373291016,-36.44900131225586 -63.56100082397461,-36.44900131225586 -63.56100082397461,-36.44900131225586z"></path></g><g opacity="1" transform="matrix(1,0,0,1,301.1679992675781,127.70800018310547)"><path fill="rgb(17,59,233)" fillOpacity="1" d=" M-3.180999994277954,4.230999946594238 C-3.437000036239624,4.230999946594238 -3.693000078201294,4.132999897003174 -3.888000011444092,3.937999963760376 C-4.2789998054504395,3.546999931335449 -4.2789998054504395,2.9149999618530273 -3.888000011444092,2.5239999294281006 C-3.888000011444092,2.5239999294281006 2.4749999046325684,-3.8399999141693115 2.4749999046325684,-3.8399999141693115 C2.865000009536743,-4.230999946594238 3.497999906539917,-4.230999946594238 3.8889999389648438,-3.8399999141693115 C4.2789998054504395,-3.450000047683716 4.2789998054504395,-2.816999912261963 3.8889999389648438,-2.4260001182556152 C3.8889999389648438,-2.4260001182556152 -2.4749999046325684,3.937999963760376 -2.4749999046325684,3.937999963760376 C-2.6700000762939453,4.132999897003174 -2.924999952316284,4.230999946594238 -3.180999994277954,4.230999946594238z"></path></g><g opacity="1" transform="matrix(1,0,0,1,301.16900634765625,127.70800018310547)"><path fill="rgb(17,59,233)" fillOpacity="1" d=" M3.181999921798706,4.230999946594238 C2.9260001182556152,4.230999946594238 2.6700000762939453,4.132999897003174 2.4749999046325684,3.937999963760376 C2.4749999046325684,3.937999963760376 -3.8889999389648438,-2.4260001182556152 -3.8889999389648438,-2.4260001182556152 C-4.2789998054504395,-2.816999912261963 -4.2789998054504395,-3.450000047683716 -3.8889999389648438,-3.8399999141693115 C-3.497999906539917,-4.230999946594238 -2.865000009536743,-4.230999946594238 -2.4749999046325684,-3.8399999141693115 C-2.4749999046325684,-3.8399999141693115 3.888000011444092,2.5239999294281006 3.888000011444092,2.5239999294281006 C4.2789998054504395,2.9149999618530273 4.2789998054504395,3.546999931335449 3.888000011444092,3.937999963760376 C3.693000078201294,4.132999897003174 3.437999963760376,4.230999946594238 3.181999921798706,4.230999946594238z"></path></g><g opacity="1" transform="matrix(1,0,0,1,327.6709899902344,154.6750030517578)"><path fill="rgb(17,59,233)" fillOpacity="1" d=" M10.220999717712402,11.35099983215332 C9.944000244140625,11.427000045776367 9.510000228881836,11.501999855041504 8.918999671936035,11.579000473022461 C8.32800006866455,11.652999877929688 7.742000102996826,11.692000389099121 7.164000034332275,11.692000389099121 C6.585999965667725,11.692000389099121 6.078000068664551,11.645999908447266 5.638000011444092,11.557999610900879 C5.198999881744385,11.470000267028809 4.827000141143799,11.3149995803833 4.526000022888184,11.088000297546387 C4.223999977111816,10.862000465393066 3.996000051498413,10.54699993133545 3.8459999561309814,10.145000457763672 C3.696000099182129,9.743000030517578 3.619999885559082,9.21500015258789 3.619999885559082,8.560999870300293 C3.619999885559082,8.560999870300293 3.619999885559082,2.677999973297119 3.619999885559082,2.677999973297119 C3.619999885559082,2.677999973297119 -3.621000051498413,2.677999973297119 -3.621000051498413,2.677999973297119 C-3.621000051498413,2.677999973297119 -3.621000051498413,11.35099983215332 -3.621000051498413,11.35099983215332 C-3.8970000743865967,11.427000045776367 -4.330999851226807,11.501999855041504 -4.921999931335449,11.579000473022461 C-5.51200008392334,11.652999877929688 -6.0980000495910645,11.692000389099121 -6.676000118255615,11.692000389099121 C-7.255000114440918,11.692000389099121 -7.763000011444092,11.645999908447266 -8.20300006866455,11.557999610900879 C-8.642000198364258,11.470000267028809 -9.012999534606934,11.3149995803833 -9.3149995803833,11.088000297546387 C-9.616999626159668,10.862000465393066 -9.843999862670898,10.54699993133545 -9.994999885559082,10.145000457763672 C-10.145999908447266,9.743000030517578 -10.220000267028809,9.21500015258789 -10.220000267028809,8.560999870300293 C-10.220000267028809,8.560999870300293 -10.220000267028809,-11.35099983215332 -10.220000267028809,-11.35099983215332 C-9.944000244140625,-11.402000427246094 -9.503999710083008,-11.470000267028809 -8.899999618530273,-11.557999610900879 C-8.29699993133545,-11.645999908447266 -7.718999862670898,-11.692000389099121 -7.166999816894531,-11.692000389099121 C-6.589000225067139,-11.692000389099121 -6.078000068664551,-11.645999908447266 -5.638000011444092,-11.557999610900879 C-5.197999954223633,-11.470000267028809 -4.827000141143799,-11.3149995803833 -4.525000095367432,-11.088000297546387 C-4.2230000495910645,-10.862000465393066 -3.997999906539917,-10.545999526977539 -3.8459999561309814,-10.144000053405762 C-3.696000099182129,-9.741999626159668 -3.621000051498413,-9.21500015258789 -3.621000051498413,-8.560999870300293 C-3.621000051498413,-8.560999870300293 -3.621000051498413,-2.5280001163482666 -3.621000051498413,-2.5280001163482666 C-3.621000051498413,-2.5280001163482666 3.619999885559082,-2.5280001163482666 3.619999885559082,-2.5280001163482666 C3.619999885559082,-2.5280001163482666 3.619999885559082,-11.35099983215332 3.619999885559082,-11.35099983215332 C3.8970000743865967,-11.402000427246094 4.335999965667725,-11.470000267028809 4.940000057220459,-11.557999610900879 C5.543000221252441,-11.645999908447266 6.120999813079834,-11.692000389099121 6.673999786376953,-11.692000389099121 C7.251999855041504,-11.692000389099121 7.763000011444092,-11.645999908447266 8.20199966430664,-11.557999610900879 C8.642999649047852,-11.470000267028809 9.012999534606934,-11.3149995803833 9.3149995803833,-11.088000297546387 C9.616000175476074,-10.862000465393066 9.842000007629395,-10.545999526977539 9.993000030517578,-10.144000053405762 C10.144000053405762,-9.741999626159668 10.220999717712402,-9.21500015258789 10.220999717712402,-8.560999870300293 C10.220999717712402,-8.560999870300293 10.220999717712402,11.35099983215332 10.220999717712402,11.35099983215332z"></path></g><g opacity="1" transform="matrix(1,0,0,1,350.78900146484375,154.78799438476562)"><path fill="rgb(17,59,233)" fillOpacity="1" d=" M-9.050999641418457,-6.185999870300293 C-9.227999687194824,-6.460999965667725 -9.390999794006348,-6.836999893188477 -9.541000366210938,-7.315999984741211 C-9.692999839782715,-7.794000148773193 -9.767999649047852,-8.29699993133545 -9.767999649047852,-8.82699966430664 C-9.767999649047852,-9.807000160217285 -9.54800033569336,-10.510000228881836 -9.107999801635742,-10.937999725341797 C-8.668000221252441,-11.366000175476074 -8.095999717712402,-11.57800006866455 -7.392000198364258,-11.57800006866455 C-7.392000198364258,-11.57800006866455 9.052000045776367,-11.57800006866455 9.052000045776367,-11.57800006866455 C9.22700023651123,-11.300000190734863 9.390000343322754,-10.923999786376953 9.541999816894531,-10.447999954223633 C9.692000389099121,-9.968999862670898 9.767999649047852,-9.467000007629395 9.767999649047852,-8.937999725341797 C9.767999649047852,-7.956999778747559 9.54800033569336,-7.254000186920166 9.107999801635742,-6.827000141143799 C8.668000221252441,-6.39900016784668 8.095000267028809,-6.185999870300293 7.392000198364258,-6.185999870300293 C7.392000198364258,-6.185999870300293 3.2060000896453857,-6.185999870300293 3.2060000896453857,-6.185999870300293 C3.2060000896453857,-6.185999870300293 3.2060000896453857,11.23799991607666 3.2060000896453857,11.23799991607666 C2.927999973297119,11.314000129699707 2.494999885559082,11.388999938964844 1.9049999713897705,11.46500015258789 C1.312999963760376,11.539999961853027 0.7289999723434448,11.57800006866455 0.1509999930858612,11.57800006866455 C-0.42800000309944153,11.57800006866455 -0.9369999766349792,11.532999992370605 -1.3760000467300415,11.444999694824219 C-1.8170000314712524,11.357000350952148 -2.187999963760376,11.201000213623047 -2.489000082015991,10.973999977111816 C-2.7899999618530273,10.748000144958496 -3.0169999599456787,10.432999610900879 -3.1679999828338623,10.031000137329102 C-3.319000005722046,9.628000259399414 -3.3940000534057617,9.10200023651123 -3.3940000534057617,8.447999954223633 C-3.3940000534057617,8.447999954223633 -3.3940000534057617,-6.185999870300293 -3.3940000534057617,-6.185999870300293 C-3.3940000534057617,-6.185999870300293 -9.050999641418457,-6.185999870300293 -9.050999641418457,-6.185999870300293z"></path></g><g opacity="1" transform="matrix(1,0,0,1,375.6990051269531,154.8260040283203)"><path fill="rgb(17,59,233)" fillOpacity="1" d=" M3.1110000610351562,5.730999946594238 C2.7850000858306885,6.007999897003174 2.36299991607666,6.2270002365112305 1.8480000495910645,6.390999794006348 C1.3329999446868896,6.554999828338623 0.7350000143051147,6.63700008392334 0.0560000017285347,6.63700008392334 C-0.8489999771118164,6.63700008392334 -1.597000002861023,6.52400016784668 -2.187000036239624,6.296999931335449 C-2.7790000438690186,6.071000099182129 -3.1619999408721924,5.683000087738037 -3.3369998931884766,5.127999782562256 C-4.040999889373779,2.9179999828338623 -4.61899995803833,1.1239999532699585 -5.072999954223633,-0.2460000067949295 C-5.525000095367432,-1.6169999837875366 -5.876999855041504,-2.815000057220459 -6.127999782562256,-3.8459999561309814 C-6.127999782562256,-3.8459999561309814 -6.316999912261963,-3.8459999561309814 -6.316999912261963,-3.8459999561309814 C-6.392000198364258,-2.364000082015991 -6.448999881744385,-1.0130000114440918 -6.486999988555908,0.20600000023841858 C-6.525000095367432,1.4259999990463257 -6.550000190734863,2.614000082015991 -6.561999797821045,3.7699999809265137 C-6.576000213623047,4.926000118255615 -6.599999904632568,6.0970001220703125 -6.63700008392334,7.2789998054504395 C-6.675000190734863,8.461000442504883 -6.73199987411499,9.767000198364258 -6.807000160217285,11.201000213623047 C-7.133999824523926,11.32800006866455 -7.561999797821045,11.432000160217285 -8.08899974822998,11.520000457763672 C-8.618000030517578,11.607999801635742 -9.145999908447266,11.654000282287598 -9.67300033569336,11.654000282287598 C-10.781000137329102,11.654000282287598 -11.640999794006348,11.47700023651123 -12.256999969482422,11.12399959564209 C-12.873000144958496,10.772000312805176 -13.180999755859375,10.130999565124512 -13.180999755859375,9.20199966430664 C-13.180999755859375,9.20199966430664 -12.086999893188477,-10.032999992370605 -12.086999893188477,-10.032999992370605 C-11.88599967956543,-10.359000205993652 -11.446000099182129,-10.711999893188477 -10.767000198364258,-11.08899974822998 C-10.088000297546387,-11.465999603271484 -9.133000373840332,-11.654000282287598 -7.901000022888184,-11.654000282287598 C-6.568999767303467,-11.654000282287598 -5.525000095367432,-11.446999549865723 -4.770999908447266,-11.032999992370605 C-4.015999794006348,-10.616999626159668 -3.4630000591278076,-9.944000244140625 -3.111999988555908,-9.013999938964844 C-2.884999990463257,-8.41100025177002 -2.640000104904175,-7.71999979019165 -2.375999927520752,-6.940999984741211 C-2.111999988555908,-6.1620001792907715 -1.8480000495910645,-5.35699987411499 -1.5839999914169312,-4.5269999504089355 C-1.3200000524520874,-3.697000026702881 -1.062999963760376,-2.872999906539917 -0.8109999895095825,-2.055999994277954 C-0.5600000023841858,-1.2400000095367432 -0.3330000042915344,-0.5019999742507935 -0.13199999928474426,0.15000000596046448 C-0.13199999928474426,0.15000000596046448 0.0560000017285347,0.15000000596046448 0.0560000017285347,0.15000000596046448 C0.6600000262260437,-1.9609999656677246 1.2630000114440918,-4.005000114440918 1.8669999837875366,-5.978000164031982 C2.4700000286102295,-7.953000068664551 3.0230000019073486,-9.604999542236328 3.5260000228881836,-10.939000129699707 C3.9030001163482666,-11.137999534606934 4.38700008392334,-11.307999610900879 4.978000164031982,-11.446999549865723 C5.568999767303467,-11.585000038146973 6.229000091552734,-11.654000282287598 6.959000110626221,-11.654000282287598 C8.1899995803833,-11.654000282287598 9.196000099182129,-11.472000122070312 9.975000381469727,-11.107000350952148 C10.755000114440918,-10.744000434875488 11.206999778747559,-10.222000122070312 11.333000183105469,-9.541999816894531 C11.432999610900879,-9.038999557495117 11.541000366210938,-8.267000198364258 11.654000282287598,-7.223999977111816 C11.765999794006348,-6.178999900817871 11.885000228881836,-5.002999782562256 12.01099967956543,-3.697000026702881 C12.13700008392334,-2.390000104904175 12.262999534606934,-1.0069999694824219 12.388999938964844,0.4519999921321869 C12.513999938964844,1.9110000133514404 12.633999824523926,3.312000036239624 12.748000144958496,4.6579999923706055 C12.859999656677246,6.002999782562256 12.954999923706055,7.235000133514404 13.029999732971191,8.35200023651123 C13.104999542236328,9.470999717712402 13.156000137329102,10.333000183105469 13.180999755859375,10.935999870300293 C12.753999710083008,11.187999725341797 12.307000160217285,11.369999885559082 11.842000007629395,11.482999801635742 C11.376999855041504,11.595999717712402 10.779999732971191,11.654000282287598 10.050000190734863,11.654000282287598 C9.095000267028809,11.654000282287598 8.291000366210938,11.48900032043457 7.63700008392334,11.163000106811523 C6.982999801635742,10.836000442504883 6.631999969482422,10.194999694824219 6.580999851226807,9.239999771118164 C6.429999828338623,6.5 6.335999965667725,4.033999919891357 6.298999786376953,1.8459999561309814 C6.260000228881836,-0.3409999907016754 6.203999996185303,-2.174999952316284 6.129000186920166,-3.6600000858306885 C6.129000186920166,-3.6600000858306885 5.940000057220459,-3.6600000858306885 5.940000057220459,-3.6600000858306885 C5.688000202178955,-2.678999900817871 5.323999881744385,-1.4470000267028809 4.8460001945495605,0.035999998450279236 C4.36899995803833,1.5199999809265137 3.7909998893737793,3.4179999828338623 3.1110000610351562,5.730999946594238z"></path></g><g opacity="1" transform="matrix(1,0,0,1,401.0419921875,154.6179962158203)"><path fill="rgb(17,59,233)" fillOpacity="1" d=" M-4.4679999351501465,11.67199993133545 C-5.550000190734863,11.67199993133545 -6.406000137329102,11.357999801635742 -7.0329999923706055,10.729000091552734 C-7.6620001792907715,10.10200023651123 -7.9770002365112305,9.246000289916992 -7.9770002365112305,8.163999557495117 C-7.9770002365112305,8.163999557495117 -7.9770002365112305,-11.333999633789062 -7.9770002365112305,-11.333999633789062 C-7.699999809265137,-11.383000373840332 -7.258999824523926,-11.451000213623047 -6.656000137329102,-11.541000366210938 C-6.052000045776367,-11.628999710083008 -5.473999977111816,-11.67199993133545 -4.921000003814697,-11.67199993133545 C-4.3429999351501465,-11.67199993133545 -3.8340001106262207,-11.628999710083008 -3.3949999809265137,-11.541000366210938 C-2.9539999961853027,-11.451000213623047 -2.5820000171661377,-11.295000076293945 -2.2799999713897705,-11.067999839782715 C-1.9789999723434448,-10.842000007629395 -1.753000020980835,-10.527000427246094 -1.6019999980926514,-10.126999855041504 C-1.4509999752044678,-9.723999977111816 -1.3760000467300415,-9.194999694824219 -1.3760000467300415,-8.543000221252441 C-1.3760000467300415,-8.543000221252441 -1.3760000467300415,6.355999946594238 -1.3760000467300415,6.355999946594238 C-1.3760000467300415,6.355999946594238 7.260000228881836,6.355999946594238 7.260000228881836,6.355999946594238 C7.434999942779541,6.63100004196167 7.599999904632568,7.001999855041504 7.750999927520752,7.4670000076293945 C7.9019999504089355,7.934000015258789 7.9770002365112305,8.416000366210938 7.9770002365112305,8.920000076293945 C7.9770002365112305,9.925999641418457 7.763000011444092,10.635000228881836 7.335999965667725,11.050999641418457 C6.9079999923706055,11.46500015258789 6.3429999351501465,11.67199993133545 5.638999938964844,11.67199993133545 C5.638999938964844,11.67199993133545 -4.4679999351501465,11.67199993133545 -4.4679999351501465,11.67199993133545z"></path></g></g><g opacity="1" transform="matrix(1,0,0,1,383.83099365234375,221.66000366210938)"><path strokeLinecap="butt" strokeLinejoin="miter" fillOpacity="0" strokeMiterlimit="10" stroke="rgb(76,92,152)" strokeOpacity="1" strokeWidth="3" d=" M-10.60099983215332,-43.2239990234375 C-10.60099983215332,-43.2239990234375 -10.60099983215332,-1.684999942779541 -10.60099983215332,-1.684999942779541 C-10.60099983215332,4.171000003814697 -5.854000091552734,8.918000221252441 0,8.918000221252441 C0,8.918000221252441 0.0010000000474974513,8.918000221252441 0.0010000000474974513,8.918000221252441 C5.855000019073486,8.918000221252441 10.60099983215332,13.663999557495117 10.60099983215332,19.51799964904785 C10.60099983215332,19.51799964904785 10.60099983215332,43.2239990234375 10.60099983215332,43.2239990234375"></path></g><g opacity="1" transform="matrix(1,0,0,1,394.4320068359375,267.5459899902344)"><path strokeLinecap="butt" strokeLinejoin="miter" fillOpacity="0" strokeMiterlimit="10" stroke="rgb(76,92,152)" strokeOpacity="1" strokeWidth="3" d=" M4.0920000076293945,0 C4.0920000076293945,2.259999990463257 2.259999990463257,4.0920000076293945 0,4.0920000076293945 C-2.259999990463257,4.0920000076293945 -4.0920000076293945,2.259999990463257 -4.0920000076293945,0 C-4.0920000076293945,-2.259999990463257 -2.259999990463257,-4.0920000076293945 0,-4.0920000076293945 C2.259999990463257,-4.0920000076293945 4.0920000076293945,-2.259999990463257 4.0920000076293945,0z"></path></g><g opacity="1" transform="matrix(1,0,0,1,373.2300109863281,175.94000244140625)"><path strokeLinecap="butt" strokeLinejoin="miter" fillOpacity="0" strokeMiterlimit="10" stroke="rgb(76,92,152)" strokeOpacity="1" strokeWidth="3" d=" M4.0920000076293945,0 C4.0920000076293945,2.259999990463257 2.259999990463257,4.0920000076293945 0,4.0920000076293945 C-2.259999990463257,4.0920000076293945 -4.0920000076293945,2.259999990463257 -4.0920000076293945,0 C-4.0920000076293945,-2.259999990463257 -2.259999990463257,-4.0920000076293945 0,-4.0920000076293945 C2.259999990463257,-4.0920000076293945 4.0920000076293945,-2.259999990463257 4.0920000076293945,0z"></path></g></g><g transform="matrix(1,0,0,1,0.290130615234375,0)" opacity="1" style="display: block;"><g opacity="1" transform="matrix(1,0,0,1,0,0)"><g opacity="1" transform="matrix(1,0,0,1,620.9110107421875,194.343994140625)"><path fill="rgb(255,255,255)" fillOpacity="1" d=" M105.63999938964844,39.11899948120117 C105.63999938964844,39.11899948120117 -105.63999938964844,39.11899948120117 -105.63999938964844,39.11899948120117 C-108.4020004272461,39.11899948120117 -110.63999938964844,36.88100051879883 -110.63999938964844,34.11899948120117 C-110.63999938964844,34.11899948120117 -110.63999938964844,-34.11899948120117 -110.63999938964844,-34.11899948120117 C-110.63999938964844,-36.880001068115234 -108.4020004272461,-39.11899948120117 -105.63999938964844,-39.11899948120117 C-105.63999938964844,-39.11899948120117 105.63999938964844,-39.11899948120117 105.63999938964844,-39.11899948120117 C108.4010009765625,-39.11899948120117 110.63999938964844,-36.880001068115234 110.63999938964844,-34.11899948120117 C110.63999938964844,-34.11899948120117 110.63999938964844,34.11899948120117 110.63999938964844,34.11899948120117 C110.63999938964844,36.88100051879883 108.4010009765625,39.11899948120117 105.63999938964844,39.11899948120117z"></path></g><g opacity="1" transform="matrix(1,0,0,1,0,0)"><g opacity="1" transform="matrix(1,0,0,1,0,0)"><path strokeLinecap="butt" strokeLinejoin="miter" fillOpacity="0" strokeMiterlimit="10" stroke="rgb(17,59,233)" strokeOpacity="1" strokeWidth="3" d=" M538.4710083007812,221.1649932861328 C538.4710083007812,221.1649932861328 623.2069702148438,221.1649932861328 659.4749755859375,221.1649932861328"></path></g><g opacity="1" transform="matrix(1,0,0,1,0,0)"><path strokeLinecap="butt" strokeLinejoin="miter" fillOpacity="0" strokeMiterlimit="10" stroke="rgb(17,59,233)" strokeOpacity="1" strokeWidth="3" d=" M625.5910034179688,208.0240020751953 C625.5910034179688,208.0240020751953 679.4130249023438,208.0240020751953 702.448974609375,208.0240020751953"></path></g><g opacity="1" transform="matrix(1,0,0,1,0,0)"><path strokeLinecap="butt" strokeLinejoin="miter" fillOpacity="0" strokeMiterlimit="10" stroke="rgb(17,59,233)" strokeOpacity="1" strokeWidth="3" d=" M538.4710083007812,208.0240020751953 C538.4710083007812,208.0240020751953 586.7329711914062,208.0240020751953 607.3889770507812,208.0240020751953"></path></g><g opacity="1" transform="matrix(1,0,0,1,0,0)"><path strokeLinecap="butt" strokeLinejoin="miter" fillOpacity="0" strokeMiterlimit="10" stroke="rgb(17,59,233)" strokeOpacity="1" strokeWidth="3" d=" M655.4710083007812,194.88499450683594 C655.4710083007812,194.88499450683594 690.8330078125,194.88499450683594 705.968994140625,194.88499450683594"></path></g><g opacity="1" transform="matrix(1,0,0,1,0,0)"><path strokeLinecap="butt" strokeLinejoin="miter" fillOpacity="0" strokeMiterlimit="10" stroke="rgb(17,59,233)" strokeOpacity="1" strokeWidth="3" d=" M538.4710083007812,194.88499450683594 C538.4710083007812,194.88499450683594 605.56298828125,194.88499450683594 634.280029296875,194.88499450683594"></path></g><g opacity="1" transform="matrix(1,0,0,1,0,0)"><path strokeLinecap="butt" strokeLinejoin="miter" fillOpacity="0" strokeMiterlimit="10" stroke="rgb(17,59,233)" strokeOpacity="1" strokeWidth="3" d=" M538.4710083007812,181.7449951171875 C538.4710083007812,181.7449951171875 646.114013671875,181.7449951171875 692.18701171875,181.7449951171875"></path></g><g opacity="1" transform="matrix(1,0,0,1,0,0)"><path strokeLinecap="butt" strokeLinejoin="miter" fillOpacity="0" strokeMiterlimit="10" stroke="rgb(17,59,233)" strokeOpacity="1" strokeWidth="3" d=" M538.4710083007812,168.60400390625 C538.4710083007812,168.60400390625 646.114013671875,168.60400390625 692.18701171875,168.60400390625"></path></g></g><g opacity="1" transform="matrix(1,0,0,1,523.3510131835938,168.60400390625)"><path strokeLinecap="round" strokeLinejoin="round" fillOpacity="0" stroke="rgb(17,59,233)" strokeOpacity="1" strokeWidth="2" d=" M3.181999921798706,-3.181999921798706 C3.181999921798706,-3.181999921798706 -3.181999921798706,3.181999921798706 -3.181999921798706,3.181999921798706"></path></g><g opacity="1" transform="matrix(1,0,0,1,523.3499755859375,168.60400390625)"><path strokeLinecap="round" strokeLinejoin="round" fillOpacity="0" stroke="rgb(17,59,233)" strokeOpacity="1" strokeWidth="2" d=" M-3.180999994277954,-3.181999921798706 C-3.180999994277954,-3.181999921798706 3.181999921798706,3.181999921798706 3.181999921798706,3.181999921798706"></path></g><g opacity="1" transform="matrix(1,0,0,1,620.9110107421875,194.343994140625)"><path strokeLinecap="butt" strokeLinejoin="miter" fillOpacity="0" strokeMiterlimit="10" stroke="rgb(17,59,233)" strokeOpacity="1" strokeWidth="3" d=" M105.63999938964844,39.11899948120117 C105.63999938964844,39.11899948120117 -105.63999938964844,39.11899948120117 -105.63999938964844,39.11899948120117 C-108.4020004272461,39.11899948120117 -110.63999938964844,36.88100051879883 -110.63999938964844,34.11899948120117 C-110.63999938964844,34.11899948120117 -110.63999938964844,-34.11899948120117 -110.63999938964844,-34.11899948120117 C-110.63999938964844,-36.880001068115234 -108.4020004272461,-39.11899948120117 -105.63999938964844,-39.11899948120117 C-105.63999938964844,-39.11899948120117 105.63999938964844,-39.11899948120117 105.63999938964844,-39.11899948120117 C108.4010009765625,-39.11899948120117 110.63999938964844,-36.880001068115234 110.63999938964844,-34.11899948120117 C110.63999938964844,-34.11899948120117 110.63999938964844,34.11899948120117 110.63999938964844,34.11899948120117 C110.63999938964844,36.88100051879883 108.4010009765625,39.11899948120117 105.63999938964844,39.11899948120117z"></path></g></g><g opacity="1" transform="matrix(1,0,0,1,499.9570007324219,233.46499633789062)"><path strokeLinecap="butt" strokeLinejoin="miter" fillOpacity="0" strokeMiterlimit="10" stroke="rgb(76,92,152)" strokeOpacity="1" strokeWidth="3" d="M0 0"></path></g><g opacity="1" transform="matrix(1,0,0,1,526.531982421875,216.10800170898438)"><path strokeLinecap="butt" strokeLinejoin="miter" fillOpacity="0" strokeMiterlimit="10" stroke="rgb(76,92,152)" strokeOpacity="1" strokeWidth="3" d=" M4.0920000076293945,0 C4.0920000076293945,2.259999990463257 2.259999990463257,4.0920000076293945 0,4.0920000076293945 C-0.800000011920929,4.0920000076293945 -1.5470000505447388,3.861999988555908 -2.177999973297119,3.4649999141693115"></path></g><g opacity="1" transform="matrix(1,0,0,1,471.8330078125,250.8209991455078)"><path strokeLinecap="butt" strokeLinejoin="miter" fillOpacity="0" strokeMiterlimit="10" stroke="rgb(76,92,152)" strokeOpacity="1" strokeWidth="3" d="M0 0"></path></g></g><g transform="matrix(1,0,0,1,0,0)" opacity="1" style="display: block;"><g opacity="1" transform="matrix(1,0,0,1,0,0)"><g opacity="1" transform="matrix(1,0,0,1,655.531005859375,322.5769958496094)"><path fill="rgb(255,255,255)" fillOpacity="1" d=" M32.29999923706055,63.2599983215332 C32.29999923706055,63.2599983215332 -32.30099868774414,63.2599983215332 -32.30099868774414,63.2599983215332 C-36.16699981689453,63.2599983215332 -39.30099868774414,60.125999450683594 -39.30099868774414,56.2599983215332 C-39.30099868774414,56.2599983215332 -39.30099868774414,-56.2599983215332 -39.30099868774414,-56.2599983215332 C-39.30099868774414,-60.12699890136719 -36.16699981689453,-63.2599983215332 -32.30099868774414,-63.2599983215332 C-32.30099868774414,-63.2599983215332 32.29999923706055,-63.2599983215332 32.29999923706055,-63.2599983215332 C36.165000915527344,-63.2599983215332 39.29999923706055,-60.12699890136719 39.29999923706055,-56.2599983215332 C39.29999923706055,-56.2599983215332 39.29999923706055,56.2599983215332 39.29999923706055,56.2599983215332 C39.29999923706055,60.125999450683594 36.165000915527344,63.2599983215332 32.29999923706055,63.2599983215332z"></path></g><g opacity="1" transform="matrix(1,0,0,1,655.531005859375,322.5780029296875)"><path fill="rgb(17,59,233)" fillOpacity="1" d=" M32.29999923706055,64.76000213623047 C32.29999923706055,64.76000213623047 -32.29999923706055,64.76000213623047 -32.29999923706055,64.76000213623047 C-36.98699951171875,64.76000213623047 -40.79999923706055,60.94599914550781 -40.79999923706055,56.2599983215332 C-40.79999923706055,56.2599983215332 -40.79999923706055,-56.2599983215332 -40.79999923706055,-56.2599983215332 C-40.79999923706055,-60.948001861572266 -36.98699951171875,-64.76000213623047 -32.29999923706055,-64.76000213623047 C-32.29999923706055,-64.76000213623047 32.29999923706055,-64.76000213623047 32.29999923706055,-64.76000213623047 C36.986000061035156,-64.76000213623047 40.79999923706055,-60.948001861572266 40.79999923706055,-56.2599983215332 C40.79999923706055,-56.2599983215332 40.79999923706055,56.2599983215332 40.79999923706055,56.2599983215332 C40.79999923706055,60.94599914550781 36.986000061035156,64.76000213623047 32.29999923706055,64.76000213623047z M-32.29999923706055,-61.7599983215332 C-35.33300018310547,-61.7599983215332 -37.79999923706055,-59.292999267578125 -37.79999923706055,-56.2599983215332 C-37.79999923706055,-56.2599983215332 -37.79999923706055,56.2599983215332 -37.79999923706055,56.2599983215332 C-37.79999923706055,59.29199981689453 -35.33300018310547,61.7599983215332 -32.29999923706055,61.7599983215332 C-32.29999923706055,61.7599983215332 32.29999923706055,61.7599983215332 32.29999923706055,61.7599983215332 C35.332000732421875,61.7599983215332 37.79999923706055,59.29199981689453 37.79999923706055,56.2599983215332 C37.79999923706055,56.2599983215332 37.79999923706055,-56.2599983215332 37.79999923706055,-56.2599983215332 C37.79999923706055,-59.292999267578125 35.332000732421875,-61.7599983215332 32.29999923706055,-61.7599983215332 C32.29999923706055,-61.7599983215332 -32.29999923706055,-61.7599983215332 -32.29999923706055,-61.7599983215332z"></path></g><g opacity="1" transform="matrix(1,0,0,1,630.3699951171875,273.77099609375)"><path fill="rgb(17,59,233)" fillOpacity="1" d=" M-3.181999921798706,4.230999946594238 C-3.437999963760376,4.230999946594238 -3.694000005722046,4.132999897003174 -3.8889999389648438,3.937999963760376 C-4.28000020980835,3.546999931335449 -4.28000020980835,2.9149999618530273 -3.8889999389648438,2.5239999294281006 C-3.8889999389648438,2.5239999294281006 2.4749999046325684,-3.8399999141693115 2.4749999046325684,-3.8399999141693115 C2.865999937057495,-4.230999946594238 3.499000072479248,-4.230999946594238 3.8889999389648438,-3.8399999141693115 C4.28000020980835,-3.450000047683716 4.28000020980835,-2.816999912261963 3.8889999389648438,-2.4260001182556152 C3.8889999389648438,-2.4260001182556152 -2.4749999046325684,3.937999963760376 -2.4749999046325684,3.937999963760376 C-2.6700000762939453,4.132999897003174 -2.9260001182556152,4.230999946594238 -3.181999921798706,4.230999946594238z"></path></g><g opacity="1" transform="matrix(1,0,0,1,630.3709716796875,273.77099609375)"><path fill="rgb(17,59,233)" fillOpacity="1" d=" M3.181999921798706,4.230999946594238 C2.9260001182556152,4.230999946594238 2.6700000762939453,4.132999897003174 2.4749999046325684,3.937999963760376 C2.4749999046325684,3.937999963760376 -3.8889999389648438,-2.4260001182556152 -3.8889999389648438,-2.4260001182556152 C-4.28000020980835,-2.816999912261963 -4.28000020980835,-3.450000047683716 -3.8889999389648438,-3.8399999141693115 C-3.499000072479248,-4.230999946594238 -2.865999937057495,-4.230999946594238 -2.4749999046325684,-3.8399999141693115 C-2.4749999046325684,-3.8399999141693115 3.8889999389648438,2.5239999294281006 3.8889999389648438,2.5239999294281006 C4.28000020980835,2.9149999618530273 4.28000020980835,3.546999931335449 3.8889999389648438,3.937999963760376 C3.694000005722046,4.132999897003174 3.437999963760376,4.230999946594238 3.181999921798706,4.230999946594238z"></path></g><g opacity="1" transform="matrix(1,0,0,1,639.2340087890625,326.6510009765625)"><path fill="rgb(17,59,233)" fillOpacity="1" d=" M7.61899995803833,5.168000221252441 C7.670000076293945,5.317999839782715 7.701000213623047,5.49399995803833 7.7129998207092285,5.695000171661377 C7.72599983215332,5.896999835968018 7.73199987411499,6.085999965667725 7.73199987411499,6.260000228881836 C7.73199987411499,6.7129998207092285 7.679999828338623,7.140999794006348 7.580999851226807,7.543000221252441 C7.479000091552734,7.945000171661377 7.315000057220459,8.29699993133545 7.091000080108643,8.600000381469727 C6.863999843597412,8.899999618530273 6.567999839782715,9.147000312805176 6.204999923706055,9.333999633789062 C5.840000152587891,9.52299976348877 5.38100004196167,9.616999626159668 4.828000068664551,9.616999626159668 C4.301000118255615,9.616999626159668 3.7760000228881836,9.503999710083008 3.263000011444092,9.277000427246094 C2.746999979019165,9.050999641418457 2.11299991607666,8.725000381469727 1.3589999675750732,8.29699993133545 C1.3589999675750732,8.29699993133545 -6.75,3.621000051498413 -6.75,3.621000051498413 C-7.4039998054504395,2.7660000324249268 -7.73199987411499,1.6349999904632568 -7.73199987411499,0.22699999809265137 C-7.73199987411499,-0.8299999833106995 -7.580999851226807,-1.6460000276565552 -7.2779998779296875,-2.2249999046325684 C-6.978000164031982,-2.802999973297119 -6.538000106811523,-3.25600004196167 -5.958000183105469,-3.5820000171661377 C-5.958000183105469,-3.5820000171661377 4.414000034332275,-9.616999626159668 4.414000034332275,-9.616999626159668 C5.644000053405762,-9.288999557495117 6.480000019073486,-8.843999862670898 6.921999931335449,-8.277000427246094 C7.361000061035156,-7.7129998207092285 7.580999851226807,-7.1020002365112305 7.580999851226807,-6.448999881744385 C7.580999851226807,-5.567999839782715 7.361000061035156,-4.882999897003174 6.921999931335449,-4.39300012588501 C6.480000019073486,-3.9019999504089355 5.833000183105469,-3.443000078201294 4.9770002365112305,-3.0179998874664307 C4.9770002365112305,-3.0179998874664307 -1.659000039100647,0.3400000035762787 -1.659000039100647,0.3400000035762787 C-1.659000039100647,0.3400000035762787 7.61899995803833,5.168000221252441 7.61899995803833,5.168000221252441z"></path></g><g opacity="1" transform="matrix(1,0,0,1,654.6019897460938,325.1239929199219)"><path fill="rgb(17,59,233)" fillOpacity="1" d=" M-1.1490000486373901,15.293000221252441 C-1.503000020980835,15.343999862670898 -1.840000033378601,15.375 -2.1670000553131104,15.38700008392334 C-2.494999885559082,15.399999618530273 -2.7950000762939453,15.406000137329102 -3.072999954223633,15.406000137329102 C-4.129000186920166,15.406000137329102 -4.940999984741211,15.180000305175781 -5.505000114440918,14.72700023651123 C-6.072000026702881,14.274999618530273 -6.354000091552734,13.545000076293945 -6.354000091552734,12.538999557495117 C-6.354000091552734,11.861000061035156 -6.255000114440918,11.175999641418457 -6.052000045776367,10.484000205993652 C-5.85099983215332,9.793000221252441 -5.673999786376953,9.184000015258789 -5.52400016784668,8.656000137329102 C-5.52400016784668,8.656000137329102 1.1119999885559082,-15.293000221252441 1.1119999885559082,-15.293000221252441 C1.4910000562667847,-15.342000007629395 1.843000054359436,-15.373000144958496 2.1689999103546143,-15.38700008392334 C2.496000051498413,-15.39799976348877 2.7980000972747803,-15.406000137329102 3.0759999752044678,-15.406000137329102 C4.079999923706055,-15.406000137329102 4.876999855041504,-15.190999984741211 5.468999862670898,-14.765999794006348 C6.059000015258789,-14.336000442504883 6.354000091552734,-13.645999908447266 6.354000091552734,-12.689000129699707 C6.354000091552734,-11.961000442504883 6.254000186920166,-11.269000053405762 6.052999973297119,-10.614999771118164 C5.8520002365112305,-9.963000297546387 5.6620001792907715,-9.309000015258789 5.486999988555908,-8.654000282287598 C5.486999988555908,-8.654000282287598 -1.1490000486373901,15.293000221252441 -1.1490000486373901,15.293000221252441z"></path></g><g opacity="1" transform="matrix(1,0,0,1,669.9710083007812,326.6510009765625)"><path fill="rgb(17,59,233)" fillOpacity="1" d=" M-7.618000030517578,-5.165999889373779 C-7.669000148773193,-5.315999984741211 -7.699999809265137,-5.492000102996826 -7.714000225067139,-5.695000171661377 C-7.724999904632568,-5.894999980926514 -7.73199987411499,-6.084000110626221 -7.73199987411499,-6.260000228881836 C-7.73199987411499,-6.7129998207092285 -7.682000160217285,-7.140999794006348 -7.580999851226807,-7.543000221252441 C-7.480999946594238,-7.945000171661377 -7.316999912261963,-8.29699993133545 -7.091000080108643,-8.597999572753906 C-6.863999843597412,-8.899999618530273 -6.570000171661377,-9.145000457763672 -6.204999923706055,-9.333999633789062 C-5.8420000076293945,-9.520999908447266 -5.382999897003174,-9.616999626159668 -4.828000068664551,-9.616999626159668 C-4.301000118255615,-9.616999626159668 -3.7780001163482666,-9.503999710083008 -3.263000011444092,-9.277000427246094 C-2.746999979019165,-9.050999641418457 -2.11299991607666,-8.725000381469727 -1.3589999675750732,-8.29699993133545 C-1.3589999675750732,-8.29699993133545 6.75,-3.621000051498413 6.75,-3.621000051498413 C7.4019999504089355,-2.7660000324249268 7.73199987411499,-1.6349999904632568 7.73199987411499,-0.22699999809265137 C7.73199987411499,0.8299999833106995 7.578999996185303,1.6460000276565552 7.2779998779296875,2.2249999046325684 C6.97599983215332,2.805000066757202 6.535999774932861,3.25600004196167 5.958000183105469,3.5840001106262207 C5.958000183105469,3.5840001106262207 -4.414000034332275,9.616999626159668 -4.414000034332275,9.616999626159668 C-5.645999908447266,9.289999961853027 -6.48199987411499,8.843999862670898 -6.921999931335449,8.279000282287598 C-7.361000061035156,7.7129998207092285 -7.580999851226807,7.104000091552734 -7.580999851226807,6.448999881744385 C-7.580999851226807,5.570000171661377 -7.361000061035156,4.885000228881836 -6.921999931335449,4.394999980926514 C-6.48199987411499,3.9040000438690186 -5.833000183105469,3.444999933242798 -4.979000091552734,3.0179998874664307 C-4.979000091552734,3.0179998874664307 1.659000039100647,-0.3400000035762787 1.659000039100647,-0.3400000035762787 C1.659000039100647,-0.3400000035762787 -7.618000030517578,-5.165999889373779 -7.618000030517578,-5.165999889373779z"></path></g></g><g opacity="1" transform="matrix(1,0,0,1,600.0770263671875,358.3890075683594)"><path strokeLinecap="butt" strokeLinejoin="miter" fillOpacity="0" strokeMiterlimit="10" stroke="rgb(76,92,152)" strokeOpacity="1" strokeWidth="3" d="M0 0"></path></g><g opacity="1" transform="matrix(1,0,0,1,644.6259765625,347.7879943847656)"><path strokeLinecap="butt" strokeLinejoin="miter" fillOpacity="0" strokeMiterlimit="10" stroke="rgb(76,92,152)" strokeOpacity="1" strokeWidth="3" d=" M4.0920000076293945,0 C4.0920000076293945,2.259999990463257 2.259999990463257,4.0920000076293945 0,4.0920000076293945 C-0.800000011920929,4.0920000076293945 -1.5470000505447388,3.861999988555908 -2.177999973297119,3.4649999141693115"></path></g><g opacity="1" transform="matrix(1,0,0,1,554.8070068359375,368.989013671875)"><path strokeLinecap="butt" strokeLinejoin="miter" fillOpacity="0" strokeMiterlimit="10" stroke="rgb(76,92,152)" strokeOpacity="1" strokeWidth="3" d="M0 0"></path></g></g><g transform="matrix(1,0,0,1,0,0)" opacity="1" style="display: block;"><g opacity="1" transform="matrix(1,0,0,1,0,0)"><g opacity="1" transform="matrix(1,0,0,1,669.4669799804688,450.79998779296875)"><path fill="rgb(255,255,255)" fillOpacity="1" d=" M83.28099822998047,12 C83.28099822998047,12 -83.28099822998047,12 -83.28099822998047,12 C-86.04199981689453,12 -88.28099822998047,9.76099967956543 -88.28099822998047,7 C-88.28099822998047,7 -88.28099822998047,-7 -88.28099822998047,-7 C-88.28099822998047,-9.76200008392334 -86.04199981689453,-12 -83.28099822998047,-12 C-83.28099822998047,-12 83.28099822998047,-12 83.28099822998047,-12 C86.04199981689453,-12 88.28099822998047,-9.76200008392334 88.28099822998047,-7 C88.28099822998047,-7 88.28099822998047,7 88.28099822998047,7 C88.28099822998047,9.76099967956543 86.04199981689453,12 83.28099822998047,12z"></path></g><g opacity="1" transform="matrix(0.7300000190734863,0,0,1,666.8834838867188,450.79901123046875)"><path fill="rgb(168,185,255)" fillOpacity="1" d=" M61.37799835205078,3.181999921798706 C61.37799835205078,3.181999921798706 -61.37799835205078,3.181999921798706 -61.37799835205078,3.181999921798706 C-63.13600158691406,3.181999921798706 -64.55999755859375,1.7580000162124634 -64.55999755859375,0 C-64.55999755859375,-1.7569999694824219 -63.13600158691406,-3.181999921798706 -61.37799835205078,-3.181999921798706 C-61.37799835205078,-3.181999921798706 61.37799835205078,-3.181999921798706 61.37799835205078,-3.181999921798706 C63.13600158691406,-3.181999921798706 64.55999755859375,-1.7569999694824219 64.55999755859375,0 C64.55999755859375,1.7580000162124634 63.13600158691406,3.181999921798706 61.37799835205078,3.181999921798706z"></path></g><g opacity="1" transform="matrix(1,0,0,1,604.843994140625,450.79901123046875)"><path strokeLinecap="round" strokeLinejoin="round" fillOpacity="0" stroke="rgb(17,59,233)" strokeOpacity="1" strokeWidth="2" d=" M3.181999921798706,-3.181999921798706 C3.181999921798706,-3.181999921798706 -3.181999921798706,3.181999921798706 -3.181999921798706,3.181999921798706"></path></g><g opacity="1" transform="matrix(1,0,0,1,604.843994140625,450.79901123046875)"><path strokeLinecap="round" strokeLinejoin="round" fillOpacity="0" stroke="rgb(17,59,233)" strokeOpacity="1" strokeWidth="2" d=" M-3.181999921798706,-3.181999921798706 C-3.181999921798706,-3.181999921798706 3.181999921798706,3.181999921798706 3.181999921798706,3.181999921798706"></path></g><g opacity="1" transform="matrix(1,0,0,1,669.4669799804688,450.79998779296875)"><path strokeLinecap="butt" strokeLinejoin="miter" fillOpacity="0" strokeMiterlimit="10" stroke="rgb(17,59,233)" strokeOpacity="1" strokeWidth="3" d=" M83.28099822998047,12 C83.28099822998047,12 -83.28099822998047,12 -83.28099822998047,12 C-86.04199981689453,12 -88.28099822998047,9.76099967956543 -88.28099822998047,7 C-88.28099822998047,7 -88.28099822998047,-7 -88.28099822998047,-7 C-88.28099822998047,-9.76200008392334 -86.04199981689453,-12 -83.28099822998047,-12 C-83.28099822998047,-12 83.28099822998047,-12 83.28099822998047,-12 C86.04199981689453,-12 88.28099822998047,-9.76200008392334 88.28099822998047,-7 C88.28099822998047,-7 88.28099822998047,7 88.28099822998047,7 C88.28099822998047,9.76099967956543 86.04199981689453,12 83.28099822998047,12z"></path></g><g opacity="1" transform="matrix(1,0,0,1,699.3460083007812,450.79901123046875)"><path fill="rgb(17,59,233)" fillOpacity="1" d=" M10.857999801635742,-3.181999921798706 C10.857999801635742,-3.181999921798706 -14.039999961853027,-3.181999921798706 -14.039999961853027,-3.181999921798706 C-14.039999961853027,-3.181999921798706 -14.039999961853027,3.181999921798706 -14.039999961853027,3.181999921798706 C-14.039999961853027,3.181999921798706 10.857999801635742,3.181999921798706 10.857999801635742,3.181999921798706 C12.616000175476074,3.181999921798706 14.039999961853027,1.7580000162124634 14.039999961853027,0.0010000000474974513 C14.039999961853027,-1.7569999694824219 12.616000175476074,-3.181999921798706 10.857999801635742,-3.181999921798706z"></path></g></g><g opacity="1" transform="matrix(1,0,0,1,563.7319946289062,431.85198974609375)"><path strokeLinecap="butt" strokeLinejoin="miter" fillOpacity="0" strokeMiterlimit="10" stroke="rgb(76,92,152)" strokeOpacity="1" strokeWidth="3" d="M0 0"></path></g><g opacity="1" transform="matrix(1,0,0,1,590.6929931640625,450.79998779296875)"><path strokeLinecap="butt" strokeLinejoin="miter" fillOpacity="0" strokeMiterlimit="10" stroke="rgb(76,92,152)" strokeOpacity="1" strokeWidth="3" d=" M4.0920000076293945,0 C4.0920000076293945,1.2589999437332153 3.5239999294281006,2.384000062942505 2.630000114440918,3.134999990463257"></path></g><g opacity="1" transform="matrix(1,0,0,1,536.8740234375,411.9949951171875)"><path strokeLinecap="butt" strokeLinejoin="miter" fillOpacity="0" strokeMiterlimit="10" stroke="rgb(76,92,152)" strokeOpacity="1" strokeWidth="3" d=" M4.0920000076293945,0.0010000000474974513 C4.0920000076293945,2.259999990463257 2.259999990463257,4.0920000076293945 0,4.0920000076293945 C-2.260999917984009,4.0920000076293945 -4.0920000076293945,2.259999990463257 -4.0920000076293945,0.0010000000474974513 C-4.0920000076293945,-2.259999990463257 -2.260999917984009,-4.0920000076293945 0,-4.0920000076293945 C2.259999990463257,-4.0920000076293945 4.0920000076293945,-2.259999990463257 4.0920000076293945,0.0010000000474974513z"></path></g></g></g></g></svg>