<svg xmlns="http://www.w3.org/2000/svg" enableBackground="new 0 0 2500 2500" viewBox="0 0 2500 2500"><path fill="#dbdee4" d="M1505,1356.1c-0.66,0-1.3-0.34-1.67-0.94c-0.56-0.92-0.26-2.12,0.66-2.67l344.72-207.81
				c4.87-2.83,7.87-8.05,7.87-13.65V834.05c0-1.08,0.88-1.95,1.95-1.95s1.95,0.87,1.95,1.95v296.97c0,6.98-3.75,13.5-9.78,17
				L1506,1355.82C1505.69,1356.01,1505.34,1356.1,1505,1356.1z"/><path fill="#dbdee4" d="M1770.35,1607.5c-3.46,0-6.91-0.89-10-2.67l-216.81-125.23c-0.93-0.54-1.25-1.73-0.72-2.66
				c0.55-0.94,1.74-1.26,2.67-0.71l216.81,125.23c4.98,2.87,11.17,2.86,16.14-0.03l239.45-139.02c0.93-0.54,2.12-0.23,2.67,0.71
				c0.54,0.93,0.23,2.12-0.7,2.67L1780.4,1604.8C1777.3,1606.6,1773.83,1607.5,1770.35,1607.5z"/><path fill="#fff" d="M1991.95,1448.7c-14.09,8.14-14.17,21.34-0.17,29.48c14,8.14,36.78,8.14,50.88,0
						c14.09-8.14,14.16-21.34,0.16-29.48S2006.04,1440.56,1991.95,1448.7z"/><path fill="#dbdee4" d="M2017.18,1486.2c-9.57,0-19.12-2.11-26.38-6.33c-7.37-4.29-11.42-10.1-11.41-16.38
						c0.01-6.32,4.13-12.17,11.6-16.48l0,0c14.6-8.44,38.29-8.44,52.81,0c7.38,4.29,11.43,10.1,11.42,16.38
						c-0.01,6.31-4.13,12.16-11.59,16.47C2036.32,1484.09,2026.75,1486.2,2017.18,1486.2z M2017.42,1444.53
						c-8.86,0-17.73,1.95-24.49,5.86l0,0c-6.21,3.59-9.64,8.24-9.65,13.11c-0.01,4.83,3.36,9.44,9.48,13
						c13.43,7.81,35.38,7.82,48.92,0c6.21-3.59,9.63-8.24,9.64-13.1c0.01-4.82-3.36-9.44-9.49-13
						C2035.11,1446.48,2026.27,1444.53,2017.42,1444.53z M1991.95,1448.7h0.05H1991.95z"/><path fill="#1fb6ff" d="M2017.22,1472.74c5.49,0,10.81-1.25,14.59-3.43c3.03-1.75,4.77-3.9,4.78-5.9c0-1.98-1.7-4.1-4.68-5.83
						c-3.75-2.18-9.04-3.43-14.53-3.43c-5.49,0-10.8,1.25-14.57,3.43c-3.04,1.75-4.78,3.91-4.78,5.91c0,1.98,1.7,4.1,4.68,5.83
						C2006.44,1471.49,2011.73,1472.74,2017.22,1472.74z"/><path fill="#373b42" d="M1893.17,1543.38c5.9,0,11.61-1.34,15.67-3.69c3.26-1.88,5.13-4.19,5.13-6.34c0-2.12-1.83-4.41-5.03-6.27
					c-4.02-2.34-9.71-3.68-15.6-3.68c-5.89,0-11.6,1.34-15.65,3.68c-3.26,1.88-5.13,4.2-5.13,6.35c0,2.12,1.83,4.4,5.02,6.26
					C1881.59,1542.03,1887.28,1543.38,1893.17,1543.38z"/><path fill="#dbdee4" d="M608.49,2025.61c-0.34,0-0.67-0.08-0.97-0.26L355.3,1879.73c-5.87-3.39-9.38-9.46-9.39-16.24
				c-0.01-6.78,3.49-12.86,9.34-16.27l250.45-145.54c0.93-0.54,2.12-0.23,2.67,0.71c0.54,0.93,0.23,2.12-0.7,2.67l-250.45,145.54
				c-4.64,2.7-7.42,7.52-7.41,12.89c0.01,5.38,2.79,10.19,7.44,12.88l252.22,145.61c0.93,0.54,1.25,1.73,0.72,2.66
				C609.81,2025.26,609.16,2025.61,608.49,2025.61z"/><path fill="#fff" d="M576.2,2029.34c-14.1-8.14-14.18-21.34-0.17-29.48c14.01-8.14,36.8-8.14,50.9,0
					c14.1,8.14,14.17,21.34,0.16,29.48S590.3,2037.48,576.2,2029.34z"/><path fill="#dbdee4" d="M601.67,2037.36c-9.56,0-19.14-2.11-26.45-6.33l0,0c-7.47-4.31-11.59-10.17-11.6-16.48
					c-0.01-6.27,4.05-12.09,11.42-16.38c14.54-8.44,38.25-8.44,52.86,0c7.46,4.31,11.58,10.16,11.59,16.47
					c0.01,6.27-4.04,12.09-11.42,16.38C620.8,2035.24,611.25,2037.36,601.67,2037.36z M601.44,1995.69
					c-8.86,0-17.71,1.95-24.43,5.86c-6.12,3.56-9.5,8.17-9.49,13c0.01,4.87,3.44,9.52,9.66,13.11l0,0c13.52,7.81,35.48,7.82,48.93,0
					c6.13-3.56,9.5-8.18,9.49-13c-0.01-4.86-3.43-9.51-9.64-13.1C619.19,1997.64,610.3,1995.69,601.44,1995.69z"/><path fill="#1fb6ff" d="M601.48,2005.3c5.5,0,10.81,1.25,14.59,3.43c3.03,1.75,4.78,3.9,4.78,5.9c0,1.98-1.7,4.1-4.68,5.83
					c-3.75,2.18-9.04,3.43-14.53,3.43c-5.49,0-10.81-1.25-14.58-3.43c-3.04-1.75-4.78-3.91-4.78-5.91c0-1.98,1.7-4.1,4.68-5.83
					C590.7,2006.55,595.99,2005.3,601.48,2005.3z"/><path fill="#373b42" d="M477.38,1934.67c5.9,0,11.61,1.34,15.67,3.69c3.26,1.88,5.13,4.19,5.13,6.34c0,2.12-1.83,4.41-5.03,6.27
				c-4.02,2.34-9.71,3.68-15.61,3.68c-5.9,0-11.6-1.34-15.66-3.68c-3.26-1.88-5.13-4.2-5.14-6.35c0-2.12,1.83-4.4,5.03-6.26
				C465.79,1936.01,471.48,1934.67,477.38,1934.67z"/><path fill="#dbdee4" d="M1084.66,2059.11c-0.67,0-1.32-0.35-1.69-0.98c-0.53-0.93-0.21-2.12,0.72-2.66l244.31-140.63
				c1.99-1.15,3.17-3.21,3.17-5.51c-0.01-2.3-1.2-4.35-3.18-5.5l-283.46-163.66c-0.93-0.54-1.25-1.73-0.72-2.66
				c0.54-0.94,1.74-1.25,2.67-0.71l283.46,163.66c3.21,1.85,5.12,5.17,5.13,8.87c0.01,3.7-1.9,7.03-5.11,8.89l-244.31,140.64
				C1085.32,2059.03,1084.99,2059.11,1084.66,2059.11z"/><path fill="#fff" d="M1115.39,2067.81c14.1-8.14,14.18-21.34,0.17-29.48c-14.01-8.14-36.8-8.14-50.9,0
					c-14.1,8.14-14.17,21.34-0.16,29.48C1078.51,2075.95,1101.29,2075.95,1115.39,2067.81z"/><path fill="#dbdee4" d="M1089.92,2075.83c-9.57,0-19.13-2.11-26.4-6.33c-7.38-4.29-11.43-10.1-11.42-16.38
					c0.01-6.31,4.13-12.16,11.59-16.47c14.62-8.44,38.33-8.44,52.86,0c7.37,4.29,11.42,10.1,11.41,16.38
					c-0.01,6.32-4.13,12.17-11.6,16.48l0,0C1109.06,2073.72,1099.48,2075.83,1089.92,2075.83z M1090.16,2034.16
					c-8.87,0-17.74,1.95-24.52,5.86c-6.21,3.59-9.63,8.24-9.64,13.1c-0.01,4.82,3.36,9.44,9.49,13c13.43,7.8,35.38,7.82,48.93,0
					c6.21-3.59,9.64-8.25,9.65-13.12c0.01-4.82-3.36-9.44-9.48-12.99C1107.87,2036.11,1099.01,2034.16,1090.16,2034.16z
					 M1115.39,2067.81h0.05H1115.39z"/><path fill="#1fb6ff" d="M1090.11,2043.77c-5.5,0-10.81,1.25-14.59,3.43c-3.03,1.75-4.78,3.9-4.78,5.9c0,1.98,1.7,4.1,4.68,5.83
					c3.75,2.18,9.04,3.43,14.53,3.43c5.49,0,10.81-1.25,14.58-3.43c3.04-1.75,4.78-3.91,4.78-5.91c0-1.98-1.7-4.1-4.68-5.83
					C1100.9,2045.02,1095.6,2043.77,1090.11,2043.77z"/><path fill="#373b42" d="M1214.22,1969.16c-5.9,0-11.61,1.34-15.67,3.69c-3.26,1.88-5.13,4.19-5.13,6.34c0,2.12,1.83,4.41,5.03,6.27
				c4.02,2.34,9.71,3.68,15.61,3.68c5.9,0,11.6-1.34,15.66-3.68c3.26-1.88,5.13-4.2,5.14-6.35c0-2.12-1.83-4.4-5.03-6.26
				C1225.8,1970.5,1220.11,1969.16,1214.22,1969.16z"/><path fill="#dbdee4" d="M1834.07,1898.62c-0.33,0-0.66-0.08-0.97-0.26l-615.93-352.83c-0.94-0.53-1.26-1.72-0.72-2.66
				c0.53-0.94,1.71-1.27,2.66-0.72l615.93,352.83c0.94,0.53,1.26,1.72,0.72,2.66C1835.4,1898.27,1834.74,1898.62,1834.07,1898.62z"/><path fill="#373b42" d="M1502.7,1696.44c5.91,0,11.63,1.34,15.69,3.69c3.26,1.88,5.13,4.19,5.14,6.34c0,2.12-1.83,4.41-5.04,6.27
				c-4.03,2.34-9.72,3.68-15.62,3.68c-5.9,0-11.62-1.34-15.67-3.69c-3.26-1.88-5.14-4.2-5.14-6.35c0-2.12,1.83-4.41,5.03-6.27
				C1491.1,1697.78,1496.8,1696.44,1502.7,1696.44z"/><path fill="#bec4cd" d="M1123.25,413.51c-6.51-3.78-15.52-3.3-25.57,2.49l-753.8,435.33l-0.16,0.08
						c-10.45,5.95-19.78,16.57-26.38,28.55c-5.87,10.78-9.57,22.76-9.49,33.54v0.4l1.53,551.86c0,11.26,4.02,19.3,10.46,23.08
						l-55.81-32.49c-6.43-3.7-10.46-11.66-10.46-23.08l-1.61-551.7v-0.56c0-10.86,3.62-22.68,9.57-33.54
						c6.51-11.98,15.84-22.52,26.38-28.63l753.88-435.33c10.13-5.79,19.14-6.27,25.65-2.41L1123.25,413.51z"/><path fill="#373b42" d="M319.82,1490.8c-0.34,0-0.67-0.08-0.98-0.27l-55.81-32.49c-7.36-4.23-11.42-13.03-11.42-24.76L250,881.01
						c0-10.69,3.49-22.94,9.82-34.47c6.99-12.86,16.62-23.29,27.11-29.38l753.89-435.33c10.41-5.95,20.22-6.79,27.62-2.41
						l55.77,32.38c0.01,0.01,0.02,0.01,0.03,0.02h0.01c0.93,0.54,1.24,1.73,0.7,2.67c-0.54,0.93-1.74,1.24-2.66,0.71
						c-6.19-3.6-14.59-2.71-23.63,2.5l-753.8,435.33c-9.88,5.61-18.98,15.48-25.81,27.88c-6.04,11.09-9.32,22.66-9.24,32.58
						l1.52,552.28c0,10.2,3.37,17.79,9.47,21.39l0.02,0.01c0,0,0,0,0.01,0c0.92,0.54,1.23,1.74,0.69,2.66
						C321.14,1490.46,320.49,1490.8,319.82,1490.8z M1057.89,380.56c-4.59,0-9.74,1.56-15.15,4.65L288.87,820.53
						c-9.87,5.73-18.98,15.63-25.64,27.87c-6.02,10.98-9.34,22.55-9.34,32.61v0.56l1.61,551.7c0,10.28,3.37,17.88,9.48,21.39
						l45.51,26.49c-2.02-4.25-3.08-9.45-3.08-15.4l-1.52-551.86c-0.08-10.96,3.37-23.21,9.72-34.88
						c7.17-13.02,16.81-23.43,27.12-29.31l753.96-435.4c5.29-3.05,10.45-4.77,15.23-5.13l-45.47-26.4
						C1063.94,381.3,1061.04,380.56,1057.89,380.56z"/><path fill="#f0f2f5" d="M343.87,851.34l-0.16,0.08c-10.45,5.95-19.78,16.57-26.38,28.55c-5.87,10.78-9.57,22.76-9.49,33.54v0.4
						l-55.89-32.33v-0.56c0-10.86,3.62-22.68,9.57-33.54c6.51-11.98,15.84-22.52,26.38-28.63L343.87,851.34z"/><path d="M341.71,1601.98c-19.86,11.47-19.96,30.1-0.23,41.56l477.51,277.5c19.73,11.47,51.89,11.46,71.75,0l754.01-435.33
						c19.91-11.5,19.96-30.1,0.23-41.56l-477.51-277.5c-19.73-11.47-51.84-11.5-71.75,0L341.71,1601.98z" opacity=".1"/><path fill="#fff" d="M345.47,1486.36c-19.86,11.47-19.96,30.1-0.23,41.56l477.51,277.5c19.73,11.47,51.89,11.47,71.75,0
						l754.01-435.33c19.91-11.5,19.96-30.1,0.23-41.56l-477.51-277.5c-19.73-11.47-51.84-11.5-71.75,0L345.47,1486.36z"/><path fill="#373b42" d="M858.57,1815.94c-13.35,0-26.67-2.94-36.81-8.83l-477.51-277.5c-10.13-5.89-15.71-13.85-15.69-22.4
						c0.01-8.61,5.67-16.61,15.93-22.54l0,0l754.01-435.33c20.38-11.77,53.44-11.77,73.71,0l477.52,277.5
						c10.14,5.9,15.72,13.85,15.72,22.4c-0.02,8.6-5.68,16.6-15.96,22.54l-754.01,435.33
						C885.29,1812.99,871.92,1815.94,858.57,1815.94z M346.44,1488.05L346.44,1488.05c-9.01,5.2-13.97,12.01-13.98,19.17
						c-0.02,7.1,4.87,13.86,13.76,19.02l477.51,277.5c19.17,11.15,50.48,11.15,69.79,0l754.01-435.33
						c9.02-5.21,14-12.02,14.01-19.17c0.01-7.1-4.89-13.85-13.78-19.02l-477.52-277.5c-19.17-11.15-50.48-11.14-69.8,0
						L346.44,1488.05z"/><path fill="#373b42" d="M343.67,851.35c-19.86,11.47-35.94,39.32-35.88,62.14l1.57,552.29c0.06,22.82,16.25,32.04,36.11,20.58
						l754.01-435.33c19.91-11.5,35.94-39.32,35.88-62.14l-1.57-552.29c-0.06-22.82-16.2-32.07-36.11-20.58L343.67,851.35z"/><path fill="#373b42" d="M329.34,1493.25c-3.77,0-7.27-0.89-10.38-2.67c-7.42-4.27-11.51-13.07-11.55-24.79l-1.56-552.3
						c-0.07-23.42,16.46-52.06,36.85-63.83l754.01-435.33c10.29-5.94,20.04-6.83,27.5-2.55c7.41,4.26,11.51,13.07,11.54,24.81
						l1.57,552.29c0.06,23.43-16.47,52.06-36.85,63.83l-754.01,435.33C340.45,1491.51,334.63,1493.25,329.34,1493.25z
						 M344.64,853.03L344.64,853.03c-19.31,11.15-34.97,38.27-34.9,60.44l1.56,552.3c0.03,10.27,3.44,17.88,9.59,21.42
						c6.21,3.57,14.58,2.67,23.59-2.53l754.01-435.33c19.3-11.15,34.97-38.26,34.91-60.45l-1.57-552.29
						c-0.03-10.28-3.43-17.9-9.58-21.44c-6.2-3.56-14.58-2.66-23.61,2.55L344.64,853.03z"/><path fill="#fff" d="M329.34,1442.6c-3.46,0-3.74-7.14-3.75-9.32l-1.57-519.84c-0.05-17.02,12.92-39.47,27.76-48.04
						l754.01-435.33c4.33-2.5,7.07-2.77,8.04-2.77c3.52,0,3.72,7.77,3.72,9.33l1.56,519.84c0.05,17.03-12.93,39.47-27.76,48.04
						l-754.01,435.33C333.05,1442.33,330.32,1442.6,329.34,1442.6z"/><path fill="#373b42" d="M329.34,1444.55c-3.65,0-5.67-4-5.7-11.26l-1.57-519.84c-0.05-17.63,13.38-40.87,28.74-49.73l754-435.33
						c4.57-2.64,7.61-3.03,9.02-3.03c3.57,0,5.63,4.11,5.67,11.27l1.56,519.85c0.05,17.63-13.38,40.87-28.74,49.73l-754.01,435.33
						C333.78,1444.16,330.75,1444.55,329.34,1444.55z M1113.84,429.26c-0.64,0-3.04,0.18-7.07,2.51l-754,435.32
						c-14.32,8.27-26.83,29.92-26.79,46.35l1.57,519.83c0.02,4.91,1.17,7.38,1.8,7.38c0.64,0,3.03-0.18,7.04-2.49l754.01-435.33
						c14.32-8.26,26.83-29.91,26.79-46.34l-1.56-519.84C1115.59,431.86,1114.42,429.26,1113.84,429.26z"/><path fill="#373b42" d="M309.21,1423.26c-0.34,0-0.67-0.08-0.97-0.26l-55.83-32.38c-0.94-0.54-1.25-1.73-0.71-2.67
						c0.53-0.94,1.74-1.25,2.66-0.71l55.83,32.38c0.94,0.54,1.25,1.73,0.71,2.67C310.53,1422.91,309.88,1423.26,309.21,1423.26z"/><path fill="#bec4cd" d="M1663.73,1420.09c0.08,7.55-4.87,15.09-14.93,20.86l-754.02,435.36c-3.17,1.87-6.65,3.33-10.31,4.54
						c-8.36,2.84-17.85,4.14-27.35,3.98h-0.08c-9.09-0.16-18.01-1.7-25.8-4.63c-2.92-1.14-5.68-2.43-8.2-3.9l-477.47-277.45
						c-9.82-5.76-14.77-13.23-14.77-20.77l-0.32-70.76c0.08,7.38,5.03,14.85,14.77,20.61l477.47,277.45
						c2.6,1.54,5.44,2.84,8.52,3.98c7.79,2.92,16.8,4.46,25.8,4.63v-0.08c9.5,0.16,19.07-1.14,27.43-4.06
						c3.57-1.22,6.98-2.68,10.06-4.46l754.02-435.36c9.9-5.68,14.93-13.39,14.93-20.86L1663.73,1420.09z"/><path fill="#373b42" d="M372.58,1616.47c-1.07,0-1.95-0.87-1.95-1.95v-70.68c0-1.08,0.88-1.95,1.95-1.95s1.95,0.87,1.95,1.95
						v70.68C374.53,1615.6,373.66,1616.47,372.58,1616.47z"/><path fill="#373b42" d="M925.44,1860.56c-1.07,0-1.95-0.87-1.95-1.95v-71.09c0-1.08,0.88-1.95,1.95-1.95s1.95,0.87,1.95,1.95
						v71.09C927.39,1859.69,926.52,1860.56,925.44,1860.56z"/><path fill="#dbdee4" d="M884.47,1809.85v71c-8.36,2.84-17.85,4.14-27.35,3.98h-0.08c-9.09-0.16-18.01-1.7-25.8-4.63v-70.84
						c7.79,2.92,16.8,4.46,25.8,4.63v-0.08C866.53,1814.07,876.11,1812.77,884.47,1809.85z"/><g><path fill="#373b42" d="M858.81,1886.79c-0.57,0-1.15,0-1.73-0.02c-13.4-0.26-25.81-3.38-35.03-8.79l-477.46-277.44
						c-10.15-5.95-15.74-13.93-15.74-22.46l-0.32-70.75c-0.01-1.08,0.88-2.19,1.95-1.96c1.07,0,1.94,0.86,1.95,1.93
						c0,0,0,0.01,0,0.01v0c0.08,6.99,4.98,13.72,13.81,18.94l477.46,277.44c8.7,5.06,20.36,8.01,32.87,8.33
						c0.16-0.05,0.1-0.06,0.51-0.07c13.91,0.32,26.84-2.68,36.48-8.26l754.02-435.36c8.87-5.09,13.96-12.08,13.96-19.17
						c0-1.07,0.87-1.95,1.95-1.95l0,0c1.07,0,1.95,0.87,1.95,1.94l0.24,70.92c0.09,8.62-5.56,16.63-15.91,22.55l-754.02,435.35
						C885.97,1883.69,872.91,1886.79,858.81,1886.79z M332.48,1519.16l0.27,58.92c0,7.1,4.9,13.88,13.81,19.1l477.46,277.44
						c8.66,5.08,20.39,8.01,33.05,8.26c14.13,0.26,27.15-2.68,36.72-8.26l754.03-435.36c9.08-5.2,14.03-12,13.95-19.15
						c0-0.01,0-0.01,0-0.02l-0.2-59.08c-2.72,4.02-6.8,7.68-12.05,10.69L895.5,1807.07c-10.13,5.86-23.64,8.97-37.98,8.79
						c-0.17,0.05-0.34,0.05-0.53,0.07c-13.36-0.26-25.87-3.41-35.27-8.86l-477.47-277.44
						C339.12,1526.58,335.14,1523.03,332.48,1519.16z"/></g><g><path fill="#dbdee4" d="M955.82,1532.25c-13.22,7.63-13.29,20-0.16,27.63l117.87,68.5c13.14,7.63,34.48,7.63,47.71,0l220.84-127.5
						c13.29-7.68,13.36-20.04,0.23-27.67l-117.87-68.5c-13.14-7.63-34.48-7.63-47.78,0.04L955.82,1532.25z"/></g><g><path fill="#dbdee4" d="M907.43,1238.18c-4.78,2.76-4.76,7.22-0.06,9.95l45.97,26.72c4.75,2.76,12.41,2.76,17.19,0
																l53.94-31.14c4.78-2.76,4.8-7.2,0.06-9.95l-45.97-26.72c-4.71-2.74-12.4-2.76-17.18,0L907.43,1238.18z"/><path fill="#dbdee4" d="M1005.46,1181.58c-4.78,2.76-4.76,7.22-0.06,9.95l45.97,26.72c4.75,2.76,12.41,2.76,17.19,0
																l53.94-31.14c4.78-2.76,4.8-7.2,0.06-9.95l-45.97-26.72c-4.71-2.74-12.4-2.76-17.18,0L1005.46,1181.58z"/><path fill="#dbdee4" d="M1192.88,1176.93c-4.78,2.76-4.76,7.22-0.06,9.95l45.97,26.72c4.75,2.76,12.41,2.76,17.19,0
																l53.94-31.15c4.78-2.76,4.8-7.19,0.06-9.95l-45.97-26.72c-4.71-2.74-12.41-2.76-17.18,0L1192.88,1176.93z"/><path fill="#dbdee4" d="M1103.49,1124.98c-4.78,2.76-4.76,7.22-0.06,9.95l45.97,26.72c4.75,2.76,12.41,2.76,17.19,0
																l53.94-31.15c4.78-2.76,4.8-7.2,0.06-9.95l-45.97-26.72c-4.71-2.74-12.41-2.76-17.18,0L1103.49,1124.98z"/><path fill="#dbdee4" d="M1094.85,1233.53c-4.78,2.76-4.76,7.22-0.06,9.95l45.97,26.72c4.75,2.76,12.41,2.76,17.19,0
																l53.94-31.14c4.78-2.76,4.8-7.19,0.06-9.95l-45.97-26.72c-4.71-2.74-12.4-2.76-17.18,0L1094.85,1233.53z"/><path fill="#dbdee4" d="M1086.21,1342.08c-4.78,2.76-4.76,7.22-0.06,9.95l45.97,26.72c4.71,2.74,12.4,2.76,17.18,0
																l53.94-31.14c4.78-2.76,4.76-7.22,0.06-9.95l-45.97-26.72c-4.71-2.74-12.41-2.76-17.19,0L1086.21,1342.08z"/><path fill="#dbdee4" d="M996.82,1290.13c-4.78,2.76-4.76,7.22-0.06,9.95l45.97,26.72c4.75,2.76,12.41,2.76,17.19,0
																l53.94-31.14c4.78-2.76,4.8-7.19,0.06-9.95l-45.97-26.72c-4.71-2.74-12.4-2.76-17.18,0L996.82,1290.13z"/><path fill="#dbdee4" d="M515.27,1464.6c-4.74,2.73-4.76,7.22-0.06,9.95l45.97,26.72c4.75,2.76,12.45,2.74,17.19,0
																	l53.99-31.17c4.78-2.76,4.8-7.19,0.06-9.95l-45.97-26.72c-4.71-2.74-12.4-2.76-17.18,0L515.27,1464.6z"/><path fill="#dbdee4" d="M417.24,1521.19c-4.74,2.74-4.76,7.22-0.06,9.95l45.97,26.72c4.75,2.76,12.45,2.74,17.19,0
																	l53.99-31.17c4.78-2.76,4.8-7.19,0.06-9.95l-45.97-26.72c-4.71-2.74-12.4-2.76-17.18,0L417.24,1521.19z"/><path fill="#dbdee4" d="M604.66,1516.54c-4.74,2.73-4.76,7.22-0.06,9.95l45.97,26.72c4.75,2.76,12.45,2.74,17.19,0
																	l53.99-31.17c4.78-2.76,4.8-7.2,0.06-9.95l-45.97-26.72c-4.71-2.74-12.4-2.76-17.18,0L604.66,1516.54z"/><path fill="#dbdee4" d="M506.63,1573.14c-4.74,2.74-4.76,7.22-0.06,9.95l45.97,26.72c4.75,2.76,12.45,2.74,17.19,0
																	l53.99-31.17c4.78-2.76,4.8-7.2,0.06-9.95l-45.97-26.72c-4.71-2.74-12.4-2.76-17.18,0L506.63,1573.14z"/><path fill="#dbdee4" d="M613.3,1408c-4.74,2.74-4.76,7.22-0.06,9.95l45.97,26.72c4.75,2.76,12.45,2.74,17.19,0
																l53.99-31.17c4.78-2.76,4.8-7.2,0.06-9.95l-45.97-26.72c-4.71-2.74-12.41-2.76-17.18,0L613.3,1408z"/><path fill="#dbdee4" d="M596.02,1625.09c-4.74,2.74-4.76,7.22-0.06,9.95l45.97,26.72c4.71,2.74,12.45,2.73,17.18,0
																l53.99-31.17c4.78-2.76,4.76-7.22,0.06-9.95l-45.97-26.72c-4.71-2.74-12.41-2.76-17.19,0L596.02,1625.09z"/><path fill="#dbdee4" d="M694.05,1568.49c-4.74,2.73-4.76,7.22-0.06,9.95l45.97,26.72c4.71,2.74,12.45,2.73,17.18,0
																l53.99-31.17c4.78-2.76,4.76-7.22,0.06-9.95l-45.97-26.72c-4.71-2.74-12.41-2.76-17.19,0L694.05,1568.49z"/><path fill="#dbdee4" d="M792.08,1511.89c-4.74,2.74-4.76,7.22-0.06,9.95l45.97,26.72c4.71,2.74,12.45,2.73,17.18,0
																l250.05-144.37c4.78-2.76,4.76-7.22,0.06-9.95l-45.97-26.72c-4.71-2.74-12.41-2.76-17.19,0L792.08,1511.89z"/><path fill="#dbdee4" d="M800.72,1403.35c-4.74,2.74-4.76,7.22-0.06,9.95l45.97,26.72c4.75,2.76,12.45,2.74,17.19,0
																	l53.99-31.17c4.78-2.76,4.8-7.19,0.06-9.95l-45.97-26.72c-4.71-2.74-12.41-2.76-17.18,0L800.72,1403.35z"/><path fill="#dbdee4" d="M702.69,1459.95c-4.74,2.74-4.76,7.22-0.06,9.95l45.97,26.72c4.75,2.76,12.45,2.74,17.19,0
																	l53.99-31.17c4.78-2.76,4.8-7.19,0.06-9.95l-45.97-26.72c-4.71-2.74-12.41-2.76-17.18,0L702.69,1459.95z"/><path fill="#dbdee4" d="M898.79,1346.73c-4.78,2.76-4.76,7.22-0.06,9.95l45.97,26.72c4.75,2.76,12.41,2.76,17.19,0
																l53.94-31.14c4.78-2.76,4.8-7.19,0.06-9.95l-45.97-26.72c-4.71-2.74-12.41-2.76-17.18,0L898.79,1346.73z"/><g><path fill="#dbdee4" d="M809.4,1294.78c-4.78,2.76-4.76,7.22-0.06,9.95l45.97,26.72c4.75,2.76,12.41,2.76,17.19,0
																l53.94-31.14c4.78-2.76,4.8-7.2,0.06-9.95l-45.97-26.72c-4.71-2.74-12.41-2.76-17.18,0L809.4,1294.78z"/></g><g><path fill="#dbdee4" d="M711.33,1351.4c-4.74,2.74-4.76,7.22-0.06,9.95l45.97,26.72c4.75,2.76,12.45,2.74,17.19,0
																l53.99-31.17c4.78-2.76,4.8-7.2,0.06-9.95l-45.97-26.72c-4.71-2.74-12.41-2.76-17.18,0L711.33,1351.4z"/></g><g><path fill="#dbdee4" d="M1282.27,1228.88c-4.78,2.76-4.76,7.22-0.06,9.95l45.97,26.72c4.71,2.74,12.41,2.76,17.18,0
																l53.94-31.15c4.78-2.76,4.76-7.22,0.06-9.95l-45.97-26.72c-4.71-2.74-12.41-2.76-17.19,0L1282.27,1228.88z"/></g><g><path fill="#dbdee4" d="M1184.24,1285.48c-4.78,2.76-4.76,7.22-0.06,9.95l45.97,26.72c4.71,2.74,12.41,2.76,17.19,0
																l53.94-31.14c4.78-2.76,4.76-7.22,0.06-9.95l-45.97-26.72c-4.71-2.74-12.41-2.76-17.19,0L1184.24,1285.48z"/></g></g><g><path fill="#373b42" d="M1051.55,444.61c-0.34,0-0.67-0.08-0.98-0.26l-55.91-32.46c-0.93-0.54-1.24-1.74-0.7-2.67
					c0.53-0.94,1.72-1.25,2.67-0.71l55.91,32.46c0.93,0.54,1.24,1.74,0.7,2.67C1052.87,444.27,1052.22,444.61,1051.55,444.61z"/></g><g><path fill="#373b42" d="M307.91,1016.13c-0.34,0-0.67-0.08-0.98-0.27l-55.91-32.62c-0.93-0.54-1.24-1.74-0.7-2.67
					c0.53-0.93,1.73-1.25,2.67-0.7l55.91,32.62c0.93,0.54,1.24,1.74,0.7,2.67C309.24,1015.79,308.58,1016.13,307.91,1016.13z"/></g><g><path fill="#373b42" d="M319.82,1490.8c-0.34,0-0.67-0.08-0.98-0.27l-55.81-32.49c-7.36-4.23-11.42-13.03-11.42-24.76L250,881.01
						c0-10.69,3.49-22.94,9.82-34.47c6.99-12.86,16.62-23.29,27.11-29.38l753.89-435.33c10.41-5.95,20.22-6.79,27.62-2.41
						l55.77,32.38c0.01,0.01,0.02,0.01,0.03,0.02h0.01c0.93,0.54,1.24,1.73,0.7,2.67c-0.54,0.93-1.74,1.24-2.66,0.71
						c-6.19-3.6-14.59-2.71-23.63,2.5l-753.8,435.33c-9.88,5.61-18.98,15.48-25.81,27.88c-6.04,11.09-9.32,22.66-9.24,32.58
						l1.52,552.28c0,10.2,3.37,17.79,9.47,21.39l0.02,0.01c0,0,0,0,0.01,0c0.92,0.54,1.23,1.74,0.69,2.66
						C321.14,1490.46,320.49,1490.8,319.82,1490.8z M1057.89,380.56c-4.59,0-9.74,1.56-15.15,4.65L288.87,820.53
						c-9.87,5.73-18.98,15.63-25.64,27.87c-6.02,10.98-9.34,22.55-9.34,32.61v0.56l1.61,551.7c0,10.28,3.37,17.88,9.48,21.39
						l45.51,26.49c-2.02-4.25-3.08-9.45-3.08-15.4l-1.52-551.86c-0.08-10.96,3.37-23.21,9.72-34.88
						c7.17-13.02,16.81-23.43,27.12-29.31l753.96-435.4c5.29-3.05,10.45-4.77,15.23-5.13l-45.47-26.4
						C1063.94,381.3,1061.04,380.56,1057.89,380.56z"/></g><g><path fill="#dbdee4" d="M1057.44,316.21c-7.24-4.25-17.27-3.62-28.35,2.72L481.83,634.94c-5.08,2.93-9.89,6.83-14.35,11.42
										c-11.21,11.49-19.99,27.3-23.54,42.7c-1.18,4.95-1.81,9.89-1.81,14.63l1.25,690.21c0,12.61,4.53,21.38,11.63,25.56
										l-44.51-25.77c-7.1-4.18-11.56-13.03-11.63-25.63l-1.25-690.28c0-4.67,0.56-9.54,1.74-14.49
										c3.55-15.39,12.26-31.14,23.54-42.7c4.39-4.6,9.33-8.57,14.42-11.49l547.27-315.95c11.08-6.41,21.11-6.97,28.35-2.86
										L1057.44,316.21z"/><path fill="#f0f2f5" d="M467.48,646.37c-11.21,11.49-19.99,27.3-23.54,42.7l-44.58-25.77c3.55-15.39,12.26-31.14,23.54-42.7
											L467.48,646.37z"/><path fill="#373b42" d="M455.01,1421.41c-0.34,0-0.67-0.08-0.97-0.26l-44.51-25.77c-8.06-4.74-12.54-14.44-12.61-27.31
										l-1.25-690.29c0-4.94,0.6-9.97,1.79-14.94c3.65-15.79,12.41-31.69,24.05-43.61c4.53-4.75,9.67-8.84,14.84-11.82
										l547.27-315.94c11.28-6.54,22.04-7.55,30.28-2.86l44.45,25.88c0.02,0.01,0.03,0.02,0.05,0.02l0.03,0.02l0,0
										c0.93,0.54,1.24,1.74,0.7,2.67c-0.56,0.93-1.73,1.25-2.67,0.7l0,0c-6.89-4.04-16.26-3.06-26.4,2.73L482.8,636.63
										c-4.74,2.73-9.43,6.46-13.93,11.09c-11,11.27-19.61,26.89-23.04,41.78c-1.17,4.87-1.76,9.64-1.76,14.19l1.25,690.21
										c0,11.35,3.78,19.82,10.66,23.88l0,0c0.01,0,0.01,0,0.02,0.01c0.92,0.54,1.23,1.74,0.69,2.66
										C456.33,1421.07,455.68,1421.41,455.01,1421.41z M1002.51,289.61c-5.16,0-10.94,1.76-16.95,5.24L438.3,610.79
										c-4.85,2.79-9.69,6.65-13.99,11.15c-11,11.27-19.61,26.89-23.06,41.79c-1.12,4.69-1.68,9.42-1.68,14.05l1.25,690.27
										c0.06,11.43,3.85,19.94,10.68,23.96l33.66,19.49c-2.44-4.79-3.72-10.75-3.72-17.6l-1.25-690.21
										c0-4.86,0.62-9.93,1.87-15.09c3.58-15.54,12.57-31.84,24.04-43.6c4.74-4.89,9.72-8.84,14.77-11.75l547.27-316.02
										c6.11-3.5,12.04-5.4,17.48-5.67l-33.64-19.58C1009.16,290.39,1005.97,289.61,1002.51,289.61z"/><path fill="#373b42" d="M442.33,784.76c-0.34,0-0.67-0.08-0.97-0.26l-44.51-25.77c-0.94-0.54-1.25-1.73-0.72-2.67
										c0.54-0.93,1.74-1.25,2.67-0.71l44.51,25.77c0.94,0.54,1.25,1.73,0.72,2.67C443.66,784.41,443,784.76,442.33,784.76z"/><path fill="#373b42" d="M443.31,1362.85c-0.34,0-0.67-0.08-0.98-0.26l-44.51-25.84c-0.93-0.54-1.24-1.74-0.7-2.67
										c0.53-0.94,1.72-1.25,2.67-0.71l44.51,25.84c0.93,0.54,1.24,1.74,0.7,2.67C444.63,1362.51,443.98,1362.85,443.31,1362.85z"/><path fill="#373b42" d="M999.63,337.86c-0.34,0-0.67-0.08-0.97-0.26l-44.44-25.77c-0.94-0.54-1.25-1.73-0.71-2.67
										c0.53-0.94,1.74-1.24,2.66-0.71l44.44,25.77c0.94,0.54,1.25,1.73,0.71,2.67C1000.95,337.52,1000.3,337.86,999.63,337.86z"/><path fill="#373b42" d="M1069.08,341.71c-0.07-25.25-18.01-35.42-39.99-22.73L481.84,634.94
										c-22.03,12.72-39.8,43.5-39.73,68.75l0.22,79l626.96-361.98L1069.08,341.71z"/><path fill="#373b42" d="M442.34,784.64c-0.34,0-0.67-0.09-0.97-0.26c-0.6-0.35-0.97-0.99-0.97-1.69l-0.22-79
										c-0.08-25.84,18.18-57.44,40.7-70.44l547.24-315.95c11.31-6.53,22.06-7.53,30.25-2.81c8.12,4.68,12.62,14.35,12.66,27.22
										c0,0,0,0,0,0l0.22,79c0,0.7-0.37,1.34-0.97,1.69L443.31,784.38C443.01,784.55,442.67,784.64,442.34,784.64z
										 M1046.96,315.45c-5.14,0-10.9,1.75-16.9,5.22L482.82,636.62c-21.44,12.38-38.83,42.46-38.75,67.06l0.21,75.64
										l623.07-359.73l-0.22-77.87c-0.04-11.43-3.84-19.9-10.71-23.86C1053.62,316.25,1050.43,315.45,1046.96,315.45z"/><g><path fill="#fff" d="M442.34,782.69l1.06,611.24c0.07,25.31,17.96,35.51,39.99,22.79l547.25-315.95
										c21.98-12.69,39.8-43.5,39.73-68.81l-1.06-611.24L442.34,782.69z"/><path fill="#373b42" d="M465.49,1424.16c-4.13,0-7.97-0.97-11.37-2.92c-8.13-4.68-12.62-14.38-12.66-27.3l-1.07-611.24
										c0-0.7,0.37-1.34,0.97-1.69l626.96-361.98c0.61-0.35,1.34-0.35,1.95,0c0.6,0.35,0.97,0.99,0.97,1.69l1.07,611.24
										c0.07,25.88-18.19,57.51-40.7,70.5L484.36,1418.4C477.74,1422.23,471.31,1424.16,465.49,1424.16z M444.29,783.81
										l1.07,610.11c0.03,11.48,3.84,19.97,10.71,23.93c6.92,3.99,16.27,3,26.35-2.82l547.25-315.95
										c21.43-12.38,38.82-42.49,38.75-67.12l-1.06-607.87L444.29,783.81z"/></g><g><path fill="#fff" d="M508.29,663.1c9.28-5.36,16.75-1.11,16.78,9.56c0.03,10.58-7.39,23.52-16.67,28.88
											c-9.28,5.36-16.75,1.01-16.78-9.56C491.58,681.31,499,668.46,508.29,663.1z"/><path fill="#fff" d="M578.12,622.77c9.2-5.31,16.75-1.11,16.78,9.56c0.03,10.58-7.47,23.56-16.67,28.88
											c-9.28,5.36-16.75,1.01-16.78-9.56C561.42,640.98,568.84,628.13,578.12,622.77z"/><path fill="#fff" d="M647.97,582.41c9.22-5.33,16.71-1.06,16.74,9.63c0.03,10.6-7.41,23.58-16.63,28.9
											c-9.31,5.37-16.79,1.02-16.82-9.59C631.23,600.66,638.66,587.78,647.97,582.41z"/></g></g><g><path fill="#373b42" d="M1556.87,1494.03c-1.07,0-1.95-0.87-1.95-1.95v-65.42c0-1.08,0.88-1.95,1.95-1.95
				c1.07,0,1.95,0.87,1.95,1.95v65.42C1558.82,1493.16,1557.94,1494.03,1556.87,1494.03z"/></g><g><path fill="#373b42" d="M418.22,1584.14c1.72,0.99,3.13,3.43,3.12,5.44l-0.05,21.47c-0.01,2.01-1.42,2.78-3.14,1.79l-2.48-1.43
				l-0.01,5.91c-0.01,2.01-1.42,2.82-3.14,1.82l-14.81-8.55c-1.72-0.99-3.13-3.43-3.12-5.44l0.01-5.91l-2.48-1.43
				c-1.72-0.99-3.13-3.4-3.12-5.4l0.05-21.47c0.01-2.01,1.42-2.82,3.14-1.82L418.22,1584.14z"/></g><g><path fill="#1fb6ff" d="M483.18,792.93l549.92-317.45c5.5-3.18,12.38,0.78,12.4,7.14l0.76,454.86l-569.48,328.75L476,805.4
						C475.98,800.26,478.73,795.5,483.18,792.93z"/><path fill="#bec4cd" d="M1046.26,937.48l0.24,101.76c0.01,5.49-2.91,10.58-7.67,13.32L494.14,1367
						c-7.61,4.39-17.11-1.08-17.14-9.87l-0.22-90.9L1046.26,937.48z"/><line x1="593.27" x2="1020.88" y1="1262.29" y2="1015.44" fill="#fff"/><path fill="#fff" d="M593.28,1268.13c-2.03,0-3.99-1.05-5.07-2.92c-1.61-2.8-0.65-6.37,2.14-7.99l427.6-246.85
					c2.8-1.63,6.38-0.65,7.99,2.14c1.61,2.8,0.65,6.37-2.14,7.99l-427.6,246.85C595.28,1267.88,594.27,1268.13,593.28,1268.13z"/><path fill="#373b42" d="M675.23,1186.69c13.76-7.94,24.92-1.58,24.97,14.36c0.04,15.81-11.05,35.16-24.81,43.1
						c-13.88,8.01-25.04,1.51-25.09-14.3C650.26,1213.92,661.35,1194.71,675.23,1186.69z"/><line x1="551.49" x2="551.49" y1="1253.53" y2="1314.79" fill="#fff"/><path fill="#fff" d="M551.49,1320.64c-3.23,0-5.85-2.62-5.85-5.85v-61.26c0-3.23,2.62-5.85,5.85-5.85s5.85,2.62,5.85,5.85
						v61.26C557.33,1318.02,554.71,1320.64,551.49,1320.64z"/><g><line x1="513.45" x2="513.45" y1="1275.49" y2="1336.75" fill="#fff"/><path fill="#fff" d="M513.44,1342.6c-3.23,0-5.85-2.62-5.85-5.85v-61.26c0-3.23,2.62-5.85,5.85-5.85
						c3.23,0,5.85,2.62,5.85,5.85v61.26C519.29,1339.98,516.67,1342.6,513.44,1342.6z"/></g><g><path fill="#fff" d="M875.6,815.57c0.22,75.67-52.95,167.88-118.87,205.87c-65.84,38.06-119.39,7.52-119.62-68.15
							c-0.22-75.67,53.03-167.88,118.87-205.95C821.82,709.36,875.45,739.9,875.6,815.57z"/></g><g><path fill="#373b42" d="M740.2,838.94c3.01-1.73,6.08-2.49,8.88-1.86l46.82,10.63c8.9,2.01,8.94,17.08,0.08,29.28l-46.61,64.47
							c-2.79,3.86-5.87,6.66-8.88,8.39c-8.09,4.66-15.67,1.65-15.7-8.87l-0.21-75.1C724.57,855.32,732.11,843.61,740.2,838.94z"/></g></g><g><path fill="#373b42" d="M1929.96,2249.03c-85.75,0-166-19.04-225.98-53.61c-54.74-31.55-84.92-71.6-84.98-112.79
					c-0.05-40.82,29.59-80.51,83.48-111.78c59.51-34.53,139.49-53.54,225.17-53.54c85.73,0,165.96,19.03,225.91,53.58
					c54.76,31.56,84.96,71.64,85.02,112.84c0.06,40.81-29.58,80.51-83.47,111.76C2095.6,2230.02,2015.64,2249.03,1929.96,2249.03z" opacity=".1"/><path fill="#bec4cd" d="M2248.06,1969.59l-0.14,48.1c-0.13,46.95-31.04,93.83-92.8,129.66
								c-124.34,72.13-326.56,72.1-451.71-0.02c-62.96-36.29-94.41-83.93-94.28-131.5l0.14-48.1
								c-0.14,47.57,31.32,95.21,94.28,131.5c125.15,72.13,327.38,72.15,451.71,0.02
								C2217.01,2063.42,2247.92,2016.54,2248.06,1969.59z"/><path fill="#373b42" d="M1929.61,2203.26c-82.16,0-164.42-18.08-227.18-54.25c-61.57-35.49-95.4-82.79-95.25-133.19l0.14-48.1
								c0,0,0,0,0,0c0-1.08,0.88-1.95,1.95-1.95c0,0,0,0,0.01,0c1.07,0,1.94,0.88,1.94,1.95l0,0c-0.14,48.95,32.99,95.04,93.3,129.8
								c124.41,71.71,326.18,71.73,449.76,0.03c59.07-34.27,91.69-79.72,91.82-127.97l0,0c0-1.08,0.88-1.95,1.95-1.95
								c0,0,0,0,0.01,0c1.07,0,1.94,0.88,1.94,1.95l-0.14,48.1c-0.14,49.7-33.44,96.35-93.77,131.34
								C2093.78,2185.18,2011.74,2203.26,1929.61,2203.26z M1611.14,1997.05l-0.05,18.77c-0.14,48.95,32.99,95.04,93.3,129.8
								c124.43,71.71,326.18,71.73,449.76,0.03c59.08-34.27,91.69-79.72,91.82-127.98l0.05-18.82
								c-10.49,38.55-41.48,74.04-89.79,102.07c-124.65,72.32-328.17,72.31-453.66-0.02
								C1653.12,2072.41,1621.57,2036.28,1611.14,1997.05z"/><path fill="#f0f2f5" d="M2153.74,1838.05c125.15,72.13,125.85,189.06,1.52,261.19c-124.34,72.13-326.56,72.1-451.71-0.02
								c-125.1-72.1-125.81-189.04-1.47-261.17C1826.41,1765.92,2028.64,1765.95,2153.74,1838.05z"/><path fill="#373b42" d="M1929.74,2155.16c-82.16,0-164.42-18.08-227.17-54.25c-61.35-35.36-95.18-82.5-95.25-132.73
								c-0.07-49.88,33.24-96.7,93.78-131.82c124.65-72.32,328.14-72.31,453.61,0c61.38,35.38,95.22,82.53,95.29,132.76
								c0.07,49.88-33.23,96.69-93.77,131.8C2093.91,2137.08,2011.88,2155.16,1929.74,2155.16z M1927.6,1785.97
								c-81.43,0-162.75,17.92-224.55,53.77c-59.29,34.4-91.9,80.01-91.83,128.44c0.07,48.78,33.21,94.72,93.3,129.35
								c124.41,71.71,326.18,71.73,449.76,0.03c59.28-34.39,91.89-80,91.82-128.42c-0.07-48.79-33.21-94.74-93.34-129.39
								C2090.57,1803.89,2009.03,1785.97,1927.6,1785.97z"/><path fill="#373b42" d="M2221.45,1806.6l-0.39,137.35c-0.12,43.03-28.45,85.99-85.05,118.82
								c-113.92,66.09-299.22,66.09-413.88,0c-57.7-33.26-86.52-76.91-86.4-120.49l0.39-137.35c-0.12,43.59,28.69,87.24,86.4,120.49
								c114.67,66.09,299.96,66.09,413.88,0C2193,1892.59,2221.33,1849.63,2221.45,1806.6z"/><path fill="#373b42" d="M1929.36,2114.18c-75.3,0-150.68-16.57-208.2-49.72c-56.48-32.55-87.51-75.95-87.37-122.19l0.39-137.35
								c0-1.08,0.88-1.95,1.95-1.95c0,0,0,0,0.01,0c1.07,0,1.94,0.88,1.94,1.95l0,0c-0.12,44.8,30.21,86.98,85.42,118.8
								c113.94,65.67,298.73,65.67,411.93,0c54.09-31.38,83.95-72.98,84.07-117.14c0-1.08,0.88-1.95,1.95-1.95c0,0,0,0,0.01,0
								c1.07,0,1.94,0.88,1.94,1.95l-0.39,137.36c-0.13,45.61-30.68,88.4-86.02,120.51
								C2079.86,2097.61,2004.65,2114.18,1929.36,2114.18z M1638,1833.01l-0.31,109.28c-0.13,44.79,30.2,86.98,85.42,118.8
								c113.94,65.67,298.73,65.67,411.93,0c54.09-31.38,83.95-72.98,84.07-117.14l0.31-109.33c-9.94,34.92-38.22,67.06-82.05,92.49
								c-114.26,66.3-300.81,66.29-415.83,0C1676.68,1901.26,1647.88,1868.56,1638,1833.01z"/><g><ellipse cx="1928.79" cy="1805.76" fill="#fff" rx="169.22" ry="292.66" transform="rotate(-89.838 1928.79 1805.755)"/><path fill="#373b42" d="M1929.74,1976.83c-75.3,0-150.68-16.57-208.2-49.72c-56.28-32.43-87.31-75.68-87.37-121.76
								c-0.07-45.77,30.48-88.72,86.02-120.94c114.26-66.29,300.81-66.29,415.83,0c56.28,32.43,87.31,75.68,87.37,121.76
								c0.07,45.77-30.48,88.72-86.02,120.94C2080.25,1960.25,2005.04,1976.83,1929.74,1976.83z M1927.84,1638.54
								c-74.59,0-149.09,16.42-205.69,49.25c-54.28,31.49-84.13,73.24-84.07,117.56c0.06,44.63,30.4,86.68,85.42,118.38
								c113.94,65.67,298.73,65.67,411.93,0c54.28-31.49,84.13-73.24,84.07-117.56c-0.06-44.63-30.4-86.68-85.42-118.38
								C2077.12,1654.96,2002.42,1638.54,1927.84,1638.54z"/></g><g><path fill="#bec4cd" d="M2248.06,1823.7l-0.14,48.1c-0.13,46.95-31.04,93.83-92.8,129.66c-124.34,72.13-326.56,72.1-451.71-0.02
								c-62.96-36.29-94.41-83.93-94.28-131.5l0.14-48.1c-0.14,47.57,31.32,95.21,94.28,131.5
								c125.15,72.13,327.38,72.15,451.71,0.02C2217.01,1917.54,2247.92,1870.66,2248.06,1823.7z"/><path fill="#373b42" d="M1929.61,2057.38c-82.15,0-164.41-18.08-227.17-54.25c-61.57-35.49-95.4-82.79-95.25-133.19l0.14-48.1
								c0,0,0,0,0,0c0-1.08,0.88-1.95,1.95-1.95c0,0,0,0,0.01,0c1.07,0,1.94,0.88,1.94,1.95l0,0
								c-0.14,48.95,32.99,95.05,93.3,129.81c124.41,71.71,326.18,71.73,449.76,0.03c59.07-34.27,91.69-79.72,91.82-127.97l0,0
								c0-1.08,0.88-1.95,1.95-1.95c0,0,0,0,0.01,0c1.07,0,1.94,0.88,1.94,1.95l-0.14,48.1c-0.14,49.7-33.44,96.34-93.77,131.34
								C2093.78,2039.3,2011.74,2057.38,1929.61,2057.38z M1611.14,1851.17l-0.05,18.77c-0.14,48.95,32.99,95.05,93.3,129.81
								c124.43,71.72,326.18,71.73,449.76,0.03c59.08-34.27,91.69-79.72,91.82-127.97l0.05-18.82
								c-10.49,38.55-41.48,74.04-89.79,102.07c-124.65,72.32-328.17,72.3-453.66-0.02
								C1653.12,1926.53,1621.57,1890.4,1611.14,1851.17z"/><g><path fill="#f0f2f5" d="M2153.74,1692.17c125.15,72.13,125.85,189.06,1.52,261.19c-124.34,72.13-326.56,72.1-451.71-0.02
								c-125.1-72.1-125.81-189.04-1.47-261.17C1826.41,1620.04,2028.64,1620.07,2153.74,1692.17z"/><path fill="#373b42" d="M1929.74,2009.28c-82.16,0-164.42-18.08-227.17-54.25c-61.35-35.36-95.18-82.5-95.25-132.73
								c-0.07-49.88,33.24-96.69,93.78-131.82c124.65-72.32,328.14-72.31,453.61,0c61.38,35.38,95.22,82.53,95.29,132.76
								c0.07,49.88-33.23,96.69-93.77,131.8C2093.91,1991.2,2011.87,2009.28,1929.74,2009.28z M1927.6,1640.09
								c-81.43,0-162.75,17.92-224.55,53.77c-59.29,34.39-91.9,80.01-91.83,128.43c0.07,48.78,33.2,94.72,93.3,129.36
								c124.41,71.71,326.18,71.73,449.76,0.03c59.28-34.39,91.89-80,91.82-128.42c-0.07-48.79-33.21-94.74-93.34-129.39
								C2090.57,1658.01,2009.03,1640.09,1927.6,1640.09z"/><g><path fill="#f0f2f5" d="M1929.75,1977.95c-80.23,0-155.31-17.81-211.43-50.16c-51.21-29.52-79.45-66.99-79.5-105.53
								c-0.05-38.19,27.68-75.33,78.1-104.58c55.68-32.3,130.5-50.09,210.67-50.09c80.21,0,155.27,17.8,211.36,50.13
								c51.24,29.53,79.49,67.02,79.54,105.57c0.06,38.18-27.68,75.32-78.09,104.56
								C2084.73,1960.16,2009.91,1977.95,1929.75,1977.95z"/><path fill="#373b42" d="M1929.75,1979.9c-80.55,0-155.98-17.91-212.4-50.42c-51.84-29.88-80.42-67.96-80.48-107.22
								c-0.05-38.92,28.03-76.66,79.08-106.27c55.96-32.47,131.13-50.35,211.65-50.35c80.54,0,155.95,17.89,212.34,50.39
								c51.87,29.9,80.46,67.99,80.52,107.25c0.05,38.91-28.02,76.65-79.07,106.26C2085.42,1962.01,2010.26,1979.9,1929.75,1979.9z
								 M1927.6,1669.54c-79.84,0-154.31,17.7-209.7,49.83c-49.78,28.88-77.18,65.42-77.13,102.89
								c0.05,37.81,27.94,74.69,78.53,103.84c55.83,32.18,130.57,49.9,210.45,49.9c79.83,0,154.29-17.7,209.68-49.83
								c49.78-28.88,77.17-65.41,77.12-102.88c-0.05-37.81-27.95-74.71-78.57-103.88
								C2082.19,1687.25,2007.47,1669.54,1927.6,1669.54z"/></g></g></g><g><path fill="#373b42" d="M2097.74,1722.48c21.42,12.34,21.53,32.31,0.3,44.63c-21.28,12.34-55.81,12.34-77.23,0
							c-21.37-12.32-21.49-32.29-0.21-44.63C2041.84,1710.16,2076.37,1710.16,2097.74,1722.48z"/><path fill="#373b42" d="M1788.21,1770.45c13.38,7.71,19.49,19.22,14.34,30.51c-7.73,16.87-37.61,26.85-66.72,22.33
							c-9.61-1.49-17.95-4.37-24.53-8.16c-13.39-7.72-19.49-19.22-14.31-30.5c7.69-16.84,37.57-26.83,66.73-22.33
							C1773.32,1763.79,1781.64,1766.67,1788.21,1770.45z"/><path fill="#373b42" d="M1918.78,1694.77c6.57,3.79,11.58,8.6,14.19,14.15c7.88,16.84-9.29,34.15-38.39,38.65
							c-19.52,3.02-39.44-0.48-52.82-8.19c-6.57-3.79-11.56-8.59-14.16-14.14c-7.92-16.82,9.29-34.15,38.39-38.65
							C1885.48,1683.57,1905.39,1687.06,1918.78,1694.77z"/><path fill="#373b42" d="M1836.73,1873.9c21.42,12.34,21.49,32.34,0.25,44.66c-21.24,12.32-55.81,12.34-77.23,0
							c-21.37-12.32-21.45-32.31-0.21-44.63C1780.78,1861.6,1815.35,1861.58,1836.73,1873.9z"/><path fill="#373b42" d="M2015.83,1901.64c6.57,3.79,11.56,8.59,14.16,14.14c7.88,16.84-9.29,34.15-38.4,38.65
							c-19.49,3.03-39.42-0.47-52.81-8.18c-6.57-3.79-11.57-8.6-14.17-14.14c-7.92-16.82,9.25-34.13,38.39-38.65
							C1982.53,1890.43,2002.45,1893.93,2015.83,1901.64z"/><path fill="#373b42" d="M2160.57,1856.37c0,0.07-0.07,0.07-0.07,0.15c-0.37,0.81-0.81,1.62-1.26,2.36
							c-9.38,15.34-37.76,24.12-65.39,19.84c-9.61-1.47-17.88-4.35-24.46-8.11c-5.84-3.39-10.34-7.45-12.93-11.95
							c-0.52-0.81-0.89-1.55-1.26-2.36c-2.51-5.16-2.66-10.69-0.15-16.23c7.68-16.82,37.54-26.85,66.72-22.35
							c9.61,1.47,17.88,4.35,24.46,8.19C2159.68,1833.58,2165.74,1845.08,2160.57,1856.37z"/></g><g><path fill="#1fb6ff" d="M1993.19,1778.14c5.02,2.89,5.04,7.52,0.06,10.41c-4.93,2.86-12.94,2.86-17.95-0.03
							c-4.96-2.86-5.05-7.52-0.11-10.38C1980.17,1775.25,1988.23,1775.28,1993.19,1778.14z"/><path fill="#1fb6ff" d="M1943.62,1766.28c2.31,1.33,3.75,3.17,3.79,5.21c0.02,4.05-5.68,7.36-12.69,7.36
							c-3.53-0.02-6.72-0.84-9.02-2.17c-2.31-1.33-3.74-3.16-3.75-5.19c-0.08-4.08,5.63-7.39,12.69-7.36
							C1938.14,1764.13,1941.31,1764.95,1943.62,1766.28z"/><ellipse cx="1885.17" cy="1783.35" fill="#1fb6ff" rx="7.36" ry="12.73" transform="matrix(.00283 -1 1 .00283 96.498 3663.472)"/><path fill="#1fb6ff" d="M1873.8,1806.79c2.31,1.33,3.74,3.18,3.75,5.23c0.02,4.05-5.63,7.33-12.69,7.36
							c-3.53-0.02-6.72-0.84-9.02-2.17c-2.31-1.33-3.73-3.16-3.75-5.19c-0.02-4.11,5.63-7.39,12.69-7.36
							C1868.31,1804.64,1871.49,1805.46,1873.8,1806.79z"/><ellipse cx="1885.49" cy="1840.62" fill="#1fb6ff" rx="7.36" ry="12.73" transform="matrix(.00283 -1 1 .00283 39.547 3720.906)"/><path fill="#1fb6ff" d="M1944.08,1847.29c2.31,1.33,3.74,3.18,3.73,5.22c0.08,4.08-5.57,7.36-12.69,7.36c-3.5,0-6.69-0.83-9-2.16
							c-2.31-1.33-3.75-3.17-3.77-5.2c0.03-4.08,5.69-7.36,12.69-7.36C1938.57,1845.14,1941.77,1845.96,1944.08,1847.29z"/><ellipse cx="1984.59" cy="1840.65" fill="#1fb6ff" rx="7.36" ry="12.73" transform="matrix(.00283 -1 1 .00283 138.34 3820.04)"/><path fill="#1fb6ff" d="M2013.9,1806.79c2.31,1.33,3.76,3.17,3.77,5.2c0.08,4.08-5.63,7.39-12.69,7.36c-3.5,0-6.69-0.83-9-2.16
							s-3.76-3.17-3.77-5.2c-0.02-4.05,5.68-7.36,12.69-7.36C2008.4,1804.63,2011.59,1805.45,2013.9,1806.79z"/></g><g><path fill="#1fb6ff" d="M1956.62,1799.46c7.5,4.32,10.93,10.77,8.03,17.09c-4.31,9.44-21.07,15.05-37.39,12.51
						c-5.38-0.83-10.04-2.44-13.73-4.56c-7.5-4.32-10.92-10.77-8.03-17.1c4.31-9.44,21.05-15.03,37.39-12.51
						C1948.27,1795.73,1952.94,1797.34,1956.62,1799.46z"/></g></g><g opacity=".1"><path fill="#373b42" d="M1929.96,2249.03c-85.75,0-166-19.04-225.98-53.61c-54.74-31.55-84.92-71.6-84.98-112.79
				c-0.05-40.82,29.59-80.51,83.48-111.78c59.51-34.53,139.49-53.54,225.17-53.54c85.73,0,165.96,19.03,225.91,53.58
				c54.76,31.56,84.96,71.64,85.02,112.84c0.06,40.81-29.58,80.51-83.47,111.76C2095.6,2230.02,2015.64,2249.03,1929.96,2249.03z"/></g><g><path fill="#bec4cd" d="M2248.06,1969.59l-0.14,48.1c-0.13,46.95-31.04,93.83-92.8,129.66c-124.34,72.13-326.56,72.1-451.71-0.02
							c-62.96-36.29-94.41-83.93-94.28-131.5l0.14-48.1c-0.14,47.57,31.32,95.21,94.28,131.5c125.15,72.13,327.38,72.15,451.71,0.02
							C2217.01,2063.42,2247.92,2016.54,2248.06,1969.59z"/><path fill="#373b42" d="M1929.61,2203.26c-82.16,0-164.42-18.08-227.18-54.25c-61.57-35.49-95.4-82.79-95.25-133.19l0.14-48.1
							c0,0,0,0,0,0c0-1.08,0.88-1.95,1.95-1.95c0,0,0,0,0.01,0c1.07,0,1.94,0.88,1.94,1.95l0,0c-0.14,48.95,32.99,95.04,93.3,129.8
							c124.41,71.71,326.18,71.73,449.76,0.03c59.07-34.27,91.69-79.72,91.82-127.97l0,0c0-1.08,0.88-1.95,1.95-1.95c0,0,0,0,0.01,0
							c1.07,0,1.94,0.88,1.94,1.95l-0.14,48.1c-0.14,49.7-33.44,96.35-93.77,131.34
							C2093.78,2185.18,2011.74,2203.26,1929.61,2203.26z M1611.14,1997.05l-0.05,18.77c-0.14,48.95,32.99,95.04,93.3,129.8
							c124.43,71.71,326.18,71.73,449.76,0.03c59.08-34.27,91.69-79.72,91.82-127.98l0.05-18.82
							c-10.49,38.55-41.48,74.04-89.79,102.07c-124.65,72.32-328.17,72.31-453.66-0.02
							C1653.12,2072.41,1621.57,2036.28,1611.14,1997.05z"/><g><path fill="#f0f2f5" d="M2153.74,1838.05c125.15,72.13,125.85,189.06,1.52,261.19c-124.34,72.13-326.56,72.1-451.71-0.02
							c-125.1-72.1-125.81-189.04-1.47-261.17C1826.41,1765.92,2028.64,1765.95,2153.74,1838.05z"/><path fill="#373b42" d="M1929.74,2155.16c-82.16,0-164.42-18.08-227.17-54.25c-61.35-35.36-95.18-82.5-95.25-132.73
							c-0.07-49.88,33.24-96.7,93.78-131.82c124.65-72.32,328.14-72.31,453.61,0c61.38,35.38,95.22,82.53,95.29,132.76
							c0.07,49.88-33.23,96.69-93.77,131.8C2093.91,2137.08,2011.88,2155.16,1929.74,2155.16z M1927.6,1785.97
							c-81.43,0-162.75,17.92-224.55,53.77c-59.29,34.4-91.9,80.01-91.83,128.44c0.07,48.78,33.21,94.72,93.3,129.35
							c124.41,71.71,326.18,71.73,449.76,0.03c59.28-34.39,91.89-80,91.82-128.42c-0.07-48.79-33.21-94.74-93.34-129.39
							C2090.57,1803.89,2009.03,1785.97,1927.6,1785.97z"/></g></g><g><path fill="#373b42" d="M2221.45,1806.6l-0.39,137.35c-0.12,43.03-28.45,85.99-85.05,118.82c-113.92,66.09-299.22,66.09-413.88,0
							c-57.7-33.26-86.52-76.91-86.4-120.49l0.39-137.35c-0.12,43.59,28.69,87.24,86.4,120.49c114.67,66.09,299.96,66.09,413.88,0
							C2193,1892.59,2221.33,1849.63,2221.45,1806.6z"/><path fill="#373b42" d="M1929.36,2114.18c-75.3,0-150.68-16.57-208.2-49.72c-56.48-32.55-87.51-75.95-87.37-122.19l0.39-137.35
							c0-1.08,0.88-1.95,1.95-1.95c0,0,0,0,0.01,0c1.07,0,1.94,0.88,1.94,1.95l0,0c-0.12,44.8,30.21,86.98,85.42,118.8
							c113.94,65.67,298.73,65.67,411.93,0c54.09-31.38,83.95-72.98,84.07-117.14c0-1.08,0.88-1.95,1.95-1.95c0,0,0,0,0.01,0
							c1.07,0,1.94,0.88,1.94,1.95l-0.39,137.36c-0.13,45.61-30.68,88.4-86.02,120.51
							C2079.86,2097.61,2004.65,2114.18,1929.36,2114.18z M1638,1833.01l-0.31,109.28c-0.13,44.79,30.2,86.98,85.42,118.8
							c113.94,65.67,298.73,65.67,411.93,0c54.09-31.38,83.95-72.98,84.07-117.14l0.31-109.33c-9.94,34.92-38.22,67.06-82.05,92.49
							c-114.26,66.3-300.81,66.29-415.83,0C1676.68,1901.26,1647.88,1868.56,1638,1833.01z"/><g><ellipse cx="1928.79" cy="1805.76" fill="#fff" rx="169.22" ry="292.66" transform="rotate(-89.838 1928.79 1805.755)"/><path fill="#373b42" d="M1929.74,1976.83c-75.3,0-150.68-16.57-208.2-49.72c-56.28-32.43-87.31-75.68-87.37-121.76
							c-0.07-45.77,30.48-88.72,86.02-120.94c114.26-66.29,300.81-66.29,415.83,0c56.28,32.43,87.31,75.68,87.37,121.76
							c0.07,45.77-30.48,88.72-86.02,120.94C2080.25,1960.25,2005.04,1976.83,1929.74,1976.83z M1927.84,1638.54
							c-74.59,0-149.09,16.42-205.69,49.25c-54.28,31.49-84.13,73.24-84.07,117.56c0.06,44.63,30.4,86.68,85.42,118.38
							c113.94,65.67,298.73,65.67,411.93,0c54.28-31.49,84.13-73.24,84.07-117.56c-0.06-44.63-30.4-86.68-85.42-118.38
							C2077.12,1654.96,2002.42,1638.54,1927.84,1638.54z"/></g></g><g><path fill="#bec4cd" d="M2248.06,1823.7l-0.14,48.1c-0.13,46.95-31.04,93.83-92.8,129.66c-124.34,72.13-326.56,72.1-451.71-0.02
							c-62.96-36.29-94.41-83.93-94.28-131.5l0.14-48.1c-0.14,47.57,31.32,95.21,94.28,131.5c125.15,72.13,327.38,72.15,451.71,0.02
							C2217.01,1917.54,2247.92,1870.66,2248.06,1823.7z"/><path fill="#373b42" d="M1929.61,2057.38c-82.15,0-164.41-18.08-227.17-54.25c-61.57-35.49-95.4-82.79-95.25-133.19l0.14-48.1
							c0,0,0,0,0,0c0-1.08,0.88-1.95,1.95-1.95c0,0,0,0,0.01,0c1.07,0,1.94,0.88,1.94,1.95l0,0c-0.14,48.95,32.99,95.05,93.3,129.81
							c124.41,71.71,326.18,71.73,449.76,0.03c59.07-34.27,91.69-79.72,91.82-127.97l0,0c0-1.08,0.88-1.95,1.95-1.95c0,0,0,0,0.01,0
							c1.07,0,1.94,0.88,1.94,1.95l-0.14,48.1c-0.14,49.7-33.44,96.34-93.77,131.34C2093.78,2039.3,2011.74,2057.38,1929.61,2057.38
							z M1611.14,1851.17l-0.05,18.77c-0.14,48.95,32.99,95.05,93.3,129.81c124.43,71.72,326.18,71.73,449.76,0.03
							c59.08-34.27,91.69-79.72,91.82-127.97l0.05-18.82c-10.49,38.55-41.48,74.04-89.79,102.07
							c-124.65,72.32-328.17,72.3-453.66-0.02C1653.12,1926.53,1621.57,1890.4,1611.14,1851.17z"/><g><path fill="#f0f2f5" d="M2153.74,1692.17c125.15,72.13,125.85,189.06,1.52,261.19c-124.34,72.13-326.56,72.1-451.71-0.02
							c-125.1-72.1-125.81-189.04-1.47-261.17C1826.41,1620.04,2028.64,1620.07,2153.74,1692.17z"/><path fill="#373b42" d="M1929.74,2009.28c-82.16,0-164.42-18.08-227.17-54.25c-61.35-35.36-95.18-82.5-95.25-132.73
							c-0.07-49.88,33.24-96.69,93.78-131.82c124.65-72.32,328.14-72.31,453.61,0c61.38,35.38,95.22,82.53,95.29,132.76
							c0.07,49.88-33.23,96.69-93.77,131.8C2093.91,1991.2,2011.87,2009.28,1929.74,2009.28z M1927.6,1640.09
							c-81.43,0-162.75,17.92-224.55,53.77c-59.29,34.39-91.9,80.01-91.83,128.43c0.07,48.78,33.2,94.72,93.3,129.36
							c124.41,71.71,326.18,71.73,449.76,0.03c59.28-34.39,91.89-80,91.82-128.42c-0.07-48.79-33.21-94.74-93.34-129.39
							C2090.57,1658.01,2009.03,1640.09,1927.6,1640.09z"/><g><path fill="#f0f2f5" d="M1929.75,1977.95c-80.23,0-155.31-17.81-211.43-50.16c-51.21-29.52-79.45-66.99-79.5-105.53
							c-0.05-38.19,27.68-75.33,78.1-104.58c55.68-32.3,130.5-50.09,210.67-50.09c80.21,0,155.27,17.8,211.36,50.13
							c51.24,29.53,79.49,67.02,79.54,105.57c0.06,38.18-27.68,75.32-78.09,104.56C2084.73,1960.16,2009.91,1977.95,1929.75,1977.95
							z"/><path fill="#373b42" d="M1929.75,1979.9c-80.55,0-155.98-17.91-212.4-50.42c-51.84-29.88-80.42-67.96-80.48-107.22
							c-0.05-38.92,28.03-76.66,79.08-106.27c55.96-32.47,131.13-50.35,211.65-50.35c80.54,0,155.95,17.89,212.34,50.39
							c51.87,29.9,80.46,67.99,80.52,107.25c0.05,38.91-28.02,76.65-79.07,106.26C2085.42,1962.01,2010.26,1979.9,1929.75,1979.9z
							 M1927.6,1669.54c-79.84,0-154.31,17.7-209.7,49.83c-49.78,28.88-77.18,65.42-77.13,102.89
							c0.05,37.81,27.94,74.69,78.53,103.84c55.83,32.18,130.57,49.9,210.45,49.9c79.83,0,154.29-17.7,209.68-49.83
							c49.78-28.88,77.17-65.41,77.12-102.88c-0.05-37.81-27.95-74.71-78.57-103.88C2082.19,1687.25,2007.47,1669.54,1927.6,1669.54
							z"/></g></g></g><g><path fill="#373b42" d="M2098.04,1767.09c-21.31,12.39-55.85,12.39-77.24,0c-0.82-0.49-1.55-0.9-2.29-1.47
						c-19.11-12.31-18.37-31.3,2.12-43.12c21.23-12.39,55.77-12.39,77.08,0c7.1,4.08,11.92,9.05,14.29,14.26
						C2116.91,1747.28,2112.25,1758.86,2098.04,1767.09z"/><path fill="#373b42" d="M1802.54,1801c-7.76,16.87-37.56,26.81-66.71,22.33c-9.64-1.55-17.96-4.4-24.5-8.15
						c-0.82-0.49-1.63-0.98-2.37-1.47c-11.76-7.66-16.82-18.42-12-29.1c7.76-16.79,37.64-26.81,66.79-22.33
						c9.55,1.55,17.88,4.4,24.5,8.15c6.78,3.91,11.68,8.88,14.13,14.26C1804.91,1789.91,1805.07,1795.45,1802.54,1801z"/><path fill="#373b42" d="M1894.56,1747.61c-19.52,3.02-39.44-0.49-52.83-8.23c-0.74-0.41-1.47-0.9-2.2-1.39
						c-5.47-3.5-9.63-7.82-11.92-12.71c-7.92-16.87,9.31-34.15,38.38-38.71c19.52-3.02,39.44,0.49,52.83,8.23
						c6.53,3.75,11.51,8.56,14.13,14.1c0.08,0.08,0.08,0.08,0.08,0.08C1940.78,1725.85,1923.63,1743.05,1894.56,1747.61z"/><path fill="#373b42" d="M1837,1918.53c-21.23,12.31-55.85,12.39-77.24,0c-0.82-0.49-1.55-0.9-2.29-1.47
						c-19.11-12.31-18.37-31.3,2.04-43.12c21.23-12.31,55.85-12.39,77.24-0.08c7.19,4.08,11.92,9.05,14.21,14.34
						C1855.86,1898.72,1851.12,1910.29,1837,1918.53z"/><path fill="#373b42" d="M1991.57,1954.47c-19.43,3.02-39.36-0.49-52.75-8.23c-0.82-0.49-1.55-0.9-2.29-1.39l-0.08-0.08
						c-5.47-3.51-9.55-7.74-11.84-12.63c-7.92-16.87,9.23-34.15,38.38-38.71c19.52-3.02,39.44,0.49,52.83,8.23
						c6.61,3.75,11.6,8.56,14.21,14.1l0.08,0.08C2037.78,1932.71,2020.64,1949.9,1991.57,1954.47z"/><path fill="#373b42" d="M2160.59,1856.34c0,0.08-0.08,0.08-0.08,0.16c-0.41,0.81-0.82,1.63-1.31,2.36
						c-9.31,15.32-37.72,24.13-65.32,19.89c-9.63-1.55-17.88-4.4-24.5-8.15c-0.73-0.41-1.47-0.9-2.12-1.3
						c-0.08,0-0.08-0.08-0.08-0.08c-4.74-3.1-8.49-6.6-10.7-10.6c-0.57-0.82-0.9-1.55-1.31-2.36c-2.45-5.13-2.61-10.68-0.08-16.22
						c7.68-16.79,37.48-26.81,66.71-22.33c9.55,1.47,17.88,4.4,24.41,8.23c6.86,3.91,11.84,8.8,14.21,14.18
						C2162.96,1845.25,2163.12,1850.88,2160.59,1856.34z"/></g><g><path fill="#bec4cd" d="M2098.04,1767.09c-21.31,12.39-55.85,12.39-77.24,0c-0.82-0.49-1.55-0.9-2.29-1.47
						c-4.9-10.51-0.25-22.17,13.96-30.4c21.23-12.31,55.77-12.31,77.16,0c0.82,0.49,1.63,0.98,2.37,1.55
						C2116.91,1747.28,2112.25,1758.86,2098.04,1767.09z"/><path fill="#bec4cd" d="M1802.54,1801c-7.76,16.87-37.56,26.81-66.71,22.33c-9.64-1.55-17.96-4.4-24.5-8.15
						c-0.82-0.49-1.63-0.98-2.37-1.47c-2.45-5.22-2.61-10.76-0.08-16.3c7.67-16.87,37.56-26.82,66.71-22.33
						c9.64,1.47,17.96,4.32,24.5,8.15c0.82,0.49,1.55,0.9,2.29,1.47C1804.91,1789.91,1805.07,1795.45,1802.54,1801z"/><path fill="#bec4cd" d="M1894.56,1747.61c-19.52,3.02-39.44-0.49-52.83-8.23c-0.74-0.41-1.47-0.9-2.2-1.39
						c-7.92-16.79,9.23-34.15,38.38-38.63c19.52-3.02,39.36,0.49,52.75,8.15c0.82,0.49,1.55,0.98,2.29,1.39
						c0.08,0.08,0.08,0.08,0.08,0.08C1940.78,1725.85,1923.63,1743.05,1894.56,1747.61z"/><path fill="#bec4cd" d="M1837,1918.53c-21.23,12.31-55.85,12.39-77.24,0c-0.82-0.49-1.55-0.9-2.29-1.47
						c-4.9-10.51-0.25-22.17,13.96-30.4c21.23-12.31,55.85-12.31,77.16,0c0.82,0.49,1.63,0.98,2.37,1.55
						C1855.86,1898.72,1851.12,1910.29,1837,1918.53z"/><path fill="#bec4cd" d="M1991.57,1954.47c-19.43,3.02-39.36-0.49-52.75-8.23c-0.82-0.49-1.55-0.9-2.29-1.39l-0.08-0.08
						c-7.76-16.79,9.39-34.07,38.46-38.55c19.52-3.02,39.44,0.49,52.83,8.15c0.82,0.49,1.55,0.98,2.29,1.39l0.08,0.08
						C2037.78,1932.71,2020.64,1949.9,1991.57,1954.47z"/><path fill="#bec4cd" d="M2160.59,1856.34c0,0.08-0.08,0.08-0.08,0.16c-0.41,0.81-0.82,1.63-1.31,2.36
						c-9.31,15.32-37.72,24.13-65.32,19.89c-9.63-1.55-17.88-4.4-24.5-8.15c-0.73-0.41-1.47-0.9-2.12-1.3
						c-0.08,0-0.08-0.08-0.08-0.08c0-0.08-0.08-0.08-0.08-0.16c-2.53-5.13-2.61-10.68-0.16-16.22
						c7.68-16.79,37.56-26.81,66.71-22.33c9.63,1.47,17.88,4.32,24.5,8.15c0.82,0.41,1.55,0.9,2.29,1.47
						C2162.96,1845.25,2163.12,1850.88,2160.59,1856.34z"/></g><g><path fill="#1fb6ff" d="M1993.19,1778.14c5.02,2.89,5.04,7.52,0.06,10.41c-4.93,2.86-12.94,2.86-17.95-0.03
						c-4.96-2.86-5.05-7.52-0.11-10.38C1980.17,1775.25,1988.23,1775.28,1993.19,1778.14z"/><path fill="#1fb6ff" d="M1943.62,1766.28c2.31,1.33,3.75,3.17,3.79,5.21c0.02,4.05-5.68,7.36-12.69,7.36
						c-3.53-0.02-6.72-0.84-9.02-2.17c-2.31-1.33-3.74-3.16-3.75-5.19c-0.08-4.08,5.63-7.39,12.69-7.36
						C1938.14,1764.13,1941.31,1764.95,1943.62,1766.28z"/><ellipse cx="1885.17" cy="1783.35" fill="#1fb6ff" rx="7.36" ry="12.73" transform="matrix(.00283 -1 1 .00283 96.498 3663.472)"/><path fill="#1fb6ff" d="M1873.8,1806.79c2.31,1.33,3.74,3.18,3.75,5.23c0.02,4.05-5.63,7.33-12.69,7.36
						c-3.53-0.02-6.72-0.84-9.02-2.17c-2.31-1.33-3.73-3.16-3.75-5.19c-0.02-4.11,5.63-7.39,12.69-7.36
						C1868.31,1804.64,1871.49,1805.46,1873.8,1806.79z"/><ellipse cx="1885.49" cy="1840.62" fill="#1fb6ff" rx="7.36" ry="12.73" transform="matrix(.00283 -1 1 .00283 39.547 3720.906)"/><path fill="#1fb6ff" d="M1944.08,1847.29c2.31,1.33,3.74,3.18,3.73,5.22c0.08,4.08-5.57,7.36-12.69,7.36c-3.5,0-6.69-0.83-9-2.16
						c-2.31-1.33-3.75-3.17-3.77-5.2c0.03-4.08,5.69-7.36,12.69-7.36C1938.57,1845.14,1941.77,1845.96,1944.08,1847.29z"/><ellipse cx="1984.59" cy="1840.65" fill="#1fb6ff" rx="7.36" ry="12.73" transform="matrix(.00283 -1 1 .00283 138.34 3820.04)"/><path fill="#1fb6ff" d="M2013.9,1806.79c2.31,1.33,3.76,3.17,3.77,5.2c0.08,4.08-5.63,7.39-12.69,7.36c-3.5,0-6.69-0.83-9-2.16
						s-3.76-3.17-3.77-5.2c-0.02-4.05,5.68-7.36,12.69-7.36C2008.4,1804.63,2011.59,1805.45,2013.9,1806.79z"/></g><g><path fill="#1fb6ff" d="M1956.62,1799.46c7.5,4.32,10.93,10.77,8.03,17.09c-4.31,9.44-21.07,15.05-37.39,12.51
					c-5.38-0.83-10.04-2.44-13.73-4.56c-7.5-4.32-10.92-10.77-8.03-17.1c4.31-9.44,21.05-15.03,37.39-12.51
					C1948.27,1795.73,1952.94,1797.34,1956.62,1799.46z"/></g><g><path fill="#dbdee4" d="M1493.9,1014.91c-7.03,0-14.06-1.81-20.33-5.43l-173.19-100c-0.93-0.54-1.25-1.73-0.72-2.66
				c0.54-0.94,1.75-1.25,2.67-0.71l173.19,100c11.38,6.56,25.52,6.54,36.85-0.06l183.07-106.39c0.94-0.54,2.12-0.23,2.67,0.71
				c0.54,0.93,0.23,2.12-0.7,2.67l-183.07,106.39C1508.04,1013.08,1500.98,1014.91,1493.9,1014.91z"/></g><g opacity=".1"><polygon points="1519.5 876.98 1548.28 860.25 2248.06 1264.3 2219.27 1281.03"/></g><g><polygon fill="#fff" points="1556.14 831.85 1584.93 815.12 1668.16 863.18 1639.38 879.91"/><path fill="#373b42" d="M1639.38,881.86c-0.33,0-0.67-0.09-0.97-0.26l-83.23-48.06c-0.6-0.35-0.97-0.99-0.97-1.68
								c0-0.7,0.37-1.34,0.97-1.69l28.78-16.73c0.61-0.35,1.35-0.35,1.96,0l83.23,48.06c0.6,0.35,0.97,0.99,0.97,1.68
								c0,0.7-0.37,1.34-0.97,1.69l-28.78,16.73C1640.06,881.77,1639.71,881.86,1639.38,881.86z M1560.03,831.85l79.34,45.81
								l24.89-14.47l-79.34-45.81L1560.03,831.85z"/><polygon fill="#373b42" points="1556.41 736.2 1585.2 719.47 1584.93 815.12 1556.14 831.85"/><path fill="#373b42" d="M1556.14,833.8c-0.34,0-0.67-0.09-0.97-0.26c-0.6-0.35-0.97-0.99-0.97-1.69l0.27-95.65
								c0-0.69,0.37-1.33,0.97-1.68l28.79-16.73c0.61-0.35,1.35-0.35,1.96,0c0.6,0.35,0.97,0.99,0.97,1.69l-0.27,95.65
								c0,0.69-0.37,1.33-0.97,1.68l-28.78,16.73C1556.82,833.71,1556.48,833.8,1556.14,833.8z M1558.36,737.32l-0.26,91.13
								l24.88-14.46l0.27-91.13L1558.36,737.32z"/><polygon fill="#fff" points="1664.2 894.24 1692.99 877.52 1776.22 925.57 1747.44 942.3"/><path fill="#373b42" d="M1747.44,944.25c-0.34,0-0.67-0.09-0.97-0.26l-83.23-48.06c-0.6-0.35-0.97-0.99-0.97-1.68
								c0-0.7,0.37-1.34,0.97-1.69l28.78-16.73c0.61-0.35,1.35-0.35,1.96,0l83.23,48.06c0.6,0.35,0.97,0.99,0.97,1.68
								c0,0.7-0.37,1.34-0.97,1.69l-28.78,16.73C1748.11,944.16,1747.77,944.25,1747.44,944.25z M1668.09,894.24l79.34,45.81
								l24.89-14.47l-79.34-45.81L1668.09,894.24z"/><polygon fill="#373b42" points="1664.47 798.59 1693.26 781.86 1692.99 877.52 1664.2 894.24"/><path fill="#373b42" d="M1664.2,896.19c-0.34,0-0.67-0.09-0.97-0.26c-0.6-0.35-0.97-0.99-0.97-1.69l0.27-95.65
								c0-0.69,0.37-1.33,0.97-1.68l28.78-16.73c0.61-0.35,1.35-0.35,1.96,0c0.6,0.35,0.97,0.99,0.97,1.69l-0.27,95.65
								c0,0.69-0.37,1.33-0.97,1.68l-28.78,16.73C1664.88,896.11,1664.54,896.19,1664.2,896.19z M1666.42,799.72l-0.27,91.13
								l24.88-14.46l0.27-91.13L1666.42,799.72z"/><polygon fill="#fff" points="1772.21 956.61 1800.99 939.88 1884.23 987.94 1855.44 1004.67"/><path fill="#373b42" d="M1855.44,1006.62c-0.33,0-0.67-0.09-0.97-0.26l-83.23-48.06c-0.6-0.35-0.97-0.99-0.97-1.68
								c0-0.7,0.37-1.34,0.97-1.69l28.78-16.73c0.61-0.35,1.35-0.35,1.96,0l83.23,48.06c0.6,0.35,0.97,0.99,0.97,1.68
								c0,0.7-0.37,1.34-0.97,1.69l-28.78,16.73C1856.12,1006.53,1855.78,1006.62,1855.44,1006.62z M1776.1,956.6l79.34,45.81
								l24.89-14.47l-79.34-45.81L1776.1,956.6z"/><polygon fill="#373b42" points="1772.48 860.96 1801.26 844.23 1800.99 939.88 1772.21 956.61"/><path fill="#373b42" d="M1772.21,958.56c-0.34,0-0.67-0.09-0.97-0.26c-0.6-0.35-0.97-0.99-0.97-1.69l0.27-95.65
								c0-0.69,0.37-1.33,0.97-1.68l28.78-16.73c0.61-0.35,1.35-0.35,1.96,0c0.6,0.35,0.97,0.99,0.97,1.69l-0.27,95.65
								c0,0.69-0.37,1.33-0.97,1.68l-28.78,16.73C1772.88,958.47,1772.54,958.56,1772.21,958.56z M1774.43,862.08l-0.27,91.13
								l24.88-14.46l0.27-91.13L1774.43,862.08z"/><polygon fill="#fff" points="1880.27 1019 1909.05 1002.27 1992.29 1050.33 1963.5 1067.06"/><path fill="#373b42" d="M1963.5,1069.01c-0.34,0-0.67-0.09-0.97-0.26l-83.23-48.06c-0.6-0.35-0.97-0.99-0.97-1.68
								c0-0.7,0.37-1.34,0.97-1.69l28.78-16.73c0.61-0.35,1.35-0.35,1.96,0l83.23,48.06c0.6,0.35,0.97,0.99,0.97,1.68
								c0,0.7-0.37,1.34-0.97,1.69l-28.78,16.73C1964.18,1068.92,1963.83,1069.01,1963.5,1069.01z M1884.16,1019l79.34,45.81
								l24.89-14.47l-79.34-45.81L1884.16,1019z"/><polygon fill="#373b42" points="1880.54 923.35 1909.32 906.62 1909.05 1002.27 1880.27 1019"/><path fill="#373b42" d="M1880.26,1020.95c-0.34,0-0.67-0.09-0.97-0.26c-0.6-0.35-0.97-0.99-0.97-1.69l0.27-95.65
								c0-0.69,0.37-1.33,0.97-1.68l28.78-16.73c0.61-0.35,1.35-0.35,1.96,0c0.6,0.35,0.97,0.99,0.97,1.69l-0.27,95.65
								c0,0.69-0.37,1.33-0.97,1.68l-28.78,16.73C1880.94,1020.86,1880.6,1020.95,1880.26,1020.95z M1882.49,924.47l-0.27,91.13
								l24.88-14.46l0.27-91.13L1882.49,924.47z"/><polygon fill="#fff" points="1557.28 431.27 1586.06 414.54 1669.35 462.63 1640.56 479.36"/><path fill="#373b42" d="M1640.57,481.31c-0.33,0-0.67-0.09-0.97-0.26l-83.29-48.09c-0.6-0.35-0.97-0.99-0.97-1.68
								c0-0.7,0.37-1.34,0.97-1.69l28.78-16.73c0.61-0.35,1.35-0.35,1.96,0l83.29,48.09c0.6,0.35,0.97,0.99,0.97,1.68
								c0,0.7-0.37,1.34-0.97,1.69l-28.78,16.73C1641.24,481.22,1640.9,481.31,1640.57,481.31z M1561.17,431.27l79.4,45.84
								l24.89-14.47l-79.4-45.84L1561.17,431.27z"/><polygon fill="#373b42" points="1557.55 335.62 1586.33 318.89 1586.06 414.54 1557.28 431.27"/><path fill="#373b42" d="M1557.28,433.22c-0.34,0-0.67-0.09-0.97-0.26c-0.6-0.35-0.97-0.99-0.97-1.69l0.27-95.65
								c0-0.69,0.37-1.33,0.97-1.68l28.78-16.73c0.61-0.35,1.35-0.35,1.96,0c0.6,0.35,0.97,0.99,0.97,1.69l-0.27,95.65
								c0,0.69-0.37,1.33-0.97,1.68l-28.78,16.73C1557.96,433.13,1557.61,433.22,1557.28,433.22z M1559.5,336.74l-0.27,91.13
								l24.88-14.46l0.27-91.13L1559.5,336.74z"/><polygon fill="#fff" points="1988.27 1081.36 2017.06 1064.63 2100.29 1112.69 2071.51 1129.42"/><path fill="#373b42" d="M2071.5,1131.37c-0.34,0-0.67-0.09-0.97-0.26l-83.23-48.06c-0.6-0.35-0.97-0.99-0.97-1.68
								c0-0.7,0.37-1.34,0.97-1.69l28.79-16.73c0.61-0.35,1.35-0.35,1.96,0l83.23,48.06c0.6,0.35,0.97,0.99,0.97,1.68
								c0,0.7-0.37,1.34-0.97,1.69l-28.79,16.73C2072.18,1131.28,2071.84,1131.37,2071.5,1131.37z M1992.16,1081.36l79.34,45.81
								l24.9-14.47l-79.34-45.81L1992.16,1081.36z"/><polygon fill="#373b42" points="1988.54 985.71 2017.33 968.98 2017.06 1064.63 1988.27 1081.36"/><path fill="#373b42" d="M1988.27,1083.31c-0.34,0-0.67-0.09-0.97-0.26c-0.6-0.35-0.97-0.99-0.97-1.69l0.27-95.65
								c0-0.69,0.37-1.33,0.97-1.68l28.78-16.73c0.61-0.35,1.35-0.35,1.96,0c0.6,0.35,0.97,0.99,0.97,1.69l-0.27,95.65
								c0,0.69-0.37,1.33-0.97,1.68l-28.79,16.73C1988.95,1083.22,1988.6,1083.31,1988.27,1083.31z M1990.49,986.83l-0.27,91.13
								l24.88-14.46l0.26-91.13L1990.49,986.83z"/><polygon fill="#fff" points="1665.34 493.66 1694.12 476.93 1777.36 524.99 1748.57 541.72"/><path fill="#373b42" d="M1748.57,543.67c-0.34,0-0.67-0.09-0.97-0.26l-83.23-48.06c-0.6-0.35-0.97-0.99-0.97-1.68
								c0-0.7,0.37-1.34,0.97-1.69l28.78-16.73c0.61-0.35,1.35-0.35,1.96,0l83.23,48.06c0.6,0.35,0.97,0.99,0.97,1.68
								c0,0.7-0.37,1.34-0.97,1.69l-28.78,16.73C1749.25,543.59,1748.91,543.67,1748.57,543.67z M1669.23,493.66l79.34,45.81
								l24.89-14.47l-79.34-45.81L1669.23,493.66z"/><polygon fill="#373b42" points="1665.61 398.01 1694.39 381.28 1694.12 476.93 1665.34 493.66"/><path fill="#373b42" d="M1665.34,495.61c-0.33,0-0.67-0.09-0.97-0.26c-0.6-0.35-0.97-0.99-0.97-1.69l0.27-95.65
								c0-0.69,0.37-1.33,0.97-1.68l28.78-16.73c0.61-0.35,1.35-0.35,1.96,0c0.6,0.35,0.97,0.99,0.97,1.69l-0.27,95.65
								c0,0.69-0.37,1.33-0.97,1.68l-28.78,16.73C1666.01,495.53,1665.67,495.61,1665.34,495.61z M1667.56,399.14l-0.27,91.13
								l24.88-14.46l0.27-91.13L1667.56,399.14z"/><g><polygon fill="#fff" points="2096.28 1143.72 2125.06 1126.99 2208.3 1175.05 2179.51 1191.78"/><path fill="#373b42" d="M2179.52,1193.73c-0.34,0-0.67-0.09-0.97-0.26l-83.23-48.06c-0.6-0.35-0.97-0.99-0.97-1.68
								c0-0.7,0.37-1.34,0.97-1.69l28.78-16.73c0.61-0.35,1.35-0.35,1.96,0l83.23,48.06c0.6,0.35,0.97,0.99,0.97,1.68
								c0,0.7-0.37,1.34-0.97,1.69l-28.78,16.73C2180.19,1193.64,2179.85,1193.73,2179.52,1193.73z M2100.17,1143.72l79.34,45.81
								l24.89-14.47l-79.34-45.81L2100.17,1143.72z"/></g><g><polygon fill="#373b42" points="2096.55 1048.07 2125.33 1031.34 2125.06 1126.99 2096.28 1143.72"/><path fill="#373b42" d="M2096.28,1145.67c-0.33,0-0.67-0.09-0.97-0.26c-0.6-0.35-0.97-0.99-0.97-1.69l0.27-95.65
								c0-0.69,0.37-1.33,0.97-1.68l28.78-16.73c0.61-0.35,1.35-0.35,1.96,0c0.6,0.35,0.97,0.99,0.97,1.69l-0.27,95.65
								c0,0.69-0.37,1.33-0.97,1.68l-28.78,16.73C2096.96,1145.58,2096.62,1145.67,2096.28,1145.67z M2098.5,1049.2l-0.26,91.13
								l24.88-14.46l0.26-91.13L2098.5,1049.2z"/></g><g><polygon fill="#fff" points="1773.34 556.03 1802.13 539.3 1885.36 587.36 1856.58 604.09"/><path fill="#373b42" d="M1856.58,606.04c-0.34,0-0.67-0.09-0.97-0.26l-83.23-48.06c-0.6-0.35-0.97-0.99-0.97-1.68
								c0-0.7,0.37-1.34,0.97-1.69l28.78-16.73c0.61-0.35,1.35-0.35,1.96,0l83.23,48.06c0.6,0.35,0.97,0.99,0.97,1.68
								c0,0.7-0.37,1.34-0.97,1.69l-28.78,16.73C1857.25,605.95,1856.91,606.04,1856.58,606.04z M1777.23,556.02l79.34,45.81
								l24.89-14.47l-79.34-45.81L1777.23,556.02z"/></g><g><polygon fill="#373b42" points="1773.61 460.38 1802.4 443.65 1802.13 539.3 1773.34 556.03"/><path fill="#373b42" d="M1773.34,557.98c-0.34,0-0.67-0.09-0.97-0.26c-0.6-0.35-0.97-0.99-0.97-1.69l0.27-95.65
								c0-0.69,0.37-1.33,0.97-1.68l28.78-16.73c0.61-0.35,1.35-0.35,1.96,0c0.6,0.35,0.97,0.99,0.97,1.69l-0.27,95.65
								c0,0.69-0.37,1.33-0.97,1.68l-28.78,16.73C1774.02,557.89,1773.68,557.98,1773.34,557.98z M1775.56,461.5l-0.27,91.13
								l24.88-14.46l0.27-91.13L1775.56,461.5z"/></g><g><polygon fill="#fff" points="1881.4 618.42 1910.19 601.69 1993.42 649.75 1964.64 666.48"/><path fill="#373b42" d="M1964.63,668.43c-0.34,0-0.67-0.09-0.97-0.26l-83.23-48.06c-0.6-0.35-0.97-0.99-0.97-1.68
								c0-0.7,0.37-1.34,0.97-1.69l28.79-16.73c0.61-0.35,1.35-0.35,1.96,0l83.23,48.06c0.6,0.35,0.97,0.99,0.97,1.68
								c0,0.7-0.37,1.34-0.97,1.69l-28.79,16.73C1965.31,668.34,1964.97,668.43,1964.63,668.43z M1885.29,618.41l79.34,45.81
								l24.9-14.47l-79.34-45.81L1885.29,618.41z"/></g><g><polygon fill="#373b42" points="1881.67 522.77 1910.46 506.04 1910.19 601.69 1881.4 618.42"/><path fill="#373b42" d="M1881.4,620.37c-0.33,0-0.67-0.09-0.97-0.26c-0.6-0.35-0.97-0.99-0.97-1.69l0.27-95.65
								c0-0.69,0.37-1.33,0.97-1.68l28.78-16.73c0.61-0.35,1.35-0.35,1.96,0c0.6,0.35,0.97,0.99,0.97,1.69l-0.27,95.65
								c0,0.69-0.37,1.33-0.97,1.68l-28.79,16.73C1882.08,620.28,1881.73,620.37,1881.4,620.37z M1883.62,523.89l-0.27,91.13
								l24.88-14.46l0.26-91.13L1883.62,523.89z"/></g><g><polygon fill="#fff" points="1989.41 680.78 2018.19 664.05 2101.43 712.11 2072.64 728.84"/><path fill="#373b42" d="M2072.64,730.79c-0.33,0-0.67-0.09-0.97-0.26l-83.23-48.06c-0.6-0.35-0.97-0.99-0.97-1.68
								c0-0.7,0.37-1.34,0.97-1.69l28.79-16.73c0.61-0.35,1.35-0.35,1.96,0l83.23,48.06c0.6,0.35,0.97,0.99,0.97,1.68
								c0,0.7-0.37,1.34-0.97,1.69l-28.79,16.73C2073.32,730.7,2072.97,730.79,2072.64,730.79z M1993.29,680.78l79.34,45.81
								l24.9-14.47l-79.34-45.81L1993.29,680.78z"/></g><g><polygon fill="#373b42" points="1989.68 585.13 2018.46 568.4 2018.19 664.05 1989.41 680.78"/><path fill="#373b42" d="M1989.4,682.73c-0.34,0-0.67-0.09-0.97-0.26c-0.6-0.35-0.97-0.99-0.97-1.69l0.27-95.65
								c0-0.69,0.37-1.33,0.97-1.68l28.78-16.73c0.61-0.35,1.35-0.35,1.96,0c0.6,0.35,0.97,0.99,0.97,1.69l-0.27,95.65
								c0,0.69-0.37,1.33-0.97,1.68l-28.79,16.73C1990.08,682.64,1989.74,682.73,1989.4,682.73z M1991.63,586.25l-0.27,91.13
								l24.88-14.46l0.26-91.13L1991.63,586.25z"/></g><g><polygon fill="#fff" points="2097.41 743.14 2126.2 726.41 2209.49 774.5 2180.7 791.23"/><path fill="#373b42" d="M2180.7,793.18c-0.33,0-0.67-0.09-0.97-0.26l-83.29-48.09c-0.6-0.35-0.97-0.99-0.97-1.68
								c0-0.7,0.37-1.34,0.97-1.69l28.78-16.73c0.61-0.35,1.35-0.35,1.96,0l83.29,48.09c0.6,0.35,0.97,0.99,0.97,1.68
								c0,0.7-0.37,1.34-0.97,1.69l-28.78,16.73C2181.38,793.1,2181.04,793.18,2180.7,793.18z M2101.31,743.14l79.4,45.84
								l24.89-14.47l-79.4-45.84L2101.31,743.14z"/></g><g><polygon fill="#373b42" points="2097.69 647.49 2126.47 630.76 2126.2 726.41 2097.41 743.14"/><path fill="#373b42" d="M2097.42,745.09c-0.34,0-0.67-0.09-0.97-0.26c-0.6-0.35-0.97-0.99-0.97-1.69l0.27-95.65
								c0-0.69,0.37-1.33,0.97-1.68l28.79-16.73c0.61-0.35,1.35-0.35,1.96,0c0.6,0.35,0.97,0.99,0.97,1.69l-0.27,95.65
								c0,0.69-0.37,1.33-0.97,1.68l-28.78,16.73C2098.09,745.01,2097.75,745.09,2097.42,745.09z M2099.63,648.62l-0.26,91.13
								l24.88-14.46l0.27-91.13L2099.63,648.62z"/></g><g><polygon fill="#373b42" points="2219.27 673.7 2248.06 656.97 2246.4 1241.06 2217.62 1257.78"/><path fill="#373b42" d="M2217.61,1259.73c-0.33,0-0.67-0.09-0.97-0.26c-0.6-0.35-0.97-0.99-0.97-1.69l1.66-584.09
								c0-0.69,0.37-1.33,0.97-1.68l28.78-16.73c0.61-0.35,1.35-0.35,1.96,0c0.6,0.35,0.97,0.99,0.97,1.69l-1.65,584.09
								c0,0.69-0.37,1.33-0.97,1.68l-28.79,16.73C2218.29,1259.65,2217.95,1259.73,2217.61,1259.73z M2221.22,674.82l-1.65,579.57
								l24.88-14.46l1.64-579.57L2221.22,674.82z"/></g><g><path fill="#1fb6ff" d="M1519.5,269.65l699.77,404.05l-1.66,584.09l-136.22-78.65l-563.55-325.39L1519.5,269.65z
								 M1640.56,479.36l0.27-95.65l-83.29-48.09l-0.27,95.65L1640.56,479.36 M2180.7,791.23l0.27-95.65l-83.29-48.09l-0.27,95.65
								L2180.7,791.23 M1747.44,942.3l0.27-95.65l-83.23-48.06l-0.27,95.65L1747.44,942.3 M1855.44,1004.67l0.27-95.65l-83.23-48.06
								l-0.27,95.65L1855.44,1004.67 M1639.38,879.91l0.27-95.65l-83.23-48.06l-0.27,95.65L1639.38,879.91 M1963.5,1067.06
								l0.27-95.65l-83.23-48.06l-0.27,95.65L1963.5,1067.06 M2071.51,1129.42l0.27-95.65l-83.23-48.06l-0.27,95.65L2071.51,1129.42
								 M1748.57,541.72l0.27-95.65l-83.23-48.06l-0.27,95.65L1748.57,541.72 M2179.51,1191.78l0.27-95.65l-83.23-48.06l-0.27,95.65
								L2179.51,1191.78 M2072.64,728.84l0.27-95.65l-83.23-48.06l-0.27,95.65L2072.64,728.84 M1964.64,666.48l0.27-95.65
								l-83.23-48.06l-0.27,95.65L1964.64,666.48 M1856.58,604.09l0.27-95.65l-83.23-48.06l-0.27,95.65L1856.58,604.09"/><path fill="#373b42" d="M2217.61,1259.73c-0.33,0-0.67-0.09-0.97-0.26l-699.77-404.05c-0.6-0.35-0.97-0.99-0.97-1.69
								l1.66-584.09c0-0.7,0.37-1.34,0.97-1.69c0.61-0.34,1.34-0.35,1.95,0l699.77,404.05c0.6,0.35,0.97,0.99,0.97,1.69
								l-1.66,584.09c0,0.7-0.37,1.34-0.97,1.69C2218.28,1259.65,2217.95,1259.73,2217.61,1259.73z M1519.79,852.61l695.88,401.8
								l1.65-579.6l-695.88-401.8L1519.79,852.61z M2179.52,1193.73c-0.34,0-0.67-0.09-0.97-0.26l-83.23-48.06
								c-0.6-0.35-0.97-0.99-0.97-1.69l0.27-95.65c0-0.7,0.37-1.34,0.97-1.69c0.61-0.34,1.34-0.35,1.95,0l83.23,48.06
								c0.6,0.35,0.97,0.99,0.97,1.69l-0.27,95.65c0,0.7-0.37,1.34-0.97,1.69C2180.19,1193.64,2179.85,1193.73,2179.52,1193.73z
								 M2098.23,1142.6l79.34,45.81l0.26-91.16l-79.34-45.81L2098.23,1142.6z M2071.5,1131.37c-0.34,0-0.67-0.09-0.97-0.26
								l-83.23-48.06c-0.6-0.35-0.97-0.99-0.97-1.69l0.27-95.65c0-0.7,0.37-1.34,0.97-1.69c0.61-0.34,1.34-0.35,1.95,0l83.23,48.06
								c0.6,0.35,0.97,0.99,0.97,1.69l-0.27,95.65c0,0.7-0.37,1.34-0.97,1.69C2072.17,1131.28,2071.84,1131.37,2071.5,1131.37z
								 M1990.22,1080.24l79.34,45.81l0.27-91.16l-79.34-45.81L1990.22,1080.24z M1963.5,1069.01c-0.34,0-0.67-0.09-0.97-0.26
								l-83.23-48.06c-0.6-0.35-0.97-0.99-0.97-1.69l0.27-95.65c0-0.7,0.37-1.34,0.97-1.69c0.61-0.34,1.34-0.35,1.95,0l83.23,48.06
								c0.6,0.35,0.97,0.99,0.97,1.69l-0.27,95.65c0,0.7-0.37,1.34-0.97,1.69C1964.17,1068.92,1963.83,1069.01,1963.5,1069.01z
								 M1882.21,1017.88l79.34,45.81l0.27-91.16l-79.34-45.81L1882.21,1017.88z M1855.44,1006.62c-0.33,0-0.67-0.09-0.97-0.26
								l-83.23-48.06c-0.6-0.35-0.97-0.99-0.97-1.69l0.27-95.65c0-0.7,0.37-1.34,0.97-1.69c0.61-0.34,1.34-0.35,1.95,0l83.23,48.06
								c0.6,0.35,0.97,0.99,0.97,1.69l-0.27,95.65c0,0.7-0.37,1.34-0.97,1.69C1856.11,1006.53,1855.78,1006.62,1855.44,1006.62z
								 M1774.16,955.48l79.34,45.81l0.27-91.16l-79.34-45.81L1774.16,955.48z M1747.44,944.25c-0.34,0-0.67-0.09-0.97-0.26
								l-83.23-48.06c-0.6-0.35-0.97-0.99-0.97-1.69l0.27-95.65c0-0.7,0.37-1.34,0.97-1.69c0.61-0.34,1.34-0.35,1.95,0l83.23,48.06
								c0.6,0.35,0.97,0.99,0.97,1.69l-0.27,95.65c0,0.7-0.37,1.34-0.97,1.69C1748.11,944.16,1747.77,944.25,1747.44,944.25z
								 M1666.15,893.12l79.34,45.81l0.27-91.16l-79.34-45.81L1666.15,893.12z M1639.38,881.86c-0.33,0-0.67-0.09-0.97-0.26
								l-83.23-48.06c-0.6-0.35-0.97-0.99-0.97-1.69l0.27-95.65c0-0.7,0.37-1.34,0.97-1.69c0.61-0.34,1.34-0.35,1.95,0l83.23,48.06
								c0.6,0.35,0.97,0.99,0.97,1.69l-0.27,95.65c0,0.7-0.37,1.34-0.97,1.69C1640.05,881.77,1639.71,881.86,1639.38,881.86z
								 M1558.09,830.73l79.34,45.81l0.26-91.16l-79.34-45.81L1558.09,830.73z M2180.7,793.18c-0.33,0-0.67-0.09-0.97-0.26
								l-83.29-48.09c-0.6-0.35-0.97-0.99-0.97-1.69l0.27-95.65c0-0.7,0.37-1.34,0.97-1.69c0.61-0.34,1.34-0.35,1.95,0l83.29,48.09
								c0.6,0.35,0.97,0.99,0.97,1.69l-0.27,95.65c0,0.7-0.37,1.34-0.97,1.69C2181.37,793.1,2181.04,793.18,2180.7,793.18z
								 M2099.37,742.02l79.4,45.84l0.26-91.16l-79.4-45.84L2099.37,742.02z M2072.64,730.79c-0.33,0-0.67-0.09-0.97-0.26
								l-83.23-48.06c-0.6-0.35-0.97-0.99-0.97-1.69l0.27-95.65c0-0.7,0.37-1.34,0.97-1.69c0.61-0.34,1.34-0.35,1.95,0l83.23,48.06
								c0.6,0.35,0.97,0.99,0.97,1.69l-0.27,95.65c0,0.7-0.37,1.34-0.97,1.69C2073.31,730.7,2072.97,730.79,2072.64,730.79z
								 M1991.35,679.66l79.34,45.81l0.27-91.16l-79.34-45.81L1991.35,679.66z M1964.63,668.43c-0.34,0-0.67-0.09-0.97-0.26
								l-83.23-48.06c-0.6-0.35-0.97-0.99-0.97-1.69l0.27-95.65c0-0.7,0.37-1.34,0.97-1.69c0.61-0.34,1.34-0.35,1.95,0l83.23,48.06
								c0.6,0.35,0.97,0.99,0.97,1.69l-0.27,95.65c0,0.7-0.37,1.34-0.97,1.69C1965.3,668.34,1964.97,668.43,1964.63,668.43z
								 M1883.35,617.29l79.34,45.81l0.27-91.16l-79.34-45.81L1883.35,617.29z M1856.58,606.04c-0.34,0-0.67-0.09-0.97-0.26
								l-83.23-48.06c-0.6-0.35-0.97-0.99-0.97-1.69l0.27-95.65c0-0.7,0.37-1.34,0.97-1.69c0.61-0.34,1.34-0.35,1.95,0l83.23,48.06
								c0.6,0.35,0.97,0.99,0.97,1.69l-0.27,95.65c0,0.7-0.37,1.34-0.97,1.69C1857.25,605.95,1856.91,606.04,1856.58,606.04z
								 M1775.29,554.9l79.34,45.81l0.27-91.16l-79.34-45.81L1775.29,554.9z M1748.57,543.67c-0.34,0-0.67-0.09-0.97-0.26
								l-83.23-48.06c-0.6-0.35-0.97-0.99-0.97-1.69l0.27-95.65c0-0.7,0.37-1.34,0.97-1.69c0.61-0.34,1.34-0.35,1.95,0l83.23,48.06
								c0.6,0.35,0.97,0.99,0.97,1.69l-0.27,95.65c0,0.7-0.37,1.34-0.97,1.69C1749.24,543.59,1748.91,543.67,1748.57,543.67z
								 M1667.29,492.54l79.34,45.81l0.27-91.16l-79.34-45.81L1667.29,492.54z M1640.57,481.31c-0.33,0-0.67-0.09-0.97-0.26
								l-83.29-48.09c-0.6-0.35-0.97-0.99-0.97-1.69l0.27-95.65c0-0.7,0.37-1.34,0.97-1.69c0.61-0.34,1.34-0.35,1.95,0l83.28,48.09
								c0.6,0.35,0.97,0.99,0.97,1.69l-0.27,95.65c0,0.7-0.37,1.34-0.97,1.69C1641.24,481.22,1640.9,481.31,1640.57,481.31z
								 M1559.23,430.15l79.4,45.84l0.26-91.16l-79.39-45.84L1559.23,430.15z"/></g><g><polygon fill="#dbdee4" points="1519.5 269.65 1548.28 252.92 2248.06 656.97 2219.27 673.7"/><path fill="#373b42" d="M2219.27,675.64c-0.34,0-0.67-0.09-0.97-0.26l-699.77-404.05c-0.6-0.35-0.97-0.99-0.97-1.68
								c0-0.7,0.37-1.34,0.97-1.69l28.78-16.73c0.61-0.35,1.35-0.35,1.96,0l699.77,404.05c0.6,0.35,0.97,0.99,0.97,1.68
								c0,0.7-0.37,1.34-0.97,1.69l-28.78,16.73C2219.95,675.56,2219.61,675.64,2219.27,675.64z M1523.39,269.64l695.88,401.8
								l24.89-14.47l-695.88-401.8L1523.39,269.64z"/></g><g><path fill="#373b42" d="M1789.67,718.17c-0.15,50.06,35.03,111.07,78.64,136.2c43.56,25.18,78.98,4.98,79.13-45.09
								c0.15-50.06-35.08-111.07-78.64-136.25C1825.25,647.9,1789.77,668.11,1789.67,718.17z"/><path fill="#1fb6ff" d="M1852.58,805.69c2.43,1.4,4.92,2.02,7.18,1.51l37.82-8.6c7.19-1.62,7.22-13.82,0.07-23.7L1860,722.72
								c-2.25-3.13-4.74-5.39-7.17-6.79c-6.54-3.77-12.65-1.34-12.68,7.18l-0.17,60.77
								C1839.95,792.43,1846.04,801.91,1852.58,805.69z"/></g></g><g><path fill="#fff" d="M1329.15,891.02c14.1,8.14,14.18,21.34,0.17,29.48c-14.01,8.14-36.8,8.14-50.9,0s-14.17-21.34-0.16-29.48
					C1292.27,882.88,1315.05,882.88,1329.15,891.02z"/><path fill="#dbdee4" d="M1303.91,928.52c-9.57,0-19.15-2.11-26.46-6.34c-7.46-4.31-11.58-10.16-11.59-16.47
					c-0.01-6.27,4.04-12.09,11.42-16.38c14.53-8.43,38.23-8.44,52.85,0l0,0c7.47,4.31,11.59,10.17,11.6,16.48
					c0.01,6.27-4.05,12.09-11.42,16.38C1323.04,926.41,1313.48,928.52,1303.91,928.52z M1303.67,886.85
					c-8.86,0-17.71,1.95-24.43,5.86c-6.13,3.56-9.5,8.18-9.49,13c0.01,4.86,3.43,9.51,9.64,13.1c13.54,7.82,35.51,7.82,48.94,0
					c6.13-3.56,9.5-8.17,9.49-13c-0.01-4.87-3.43-9.52-9.65-13.11C1321.41,888.8,1312.54,886.85,1303.67,886.85z"/><g><path fill="#1fb6ff" d="M1303.87,915.06c-5.5,0-10.81-1.25-14.59-3.43c-3.03-1.75-4.78-3.9-4.78-5.9c0-1.98,1.7-4.1,4.68-5.83
					c3.75-2.18,9.04-3.43,14.53-3.43c5.49,0,10.81,1.25,14.58,3.43c3.04,1.75,4.78,3.91,4.78,5.91c0,1.98-1.7,4.1-4.68,5.83
					C1314.66,913.81,1309.36,915.06,1303.87,915.06z"/></g></g><g><path fill="#373b42" d="M1427.97,985.7c-5.9,0-11.61-1.34-15.67-3.69c-3.26-1.88-5.13-4.19-5.13-6.34c0-2.12,1.83-4.41,5.03-6.27
				c4.02-2.34,9.71-3.68,15.61-3.68c5.9,0,11.6,1.34,15.66,3.68c3.26,1.88,5.13,4.2,5.14,6.35c0,2.12-1.83,4.4-5.03,6.26
				C1439.56,984.36,1433.87,985.7,1427.97,985.7z"/></g></svg>